<?xml version="1.0" encoding="utf-8"?>
<!-- Generator: Adobe Illustrator 15.0.2, SVG Export Plug-In . SVG Version: 6.00 Build 0)  -->
<!DOCTYPE svg PUBLIC "-//W3C//DTD SVG 1.1//EN" "http://www.w3.org/Graphics/SVG/1.1/DTD/svg11.dtd">
<svg version="1.1" id="Layer_1" xmlns="http://www.w3.org/2000/svg" xmlns:xlink="http://www.w3.org/1999/xlink" x="0px" y="0px"
	 width="150.002px" height="150px" viewBox="188.5 299.5 150.002 150" enable-background="new 188.5 299.5 150.002 150"
	 xml:space="preserve">
<g>
	<path fill="#FFFFFF" d="M286.33,308.636c-1.69,0.607,2.054,0.847,0.994,0c17.06,0,34.119,0,51.178,0c0,19.709,0,39.418,0,59.128
		c-1.085-2.854-1.269-7.148-3.229-8.943c-0.319-0.292-1.041-0.085-1.491-0.497c-0.83-0.759-1.004-1.825-1.739-2.236
		c-2.482-1.383-7.04-1.077-10.186-0.745c-3.528,0.373-5.965,2.812-8.696,3.229c-0.418,3.143-2.406,6.808-4.472,6.708
		c-1.246,1.542-0.542,3.111-1.242,4.969c-0.591,1.566-2.303,2.464-2.733,3.975c-0.636,2.239,0.259,4.604-1.242,6.708
		c0.009,0.818,1.228,0.43,0.994,1.491c0.288,3.321-0.093,6.834,0.993,9.688c0.344,0.901,1.164,1.485,1.739,2.483
		c0.628,1.09,0.702,2.363,1.242,2.981c0.664,0.762,1.803,0.73,2.981,1.491c1.001,0.645,1.396,1.716,2.236,1.986
		c3.723,1.199,8.4-0.523,12.67-0.746c0.915-0.891-1.046-0.007-0.745-0.992c1.867-0.341,2.281-1.973,3.478-3.479
		c1.077-1.354,1.132-1.204,1.988-2.981c0.191-0.397,0.768-0.36,0.993-0.744c0.481-0.822,0.508-1.689,0.994-2.484
		c0.925-1.514,2.393-2.619,2.98-3.975c0.907-2.092,0.781-4.543,2.236-6.46c0.161-1.082-0.324-2.81,0.249-3.479
		c0,24.595,0,49.191,0,73.787c-26.168,0-52.338,0-78.506,0c1.518-0.104,2.872-1.234,4.472-1.491
		c1.695-0.271,3.465,0.107,5.218-0.248c0.879-0.179,1.771-0.801,2.732-0.994c5.248-1.053,11.188-0.279,16.149-1.241
		c1.376-0.268,2.75-0.943,4.223-1.242c4.079-0.826,7.802-1.085,9.69-4.224c2.268-0.713,3.514-2.447,6.459-2.483
		c0.375-1.189-0.336-1.627,1.242-2.733c0.532-1.289,0.865-2.776,1.739-3.726c0.063-2.479,0.597-4.797,0-6.957
		c-0.214-0.773-0.878-1.196-1.243-1.987c-1.555-3.374-2.119-7.779-4.472-10.186c0.194-1.106-0.331-1.491-0.249-2.484
		c-2.321-2.564-3.233-6.539-5.714-8.943c-0.369-2.446-2.542-3.09-2.733-5.715c-1.934-0.8-3.374-2.092-3.975-4.224
		c-2.242-1.65-4.897-2.887-5.962-5.714c-1.162-0.246-2.068-0.748-3.23-0.994c-0.799-1.7-2.919-3.036-4.72-4.471
		c-2.168-1.729-4.239-3.521-7.701-3.977c-0.705-0.206-0.674-1.147-1.491-1.242c-4.057,0.81-6.255-2.133-9.689-1.49
		c-0.844,0.157-1.377,0.928-2.236,1.241c-0.969,0.354-2.143,0.19-2.981,0.497c-2.376,0.869-3.774,3.761-6.708,3.728
		c-0.75,0.244-0.512,1.475-1.242,1.738c-1.558,0.021-2.994,1.473-3.975,1.242c-1.25,1.732-2.683,3.28-4.969,3.976
		c-2.444,2.725-1.672,6.513-2.733,9.688c-0.208,0.625-0.958,1.037-1.242,1.739c-0.339,0.836-0.151,1.854-0.497,2.484
		c-1.031,1.885-3.816,2.947-5.218,4.969c-0.543,0.783-0.674,1.892-1.242,2.732c-1.638,2.427-4.112,4.702-5.217,6.956
		c-1.872,3.819-3.389,9.188-1.988,14.906c0.467,1.905,1.764,2.687,1.988,5.714c1.777,1.606,2.674,4.486,4.72,6.46
		c1.217,1.174,3.128,1.697,3.975,3.229c1.548,0.106,2.7,0.612,3.23,1.737c2.077-0.354,3.518,1.206,5.714,1.739
		c3.698,0.899,8.321-0.299,11.677,0.746c0.759,0.235,1.203,1.77,2.236,0.993c0,0.083,0,0.165,0,0.248c-21.531,0-43.062,0-64.594,0
		c0-27.576,0-55.153,0-82.729c0.896,0.168,0.627-2.098,0-1.987c0-18.715,0-37.433,0-56.147
		C221.736,308.636,254.032,308.636,286.33,308.636z M298.254,313.107c-1.536-0.786-3.89-0.33-5.962-0.994
		c-0.887-0.285-1.639-1.24-2.484-1.491c-4.393-1.302-8.571,1.391-12.422,1.988c-0.465,2.996-2.882,2.822-4.472,4.72
		c-1.858,2.219-2.597,7.063-2.236,11.18c0.643,7.335,0.784,16.439,1.243,22.856c1.639,1.941,1.364,4.426,3.478,5.963
		c0.68,0.494,1.895,0.43,2.981,0.994c0.816,0.423,1.003,1.035,1.739,1.242c4.92,1.387,7.906-1.538,11.18-1.988
		c1.752-2.058,4.728-2.892,6.211-5.217c0.958-1.877,1.523-4.052,2.484-5.964c0.389-0.774,1.33-1.225,1.739-1.986
		c3.254-6.07,2.798-15.38,1.988-24.348C301.818,318.2,301.164,314.597,298.254,313.107z M245.337,363.54
		c0.662-0.911,1.45-1.697,2.733-1.987c4.907-5.822,5.954-17.793,4.72-28.818c-0.598-5.341-4.998-8.083-4.969-13.167
		c-2.424-1.634-4.613-3.502-5.962-6.211c-4.139-0.199-9.987-4.907-12.67-0.497c-0.821-0.071-1.898-0.71-2.484-0.248
		c-0.833,0.078-0.25,1.57-0.994,1.738c-1.901,0.403-1.83,2.399-3.23,2.733c0.796,1.9-1,3.107-1.242,4.72
		c-0.319,2.132,0.612,5.505,0.746,8.447c0.245,5.399,0.195,10.145,0.497,14.906c0.256,0.738,1.358,0.63,1.491,1.491
		c-0.122,1.115,0.126,1.861,0.249,2.732c2.057,1.161,1.292,3.674,1.987,5.466c0.299,0.77,1.1,1.3,1.491,1.987
		c1.98,3.494,4.549,6.855,9.192,7.701c0.174,0.765,0.174,0.478,0,1.243C239.719,365.044,242.377,364.142,245.337,363.54z
		 M195.401,389.13c0.464,0.943,1.659,1.157,1.988,2.235c0.378,0.616,0.062,1.927,0.497,2.484c0.842,1.062,1.834,1.976,1.987,3.727
		c2.371,0.895,4.157,4.481,7.701,5.467c4.654,1.291,12.192-0.274,14.41-2.485c0.451-0.956,0.546-2.269,1.987-2.234
		c0.913-4.253,2.684-9.508,1.243-14.41c-0.394-1.338-2.207-3.582-2.733-4.472c-0.938-1.586-0.925-3.29-2.236-3.976
		c-0.292-3.601-2.159-5.625-3.23-8.446c-4.236-2.517-7.126-7.781-12.422-8.944c-3.374-4.87-9.6,0.421-13.416,1.243
		C190.266,371.573,192.503,380.682,195.401,389.13z"/>
	<path d="M286.33,308.636c0.331,0,0.663,0,0.994,0C288.383,309.482,284.639,309.243,286.33,308.636z"/>
	<path d="M303.72,320.064c0.81,8.967,1.266,18.276-1.988,24.347c-0.409,0.763-1.35,1.212-1.739,1.987
		c-0.961,1.911-1.526,4.085-2.484,5.962c-1.483,2.327-4.458,3.161-6.211,5.217c-3.274,0.449-6.259,3.375-11.18,1.988
		c-0.736-0.207-0.923-0.818-1.739-1.242c-1.086-0.564-2.301-0.5-2.981-0.994c-2.115-1.537-1.84-4.021-3.478-5.963
		c-0.459-6.417-0.6-15.521-1.243-22.856c-0.36-4.115,0.377-8.961,2.236-11.18c1.59-1.897,4.006-1.724,4.472-4.72
		c3.851-0.598,8.029-3.29,12.422-1.988c0.846,0.251,1.597,1.207,2.484,1.491c2.072,0.664,4.427,0.208,5.962,0.994
		C301.164,314.597,301.818,318.2,303.72,320.064z"/>
	<path d="M236.891,365.776c0.174-0.765,0.174-0.479,0-1.242c-4.644-0.847-7.212-4.208-9.192-7.701
		c-0.391-0.688-1.192-1.219-1.491-1.988c-0.696-1.792,0.069-4.305-1.987-5.466c-0.123-0.871-0.371-1.618-0.249-2.732
		c-0.132-0.861-1.234-0.754-1.491-1.491c-0.301-4.763-0.251-9.507-0.497-14.906c-0.134-2.942-1.065-6.315-0.746-8.447
		c0.242-1.612,2.038-2.819,1.242-4.72c1.4-0.334,1.329-2.329,3.23-2.732c0.743-0.167,0.161-1.66,0.994-1.738
		c0.586-0.462,1.663,0.177,2.484,0.249c2.684-4.411,8.532,0.297,12.67,0.497c1.349,2.709,3.538,4.577,5.962,6.211
		c-0.029,5.084,4.372,7.828,4.969,13.167c1.233,11.024,0.187,22.996-4.72,28.818c-1.283,0.29-2.071,1.076-2.733,1.987
		C242.377,364.142,239.719,365.044,236.891,365.776z"/>
	<path d="M338.501,367.764c0,2.65,0,5.301,0,7.95c-0.572,0.67-0.088,2.396-0.248,3.479c-1.455,1.917-1.33,4.369-2.236,6.459
		c-0.588,1.355-2.056,2.462-2.981,3.976c-0.486,0.795-0.512,1.662-0.993,2.484c-0.225,0.384-0.803,0.347-0.994,0.746
		c-0.856,1.775-0.911,1.626-1.988,2.979c-1.197,1.506-1.61,3.14-3.478,3.479c-0.301,0.985,1.66,0.103,0.745,0.993
		c-4.27,0.222-8.948,1.943-12.67,0.744c-0.84-0.27-1.235-1.342-2.236-1.986c-1.179-0.76-2.317-0.729-2.981-1.49
		c-0.54-0.619-0.614-1.893-1.242-2.98c-0.576-0.999-1.396-1.583-1.739-2.484c-1.087-2.854-0.706-6.367-0.994-9.688
		c0.234-1.062-0.985-0.672-0.994-1.49c1.502-2.104,0.606-4.47,1.243-6.708c0.429-1.512,2.142-2.409,2.732-3.976
		c0.701-1.856-0.004-3.427,1.242-4.969c2.067,0.099,4.054-3.565,4.472-6.708c2.73-0.418,5.168-2.857,8.695-3.229
		c3.147-0.333,7.704-0.638,10.186,0.745c0.735,0.41,0.91,1.478,1.739,2.236c0.451,0.412,1.172,0.205,1.491,0.497
		C337.232,360.615,337.416,364.909,338.501,367.764z"/>
	<path d="M191.178,359.317c3.815-0.821,10.042-6.112,13.415-1.243c5.296,1.164,8.186,6.428,12.422,8.943
		c1.071,2.822,2.938,4.848,3.23,8.447c1.311,0.687,1.298,2.389,2.236,3.976c0.526,0.89,2.339,3.134,2.733,4.472
		c1.441,4.902-0.33,10.157-1.243,14.409c-1.44-0.032-1.536,1.279-1.987,2.235c-2.218,2.211-9.756,3.775-14.41,2.484
		c-3.544-0.984-5.33-4.571-7.701-5.466c-0.153-1.751-1.145-2.664-1.987-3.728c-0.436-0.559-0.119-1.869-0.497-2.483
		c-0.329-1.079-1.523-1.292-1.988-2.236C192.503,380.682,190.266,371.573,191.178,359.317z"/>
	<path d="M189.438,364.782c0.627-0.11,0.896,2.156,0,1.987C189.438,366.108,189.438,365.445,189.438,364.782z"/>
	<path d="M259.995,449.5c-1.987,0-3.975,0-5.962,0c0-0.083,0-0.165,0-0.248c-1.033,0.775-1.476-0.758-2.236-0.994
		c-3.356-1.044-7.979,0.153-11.677-0.745c-2.196-0.532-3.637-2.095-5.714-1.738c-0.53-1.126-1.681-1.632-3.229-1.738
		c-0.847-1.532-2.758-2.058-3.975-3.23c-2.046-1.974-2.943-4.853-4.72-6.459c-0.224-3.027-1.52-3.809-1.988-5.714
		c-1.402-5.72,0.116-11.087,1.988-14.906c1.105-2.254,3.579-4.529,5.217-6.955c0.568-0.843,0.699-1.949,1.242-2.733
		c1.401-2.021,4.187-3.084,5.218-4.969c0.345-0.632,0.158-1.648,0.497-2.484c0.284-0.702,1.033-1.114,1.242-1.739
		c1.061-3.176,0.289-6.965,2.732-9.688c2.287-0.694,3.72-2.243,4.969-3.975c0.981,0.23,2.417-1.222,3.975-1.242
		c0.729-0.265,0.492-1.495,1.242-1.739c2.933,0.033,4.332-2.858,6.708-3.727c0.839-0.307,2.014-0.142,2.982-0.497
		c0.858-0.314,1.392-1.085,2.236-1.242c3.434-0.643,5.633,2.299,9.689,1.49c0.817,0.095,0.785,1.036,1.491,1.242
		c3.463,0.454,5.533,2.247,7.701,3.976c1.801,1.436,3.921,2.771,4.721,4.472c1.161,0.246,2.068,0.747,3.229,0.993
		c1.065,2.828,3.721,4.062,5.962,5.715c0.602,2.131,2.042,3.423,3.975,4.223c0.19,2.625,2.364,3.269,2.733,5.714
		c2.48,2.405,3.392,6.38,5.714,8.944c-0.082,0.993,0.443,1.379,0.248,2.484c2.354,2.405,2.917,6.812,4.472,10.186
		c0.364,0.791,1.028,1.214,1.242,1.987c0.597,2.16,0.063,4.479,0,6.957c-0.873,0.948-1.207,2.437-1.739,3.726
		c-1.579,1.107-0.867,1.544-1.243,2.733c-2.944,0.036-4.191,1.771-6.459,2.483c-1.888,3.138-5.611,3.397-9.689,4.224
		c-1.473,0.298-2.847,0.976-4.224,1.242c-4.96,0.962-10.901,0.188-16.148,1.241c-0.961,0.193-1.853,0.815-2.733,0.994
		c-1.752,0.354-3.522-0.023-5.218,0.248C262.866,448.267,261.513,449.397,259.995,449.5z M260.243,373.976
		c0.515-0.147,1.632,0.308,1.739-0.25C261.647,373.388,260.248,373.253,260.243,373.976z"/>
	<path fill="#FFFFFF" d="M261.982,373.726c-0.107,0.557-1.225,0.102-1.739,0.25C260.248,373.253,261.647,373.388,261.982,373.726z"
		/>
</g>
<rect x="188.5" y="299.5" fill="none" width="150" height="150"/>
</svg>
