<?xml version="1.0" encoding="utf-8"?>
<!-- Generator: Adobe Illustrator 15.0.2, SVG Export Plug-In . SVG Version: 6.00 Build 0)  -->
<!DOCTYPE svg PUBLIC "-//W3C//DTD SVG 1.1//EN" "http://www.w3.org/Graphics/SVG/1.1/DTD/svg11.dtd">
<svg version="1.1" id="Layer_1" xmlns="http://www.w3.org/2000/svg" xmlns:xlink="http://www.w3.org/1999/xlink" x="0px" y="0px"
	 width="283.463px" height="283.465px" viewBox="171.739 40.481 283.463 283.465"
	 enable-background="new 171.739 40.481 283.463 283.465" xml:space="preserve">
<title>Red</title>
<title>Layer 1</title>
<path id="path4092" d="M189.199,323.615c0.011-0.916,0.016-1.833,0-2.765c-0.012-0.654-0.042-1.317-0.068-1.979
	c-0.164-4.062-0.616-7.966-1.389-11.538s-1.86-6.817-3.186-9.646c-1.21-2.626-2.614-4.895-4.03-6.766s-2.848-3.343-4.112-4.496
	c-2.856-2.036-4.493-3.434-4.343-3.826c0.158-0.389,2.113,0.277,5.5,1.833c1.555,0.971,3.332,2.364,5.12,4.248
	c1.787,1.885,3.577,4.274,5.133,7.129c1.638,3.044,3.007,6.572,3.976,10.448c0.969,3.874,1.542,8.089,1.702,12.425
	c0.026,0.706,0.035,1.414,0.041,2.109c0.009,0.954-0.005,1.889-0.027,2.823H189.199L189.199,323.615z"/>
<path id="path4090" d="M203.398,323.615c0.092-0.907,0.195-1.816,0.272-2.735c0.458-5.45,0.604-10.74,0.472-15.732
	c-0.152-5.845-0.691-11.288-1.416-16.14s-1.629-9.101-2.469-12.628c-0.84-3.529-1.602-6.338-2.069-8.304
	c-0.468-1.965-0.644-3.09-0.345-3.239c0.299-0.149,1.043,0.691,2.069,2.444c1.026,1.753,2.343,4.425,3.685,7.915
	c1.343,3.49,2.7,7.81,3.812,12.822c1.112,5.013,1.966,10.715,2.305,16.877c0.288,5.253,0.224,10.829-0.254,16.547
	c-0.061,0.73-0.127,1.449-0.2,2.173H203.398z"/>
<path id="path4088" d="M215.776,323.615c1.164-3.836,2.366-7.489,3.472-10.912c1.192-3.689,2.269-7.13,3.145-10.287
	c0.511-1.845,0.958-3.587,1.321-5.209c0.362-1.621,0.637-3.121,0.844-4.496c0.203-1.357,0.335-2.591,0.422-3.666
	c0.086-1.076,0.124-1.991,0.15-2.75c0.026-0.76,0.052-1.362,0.095-1.775s0.112-0.641,0.232-0.669
	c0.119-0.029,0.288,0.145,0.476,0.523s0.402,0.969,0.599,1.746s0.371,1.744,0.49,2.896s0.172,2.477,0.136,3.942
	c-0.034,1.482-0.148,3.115-0.368,4.86s-0.537,3.614-0.939,5.558c-0.686,3.323-1.604,6.916-2.682,10.694
	c-0.875,3.063-1.863,6.268-2.846,9.545H215.776z"/>
<path id="path4086" d="M234.811,323.615c0.025-0.687,0.059-1.365,0.082-2.061c0.002-0.068-0.002-0.141,0-0.209
	c0.185-5.868,0.272-11.467,0.376-16.587s0.236-9.761,0.424-13.653c0.189-3.893,0.434-7.039,0.736-9.219
	c0.302-2.18,0.652-3.388,1.013-3.388s0.706,1.201,1.029,3.37s0.63,5.302,0.915,9.184c0.284,3.882,0.542,8.517,0.702,13.671
	c0.16,5.154,0.219,10.835,0.033,16.813c-0.002,0.07,0.002,0.14,0,0.21c-0.02,0.63-0.057,1.244-0.082,1.868H234.811z"/>
<path id="path4038" d="M248.494,323.615c0.11-2.938,0.345-5.756,0.707-8.336c0.438-3.128,1.053-5.911,1.737-8.182
	c0.684-2.271,1.424-4.032,2.041-5.198c0.615-1.167,1.095-1.739,1.322-1.641c0.228,0.099,0.182,0.862-0.022,2.144
	c-0.205,1.281-0.554,3.083-0.896,5.33c-0.344,2.247-0.674,4.937-0.908,7.953c-0.19,2.45-0.312,5.126-0.393,7.93H248.494
	L248.494,323.615z"/>
<path id="path4082" d="M294.187,276.107c-0.135-0.003-0.353,0.178-0.64,0.553c-0.327,0.428-0.743,1.107-1.198,2.022
	c-0.456,0.914-0.947,2.066-1.416,3.463c-0.469,1.396-0.911,3.04-1.253,4.889c-0.314,1.695-0.538,3.562-0.653,5.572
	c-0.116,2.012-0.119,4.167,0.013,6.416c0.196,3.322,0.651,6.854,1.361,10.506c0.711,3.651,1.677,7.42,2.778,11.232
	c0.225,0.777,0.452,1.536,0.681,2.298c0.09,0.301,0.182,0.591,0.272,0.888h4.548c-0.229-0.764-0.454-1.509-0.681-2.284
	c-0.22-0.753-0.435-1.506-0.654-2.27c-1.075-3.742-2.045-7.383-2.818-10.854c-0.773-3.471-1.345-6.772-1.688-9.88
	c-0.233-2.098-0.372-4.107-0.409-5.98c-0.037-1.872,0.026-3.61,0.15-5.208c0.268-3.478,0.848-6.263,1.266-8.191
	c0.209-0.965,0.37-1.723,0.449-2.256c0.08-0.533,0.072-0.837-0.054-0.901C294.226,276.113,294.207,276.107,294.187,276.107
	L294.187,276.107z"/>
<path id="path4080" d="M272.161,276.438c-0.049-0.011-0.115,0.009-0.163,0.087c-0.047,0.078-0.07,0.228-0.082,0.331
	c-0.024,0.184-0.026,0.423,0,0.697c0.053,0.544,0.205,1.273,0.424,2.145c0.436,1.731,1.171,4.11,2.055,7.009
	c1.746,5.719,4.116,13.574,5.955,22.839c0.894,4.504,1.64,9.347,2.153,14.4h5.27c-0.559-5.521-1.5-10.781-2.643-15.604
	c-1.13-4.773-2.458-9.124-3.818-12.971c-1.359-3.847-2.745-7.188-4.013-9.938c-1.29-2.798-2.441-4.966-3.328-6.485
	c-0.45-0.773-0.819-1.361-1.109-1.778c-0.148-0.217-0.273-0.37-0.375-0.488c-0.066-0.109-0.144-0.124-0.195-0.157
	C272.24,276.493,272.211,276.449,272.161,276.438z"/>
<path id="path4078" d="M262.586,285.666c-0.277,0.101-0.181,1.302,0.177,3.391c0.357,2.088,0.972,5.073,1.688,8.759
	c0.716,3.686,1.532,8.062,2.151,12.949c0.517,4.083,0.896,8.525,0.953,13.182h4.316c-0.119-4.944-0.645-9.615-1.375-13.851
	c-0.868-5.036-2.005-9.471-3.118-13.124c-1.114-3.653-2.201-6.516-3.05-8.453C263.479,286.58,262.863,285.566,262.586,285.666z"/>
<path id="path4076" d="M306.269,286.603c-0.322,0-0.625,0.968-0.919,2.683c-0.295,1.714-0.588,4.184-0.876,7.25
	c-0.287,3.067-0.56,6.725-0.773,10.807s-0.361,8.592-0.277,13.348c0.002,0.157,0.011,0.311,0.015,0.468
	c0.016,0.82,0.042,1.64,0.073,2.447h4.669c-0.024-0.845-0.054-1.694-0.073-2.557c-0.002-0.153-0.012-0.298-0.015-0.452
	c-0.083-4.637-0.079-9.086-0.102-13.146c-0.022-4.059-0.069-7.729-0.204-10.821s-0.349-5.597-0.613-7.328
	S306.591,286.603,306.269,286.603z"/>
<path id="path4068" d="M310.553,290.453c-0.286,0.095-0.264,1.133-0.068,2.925c0.196,1.792,0.568,4.342,0.954,7.493
	c0.385,3.15,0.776,6.908,1.089,11.102c0.276,3.693,0.484,7.736,0.64,11.974h4.357c-0.179-4.395-0.517-8.604-1.008-12.439
	c-0.549-4.288-1.279-8.115-2.069-11.276c-0.79-3.16-1.638-5.656-2.342-7.333S310.839,290.358,310.553,290.453z"/>
<path id="path2886" d="M189.199,323.615c0.011-0.916,0.016-1.833,0-2.765c-0.012-0.654-0.042-1.317-0.068-1.979
	c-0.164-4.062-0.616-7.966-1.389-11.538s-1.86-6.817-3.186-9.646c-1.21-2.626-2.614-4.895-4.03-6.766s-2.848-3.343-4.112-4.496
	c-2.856-2.036-4.493-3.434-4.343-3.826c0.158-0.389,2.113,0.277,5.5,1.833c1.555,0.971,3.332,2.364,5.12,4.248
	c1.787,1.885,3.577,4.274,5.133,7.129c1.638,3.044,3.007,6.572,3.976,10.448c0.969,3.874,1.542,8.089,1.702,12.425
	c0.026,0.706,0.035,1.414,0.041,2.109c0.009,0.954-0.005,1.889-0.027,2.823H189.199L189.199,323.615z"/>
<path id="path2888" d="M203.398,323.615c0.092-0.907,0.195-1.816,0.272-2.735c0.458-5.45,0.604-10.74,0.472-15.732
	c-0.152-5.845-0.691-11.288-1.416-16.14s-1.629-9.101-2.469-12.628c-0.84-3.529-1.602-6.338-2.069-8.304
	c-0.468-1.965-0.644-3.09-0.345-3.239c0.299-0.149,1.043,0.691,2.069,2.444c1.026,1.753,2.343,4.425,3.685,7.915
	c1.343,3.49,2.7,7.81,3.812,12.822c1.112,5.013,1.966,10.715,2.305,16.877c0.288,5.253,0.224,10.829-0.254,16.547
	c-0.061,0.73-0.127,1.449-0.2,2.173H203.398z"/>
<path id="path2890" d="M215.776,323.615c1.164-3.836,2.366-7.489,3.472-10.912c1.192-3.689,2.269-7.13,3.145-10.287
	c0.511-1.845,0.958-3.587,1.321-5.209c0.362-1.621,0.637-3.121,0.844-4.496c0.203-1.357,0.335-2.591,0.422-3.666
	c0.086-1.076,0.124-1.991,0.15-2.75c0.026-0.76,0.052-1.362,0.095-1.775s0.112-0.641,0.232-0.669
	c0.119-0.029,0.288,0.145,0.476,0.523s0.402,0.969,0.599,1.746s0.371,1.744,0.49,2.896s0.172,2.477,0.136,3.942
	c-0.034,1.482-0.148,3.115-0.368,4.86s-0.537,3.614-0.939,5.558c-0.686,3.323-1.604,6.916-2.682,10.694
	c-0.875,3.063-1.863,6.268-2.846,9.545H215.776z"/>
<path id="path2892" d="M234.811,323.615c0.025-0.687,0.059-1.365,0.082-2.061c0.002-0.068-0.002-0.141,0-0.209
	c0.185-5.868,0.272-11.467,0.376-16.587s0.236-9.761,0.424-13.653c0.189-3.893,0.434-7.039,0.736-9.219
	c0.302-2.18,0.652-3.388,1.013-3.388s0.706,1.201,1.029,3.37s0.63,5.302,0.915,9.184c0.284,3.882,0.542,8.517,0.702,13.671
	c0.16,5.154,0.219,10.835,0.033,16.813c-0.002,0.07,0.002,0.14,0,0.21c-0.02,0.63-0.057,1.244-0.082,1.868H234.811z"/>
<path id="path2894" d="M248.494,323.615c0.11-2.938,0.345-5.756,0.707-8.336c0.438-3.128,1.053-5.911,1.737-8.182
	c0.684-2.271,1.424-4.032,2.041-5.198c0.615-1.167,1.095-1.739,1.322-1.641c0.228,0.099,0.182,0.862-0.022,2.144
	c-0.205,1.281-0.554,3.083-0.896,5.33c-0.344,2.247-0.674,4.937-0.908,7.953c-0.19,2.45-0.312,5.126-0.393,7.93H248.494
	L248.494,323.615z"/>
<path id="path2896" d="M294.187,276.107c-0.135-0.003-0.353,0.178-0.64,0.553c-0.327,0.428-0.743,1.107-1.198,2.022
	c-0.456,0.914-0.947,2.066-1.416,3.463c-0.469,1.396-0.911,3.04-1.253,4.889c-0.314,1.695-0.538,3.562-0.653,5.572
	c-0.116,2.012-0.119,4.167,0.013,6.416c0.196,3.322,0.651,6.854,1.361,10.506c0.711,3.651,1.677,7.42,2.778,11.232
	c0.225,0.777,0.452,1.536,0.681,2.298c0.09,0.301,0.182,0.591,0.272,0.888h4.548c-0.229-0.764-0.454-1.509-0.681-2.284
	c-0.22-0.753-0.435-1.506-0.654-2.27c-1.075-3.742-2.045-7.383-2.818-10.854c-0.773-3.471-1.345-6.772-1.688-9.88
	c-0.233-2.098-0.372-4.107-0.409-5.98c-0.037-1.872,0.026-3.61,0.15-5.208c0.268-3.478,0.848-6.263,1.266-8.191
	c0.209-0.965,0.37-1.723,0.449-2.256c0.08-0.533,0.072-0.837-0.054-0.901C294.226,276.113,294.207,276.107,294.187,276.107
	L294.187,276.107z"/>
<path id="path2898" d="M272.161,276.438c-0.049-0.011-0.115,0.009-0.163,0.087c-0.047,0.078-0.07,0.228-0.082,0.331
	c-0.024,0.184-0.026,0.423,0,0.697c0.053,0.544,0.205,1.273,0.424,2.145c0.436,1.731,1.171,4.11,2.055,7.009
	c1.746,5.719,4.116,13.574,5.955,22.839c0.894,4.504,1.64,9.347,2.153,14.4h5.27c-0.559-5.521-1.5-10.781-2.643-15.604
	c-1.13-4.773-2.458-9.124-3.818-12.971c-1.359-3.847-2.745-7.188-4.013-9.938c-1.29-2.798-2.441-4.966-3.328-6.485
	c-0.45-0.773-0.819-1.361-1.109-1.778c-0.148-0.217-0.273-0.37-0.375-0.488c-0.066-0.109-0.144-0.124-0.195-0.157
	C272.24,276.493,272.211,276.449,272.161,276.438z"/>
<path id="path2900" d="M262.586,285.666c-0.277,0.101-0.181,1.302,0.177,3.391c0.357,2.088,0.972,5.073,1.688,8.759
	c0.716,3.686,1.532,8.062,2.151,12.949c0.517,4.083,0.896,8.525,0.953,13.182h4.316c-0.119-4.944-0.645-9.615-1.375-13.851
	c-0.868-5.036-2.005-9.471-3.118-13.124c-1.114-3.653-2.201-6.516-3.05-8.453C263.479,286.58,262.863,285.566,262.586,285.666z"/>
<path id="path2902" d="M306.269,286.603c-0.322,0-0.625,0.968-0.919,2.683c-0.295,1.714-0.588,4.184-0.876,7.25
	c-0.287,3.067-0.56,6.725-0.773,10.807s-0.361,8.592-0.277,13.348c0.002,0.157,0.011,0.311,0.015,0.468
	c0.016,0.82,0.042,1.64,0.073,2.447h4.669c-0.024-0.845-0.054-1.694-0.073-2.557c-0.002-0.153-0.012-0.298-0.015-0.452
	c-0.083-4.637-0.079-9.086-0.102-13.146c-0.022-4.059-0.069-7.729-0.204-10.821s-0.349-5.597-0.613-7.328
	S306.591,286.603,306.269,286.603z"/>
<path id="path2904" d="M310.553,290.453c-0.286,0.095-0.264,1.133-0.068,2.925c0.196,1.792,0.568,4.342,0.954,7.493
	c0.385,3.15,0.776,6.908,1.089,11.102c0.276,3.693,0.484,7.736,0.64,11.974h4.357c-0.179-4.395-0.517-8.604-1.008-12.439
	c-0.549-4.288-1.279-8.115-2.069-11.276c-0.79-3.16-1.638-5.656-2.342-7.333S310.839,290.358,310.553,290.453z"/>
<path id="path2910" d="M220.005,318.95c1.194-3.939,2.43-7.691,3.565-11.207c1.224-3.788,2.33-7.321,3.23-10.563
	c0.525-1.895,0.984-3.684,1.356-5.35c0.372-1.665,0.654-3.206,0.867-4.617c0.209-1.394,0.345-2.66,0.434-3.765
	s0.126-2.045,0.154-2.824c0.027-0.78,0.053-1.398,0.098-1.823c0.044-0.424,0.114-0.658,0.237-0.688s0.296,0.149,0.489,0.538
	c0.194,0.389,0.413,0.995,0.615,1.793s0.381,1.791,0.503,2.974c0.123,1.183,0.176,2.543,0.14,4.049
	c-0.035,1.523-0.152,3.198-0.377,4.991c-0.225,1.792-0.552,3.711-0.964,5.707c-0.705,3.413-1.647,7.104-2.755,10.983
	c-0.898,3.146-1.913,6.436-2.922,9.802H220.005z"/>
<path id="path2914" d="M253.604,318.95c0.113-3.017,0.354-5.91,0.726-8.562c0.449-3.211,1.082-6.069,1.784-8.401
	c0.702-2.332,1.462-4.141,2.095-5.338c0.633-1.198,1.125-1.787,1.358-1.686s0.187,0.886-0.022,2.202
	c-0.21,1.315-0.569,3.166-0.921,5.474c-0.352,2.307-0.691,5.069-0.932,8.168c-0.196,2.515-0.319,5.264-0.403,8.143H253.604
	L253.604,318.95z"/>
<path id="path2916" d="M300.53,270.161c-0.139-0.002-0.363,0.185-0.657,0.568c-0.336,0.438-0.763,1.138-1.23,2.077
	s-0.973,2.122-1.454,3.556c-0.482,1.434-0.935,3.122-1.287,5.021c-0.322,1.741-0.552,3.658-0.671,5.723
	c-0.119,2.065-0.122,4.278,0.014,6.59c0.202,3.411,0.667,7.037,1.399,10.788c0.73,3.75,1.722,7.62,2.852,11.535
	c0.23,0.798,0.464,1.579,0.7,2.36c0.092,0.309,0.187,0.606,0.28,0.911h4.67c-0.235-0.784-0.465-1.55-0.699-2.345
	c-0.227-0.774-0.446-1.548-0.671-2.331c-1.104-3.844-2.1-7.583-2.894-11.147c-0.794-3.564-1.382-6.954-1.734-10.146
	c-0.24-2.154-0.382-4.219-0.419-6.141c-0.038-1.923,0.026-3.708,0.154-5.35c0.274-3.571,0.871-6.431,1.3-8.412
	c0.214-0.991,0.38-1.769,0.461-2.316c0.082-0.547,0.075-0.859-0.056-0.926C300.569,270.168,300.549,270.161,300.53,270.161
	L300.53,270.161z"/>
<path id="path2918" d="M277.91,270.502c-0.051-0.011-0.119,0.01-0.167,0.09c-0.049,0.079-0.072,0.232-0.084,0.34
	c-0.025,0.188-0.027,0.434,0,0.716c0.054,0.558,0.21,1.308,0.436,2.202c0.448,1.778,1.203,4.222,2.111,7.197
	c1.793,5.873,4.227,13.94,6.116,23.455c0.917,4.625,1.684,9.599,2.211,14.789h5.412c-0.574-5.67-1.541-11.072-2.714-16.024
	c-1.161-4.903-2.525-9.37-3.921-13.321c-1.396-3.95-2.819-7.381-4.122-10.205c-1.325-2.873-2.507-5.1-3.417-6.66
	c-0.462-0.794-0.841-1.397-1.14-1.826c-0.153-0.222-0.281-0.38-0.385-0.501c-0.068-0.112-0.148-0.128-0.201-0.161
	C277.991,270.558,277.96,270.513,277.91,270.502z"/>
<path id="path2920" d="M268.076,279.979c-0.285,0.103-0.186,1.337,0.182,3.481s0.998,5.21,1.734,8.995
	c0.735,3.785,1.573,8.28,2.209,13.298c0.531,4.194,0.919,8.755,0.979,13.538h4.433c-0.123-5.078-0.663-9.876-1.413-14.225
	c-0.892-5.172-2.059-9.727-3.202-13.479c-1.143-3.751-2.259-6.689-3.132-8.681S268.361,279.876,268.076,279.979z"/>
<path id="path2922" d="M312.936,280.94c-0.331,0-0.641,0.993-0.944,2.754c-0.303,1.762-0.604,4.297-0.899,7.446
	c-0.294,3.149-0.575,6.905-0.794,11.098c-0.219,4.192-0.371,8.823-0.285,13.707c0.002,0.162,0.011,0.319,0.015,0.48
	c0.016,0.843,0.043,1.684,0.075,2.514h4.795c-0.025-0.868-0.056-1.74-0.075-2.626c-0.003-0.157-0.012-0.306-0.015-0.464
	c-0.086-4.762-0.082-9.331-0.105-13.5c-0.024-4.168-0.071-7.937-0.209-11.113c-0.139-3.176-0.359-5.748-0.63-7.526
	C313.595,281.933,313.268,280.94,312.936,280.94z"/>
<path id="path2926" d="M201.462,320.394c0.01-0.811,0.014-1.621,0-2.446c-0.01-0.58-0.037-1.167-0.061-1.752
	c-0.145-3.596-0.545-7.052-1.229-10.214c-0.685-3.162-1.647-6.034-2.821-8.539c-1.071-2.325-2.314-4.333-3.568-5.989
	c-1.253-1.656-2.521-2.958-3.64-3.979c-2.529-1.803-3.978-3.039-3.845-3.388c0.141-0.344,1.871,0.246,4.87,1.623
	c1.376,0.859,2.949,2.093,4.532,3.761s3.166,3.784,4.543,6.312c1.45,2.693,2.662,5.817,3.519,9.247
	c0.858,3.431,1.366,7.161,1.507,11c0.023,0.624,0.032,1.251,0.036,1.867c0.007,0.844-0.004,1.671-0.024,2.498H201.462
	L201.462,320.394z"/>
<path id="path2928" d="M214.031,320.394c0.082-0.803,0.172-1.607,0.241-2.421c0.406-4.824,0.535-9.507,0.418-13.927
	c-0.135-5.174-0.612-9.992-1.253-14.286c-0.642-4.295-1.442-8.057-2.186-11.18s-1.418-5.609-1.832-7.35
	c-0.414-1.739-0.57-2.735-0.306-2.868c0.265-0.132,0.924,0.612,1.832,2.164s2.073,3.916,3.262,7.007
	c1.189,3.09,2.391,6.913,3.375,11.351c0.984,4.437,1.74,9.484,2.041,14.939c0.254,4.649,0.198,9.586-0.226,14.647
	c-0.054,0.646-0.112,1.283-0.177,1.923H214.031z"/>
<path id="path2930" d="M224.989,320.394c1.03-3.396,2.094-6.629,3.073-9.659c1.055-3.266,2.008-6.312,2.784-9.106
	c0.453-1.633,0.848-3.175,1.169-4.61c0.321-1.437,0.564-2.764,0.748-3.98c0.18-1.201,0.297-2.293,0.374-3.245
	c0.076-0.952,0.109-1.763,0.132-2.435s0.046-1.205,0.084-1.571s0.099-0.566,0.205-0.593c0.106-0.025,0.254,0.129,0.422,0.464
	c0.167,0.335,0.355,0.857,0.53,1.546c0.175,0.688,0.328,1.544,0.434,2.562c0.106,1.02,0.152,2.192,0.121,3.49
	c-0.031,1.313-0.131,2.758-0.326,4.302c-0.195,1.546-0.476,3.199-0.832,4.921c-0.607,2.941-1.42,6.122-2.374,9.466
	c-0.774,2.713-1.649,5.548-2.519,8.449H224.989z"/>
<path id="path2932" d="M241.839,320.394c0.022-0.607,0.052-1.208,0.072-1.823c0.002-0.062-0.002-0.125,0-0.186
	c0.163-5.194,0.24-10.15,0.333-14.683c0.092-4.533,0.208-8.641,0.376-12.086c0.167-3.446,0.384-6.232,0.651-8.161
	s0.577-2.998,0.896-2.998s0.625,1.062,0.911,2.982s0.559,4.694,0.81,8.13s0.48,7.539,0.622,12.102
	c0.141,4.562,0.193,9.592,0.029,14.884c-0.002,0.062,0.001,0.124,0,0.186c-0.018,0.558-0.05,1.102-0.073,1.653H241.839
	L241.839,320.394z"/>
<path id="path2934" d="M253.951,320.394c0.097-2.6,0.305-5.095,0.625-7.379c0.388-2.769,0.933-5.231,1.538-7.242
	c0.604-2.011,1.26-3.569,1.806-4.602c0.545-1.032,0.97-1.54,1.17-1.453c0.201,0.088,0.161,0.765-0.02,1.898
	c-0.181,1.134-0.49,2.729-0.794,4.718c-0.304,1.989-0.596,4.37-0.804,7.041c-0.168,2.168-0.275,4.538-0.347,7.019H253.951
	L253.951,320.394z"/>
<path id="path2938" d="M274.902,278.633c-0.044-0.01-0.103,0.008-0.145,0.077c-0.042,0.068-0.062,0.201-0.072,0.293
	c-0.022,0.163-0.023,0.374,0,0.617c0.046,0.481,0.181,1.127,0.375,1.898c0.386,1.532,1.037,3.639,1.82,6.204
	c1.545,5.062,3.643,12.016,5.271,20.217c0.791,3.987,1.452,8.274,1.907,12.748h4.665c-0.495-4.888-1.328-9.544-2.339-13.812
	c-1.001-4.227-2.176-8.077-3.38-11.482c-1.203-3.405-2.43-6.362-3.553-8.797c-1.142-2.477-2.161-4.396-2.946-5.741
	c-0.398-0.685-0.725-1.204-0.981-1.574c-0.132-0.19-0.242-0.327-0.333-0.432c-0.059-0.097-0.128-0.11-0.173-0.139
	C274.972,278.681,274.946,278.642,274.902,278.633z"/>
<path id="path2948" d="M263.79,320.394c-0.081-0.803-0.172-1.607-0.241-2.421c-0.405-4.824-0.534-9.507-0.417-13.927
	c0.135-5.174,0.612-9.992,1.253-14.286c0.642-4.295,1.442-8.057,2.186-11.18s1.418-5.609,1.832-7.35
	c0.415-1.739,0.57-2.735,0.306-2.868c-0.265-0.132-0.923,0.612-1.832,2.164c-0.909,1.552-2.074,3.916-3.262,7.007
	c-1.189,3.09-2.39,6.913-3.375,11.351c-0.984,4.437-1.74,9.484-2.041,14.939c-0.255,4.649-0.198,9.586,0.225,14.647
	c0.054,0.646,0.112,1.283,0.177,1.923H263.79z"/>
<path id="path2956" d="M248.341,278.34c0.12-0.002,0.312,0.157,0.566,0.489c0.29,0.378,0.657,0.98,1.061,1.79
	c0.403,0.81,0.839,1.829,1.253,3.065c0.415,1.235,0.806,2.69,1.109,4.327c0.278,1.5,0.476,3.153,0.579,4.934
	c0.103,1.779,0.105,3.688-0.012,5.68c-0.174,2.94-0.575,6.066-1.205,9.299c-0.629,3.232-1.484,6.568-2.458,9.943
	c-0.199,0.688-0.4,1.361-0.603,2.035c-0.08,0.265-0.162,0.521-0.242,0.785h-4.025c0.203-0.676,0.401-1.336,0.602-2.022
	c0.195-0.666,0.385-1.333,0.579-2.009c0.951-3.312,1.81-6.536,2.495-9.608s1.191-5.995,1.494-8.745
	c0.207-1.857,0.329-3.636,0.362-5.294c0.033-1.657-0.022-3.195-0.133-4.611c-0.236-3.078-0.75-5.543-1.121-7.251
	c-0.185-0.854-0.327-1.524-0.397-1.996s-0.064-0.74,0.048-0.798C248.306,278.345,248.324,278.34,248.341,278.34L248.341,278.34z"/>
<path id="path2958" d="M304.872,280.96c0.043-0.009,0.102,0.009,0.145,0.078c0.042,0.067,0.062,0.2,0.072,0.292
	c0.022,0.163,0.023,0.375,0,0.618c-0.046,0.48-0.182,1.127-0.375,1.897c-0.386,1.533-1.037,3.639-1.819,6.205
	c-1.545,5.062-3.643,12.016-5.271,20.217c-0.791,3.987-1.451,8.274-1.906,12.748h-4.665c0.495-4.888,1.328-9.544,2.339-13.812
	c1-4.227,2.176-8.077,3.379-11.482s2.43-6.362,3.553-8.797c1.142-2.477,2.161-4.396,2.946-5.741
	c0.398-0.685,0.725-1.204,0.982-1.574c0.131-0.191,0.242-0.327,0.332-0.432c0.059-0.097,0.128-0.11,0.174-0.139
	C304.802,281.008,304.828,280.97,304.872,280.96z"/>
<path id="path2968" d="M334.106,323.615c0.092-0.907,0.195-1.816,0.272-2.735c0.458-5.45,0.604-10.74,0.472-15.732
	c-0.152-5.845-0.691-11.288-1.416-16.14s-1.629-9.101-2.469-12.628c-0.84-3.529-1.602-6.338-2.069-8.304
	c-0.468-1.965-0.645-3.09-0.345-3.239c0.299-0.149,1.043,0.691,2.069,2.444s2.342,4.425,3.685,7.915
	c1.344,3.49,2.7,7.81,3.812,12.822s1.966,10.715,2.306,16.877c0.288,5.253,0.224,10.829-0.255,16.547
	c-0.061,0.73-0.126,1.449-0.199,2.173H334.106z"/>
<path id="path2970" d="M346.484,323.615c1.164-3.836,2.366-7.489,3.472-10.912c1.192-3.689,2.269-7.13,3.146-10.287
	c0.512-1.845,0.958-3.587,1.321-5.209c0.361-1.621,0.636-3.121,0.844-4.496c0.203-1.357,0.336-2.591,0.422-3.666
	c0.087-1.076,0.124-1.991,0.149-2.75c0.027-0.76,0.053-1.362,0.096-1.775c0.044-0.413,0.112-0.641,0.231-0.669
	c0.12-0.029,0.288,0.145,0.477,0.523s0.402,0.969,0.6,1.746s0.37,1.744,0.49,2.896c0.119,1.151,0.171,2.477,0.136,3.942
	c-0.034,1.482-0.148,3.115-0.368,4.86c-0.219,1.745-0.537,3.614-0.938,5.558c-0.687,3.323-1.604,6.916-2.683,10.694
	c-0.874,3.063-1.863,6.268-2.846,9.545H346.484z"/>
<path id="path2972" d="M410.476,323.615c-0.025-0.687-0.06-1.365-0.082-2.061c-0.002-0.068,0.003-0.141,0-0.209
	c-0.184-5.868-0.271-11.467-0.375-16.587c-0.104-5.12-0.236-9.761-0.426-13.653c-0.188-3.893-0.433-7.039-0.734-9.219
	s-0.652-3.388-1.014-3.388c-0.36,0-0.705,1.201-1.029,3.37c-0.323,2.169-0.631,5.302-0.915,9.184
	c-0.283,3.882-0.542,8.517-0.702,13.671s-0.218,10.835-0.032,16.813c0.002,0.07-0.003,0.14,0,0.21
	c0.02,0.63,0.056,1.244,0.081,1.868H410.476z"/>
<path id="path2974" d="M396.792,323.615c-0.11-2.938-0.345-5.756-0.706-8.336c-0.438-3.128-1.054-5.911-1.737-8.182
	s-1.425-4.032-2.04-5.198c-0.616-1.167-1.096-1.739-1.322-1.641c-0.228,0.099-0.183,0.862,0.021,2.144
	c0.205,1.281,0.554,3.083,0.897,5.33c0.343,2.247,0.673,4.937,0.907,7.953c0.191,2.45,0.312,5.126,0.393,7.93H396.792
	L396.792,323.615z"/>
<path id="path2976" d="M424.895,276.107c-0.135-0.003-0.354,0.178-0.64,0.553c-0.327,0.428-0.742,1.107-1.198,2.022
	c-0.455,0.914-0.947,2.066-1.416,3.463s-0.91,3.04-1.252,4.889c-0.314,1.695-0.538,3.562-0.654,5.572
	c-0.116,2.012-0.118,4.167,0.014,6.416c0.196,3.322,0.65,6.854,1.361,10.506c0.712,3.651,1.677,7.42,2.778,11.232
	c0.224,0.777,0.451,1.536,0.681,2.298c0.089,0.301,0.182,0.591,0.272,0.888h4.547c-0.229-0.764-0.453-1.509-0.681-2.284
	c-0.22-0.753-0.435-1.506-0.653-2.27c-1.075-3.742-2.045-7.383-2.818-10.854s-1.346-6.772-1.688-9.88
	c-0.232-2.098-0.371-4.107-0.408-5.98c-0.037-1.872,0.026-3.61,0.149-5.208c0.268-3.478,0.848-6.263,1.267-8.191
	c0.209-0.965,0.369-1.723,0.449-2.256c0.079-0.533,0.072-0.837-0.055-0.901C424.934,276.113,424.914,276.107,424.895,276.107
	L424.895,276.107z"/>
<path id="path2978" d="M373.125,276.438c0.05-0.011,0.115,0.009,0.163,0.087s0.07,0.228,0.081,0.331
	c0.024,0.184,0.027,0.423,0,0.697c-0.052,0.544-0.205,1.273-0.424,2.145c-0.436,1.731-1.172,4.11-2.056,7.009
	c-1.745,5.719-4.115,13.574-5.955,22.839c-0.893,4.504-1.64,9.347-2.153,14.4h-5.27c0.559-5.521,1.5-10.781,2.643-15.604
	c1.131-4.773,2.458-9.124,3.818-12.971c1.359-3.847,2.744-7.188,4.014-9.938c1.289-2.798,2.441-4.966,3.328-6.485
	c0.449-0.773,0.818-1.361,1.109-1.778c0.148-0.217,0.273-0.37,0.375-0.488c0.066-0.109,0.145-0.124,0.195-0.157
	C373.046,276.493,373.076,276.449,373.125,276.438z"/>
<path id="path2980" d="M382.7,285.666c0.276,0.101,0.181,1.302-0.178,3.391c-0.357,2.088-0.972,5.073-1.688,8.759
	c-0.717,3.686-1.532,8.062-2.151,12.949c-0.518,4.083-0.896,8.525-0.953,13.182h-4.316c0.119-4.944,0.646-9.615,1.376-13.851
	c0.867-5.036,2.005-9.471,3.117-13.124c1.113-3.653,2.2-6.516,3.05-8.453C381.808,286.58,382.424,285.566,382.7,285.666z"/>
<path id="path2982" d="M436.977,286.603c-0.322,0-0.625,0.968-0.92,2.683c-0.294,1.714-0.588,4.184-0.875,7.25
	c-0.287,3.067-0.56,6.725-0.773,10.807c-0.213,4.082-0.361,8.592-0.277,13.348c0.003,0.157,0.012,0.311,0.015,0.468
	c0.016,0.82,0.042,1.64,0.073,2.447h4.669c-0.024-0.845-0.055-1.694-0.073-2.557c-0.003-0.153-0.012-0.298-0.014-0.452
	c-0.084-4.637-0.08-9.086-0.103-13.146c-0.022-4.059-0.069-7.729-0.204-10.821c-0.136-3.093-0.35-5.597-0.613-7.328
	S437.299,286.603,436.977,286.603z"/>
<path id="path2988" d="M334.106,323.615c0.092-0.907,0.195-1.816,0.272-2.735c0.458-5.45,0.604-10.74,0.472-15.732
	c-0.152-5.845-0.691-11.288-1.416-16.14s-1.629-9.101-2.469-12.628c-0.84-3.529-1.602-6.338-2.069-8.304
	c-0.468-1.965-0.645-3.09-0.345-3.239c0.299-0.149,1.043,0.691,2.069,2.444s2.342,4.425,3.685,7.915
	c1.344,3.49,2.7,7.81,3.812,12.822s1.966,10.715,2.306,16.877c0.288,5.253,0.224,10.829-0.255,16.547
	c-0.061,0.73-0.126,1.449-0.199,2.173H334.106z"/>
<path id="path2990" d="M346.484,323.615c1.164-3.836,2.366-7.489,3.472-10.912c1.192-3.689,2.269-7.13,3.146-10.287
	c0.512-1.845,0.958-3.587,1.321-5.209c0.361-1.621,0.636-3.121,0.844-4.496c0.203-1.357,0.336-2.591,0.422-3.666
	c0.087-1.076,0.124-1.991,0.149-2.75c0.027-0.76,0.053-1.362,0.096-1.775c0.044-0.413,0.112-0.641,0.231-0.669
	c0.12-0.029,0.288,0.145,0.477,0.523s0.402,0.969,0.6,1.746s0.37,1.744,0.49,2.896c0.119,1.151,0.171,2.477,0.136,3.942
	c-0.034,1.482-0.148,3.115-0.368,4.86c-0.219,1.745-0.537,3.614-0.938,5.558c-0.687,3.323-1.604,6.916-2.683,10.694
	c-0.874,3.063-1.863,6.268-2.846,9.545H346.484z"/>
<path id="path2992" d="M410.476,323.615c-0.025-0.687-0.06-1.365-0.082-2.061c-0.002-0.068,0.003-0.141,0-0.209
	c-0.184-5.868-0.271-11.467-0.375-16.587c-0.104-5.12-0.236-9.761-0.426-13.653c-0.188-3.893-0.433-7.039-0.734-9.219
	s-0.652-3.388-1.014-3.388c-0.36,0-0.705,1.201-1.029,3.37c-0.323,2.169-0.631,5.302-0.915,9.184
	c-0.283,3.882-0.542,8.517-0.702,13.671s-0.218,10.835-0.032,16.813c0.002,0.07-0.003,0.14,0,0.21
	c0.02,0.63,0.056,1.244,0.081,1.868H410.476z"/>
<path id="path2994" d="M396.792,323.615c-0.11-2.938-0.345-5.756-0.706-8.336c-0.438-3.128-1.054-5.911-1.737-8.182
	s-1.425-4.032-2.04-5.198c-0.616-1.167-1.096-1.739-1.322-1.641c-0.228,0.099-0.183,0.862,0.021,2.144
	c0.205,1.281,0.554,3.083,0.897,5.33c0.343,2.247,0.673,4.937,0.907,7.953c0.191,2.45,0.312,5.126,0.393,7.93H396.792
	L396.792,323.615z"/>
<path id="path2996" d="M424.895,276.107c-0.135-0.003-0.354,0.178-0.64,0.553c-0.327,0.428-0.742,1.107-1.198,2.022
	c-0.455,0.914-0.947,2.066-1.416,3.463s-0.91,3.04-1.252,4.889c-0.314,1.695-0.538,3.562-0.654,5.572
	c-0.116,2.012-0.118,4.167,0.014,6.416c0.196,3.322,0.65,6.854,1.361,10.506c0.712,3.651,1.677,7.42,2.778,11.232
	c0.224,0.777,0.451,1.536,0.681,2.298c0.089,0.301,0.182,0.591,0.272,0.888h4.547c-0.229-0.764-0.453-1.509-0.681-2.284
	c-0.22-0.753-0.435-1.506-0.653-2.27c-1.075-3.742-2.045-7.383-2.818-10.854s-1.346-6.772-1.688-9.88
	c-0.232-2.098-0.371-4.107-0.408-5.98c-0.037-1.872,0.026-3.61,0.149-5.208c0.268-3.478,0.848-6.263,1.267-8.191
	c0.209-0.965,0.369-1.723,0.449-2.256c0.079-0.533,0.072-0.837-0.055-0.901C424.934,276.113,424.914,276.107,424.895,276.107
	L424.895,276.107z"/>
<path id="path2998" d="M373.125,276.438c0.05-0.011,0.115,0.009,0.163,0.087s0.07,0.228,0.081,0.331
	c0.024,0.184,0.027,0.423,0,0.697c-0.052,0.544-0.205,1.273-0.424,2.145c-0.436,1.731-1.172,4.11-2.056,7.009
	c-1.745,5.719-4.115,13.574-5.955,22.839c-0.893,4.504-1.64,9.347-2.153,14.4h-5.27c0.559-5.521,1.5-10.781,2.643-15.604
	c1.131-4.773,2.458-9.124,3.818-12.971c1.359-3.847,2.744-7.188,4.014-9.938c1.289-2.798,2.441-4.966,3.328-6.485
	c0.449-0.773,0.818-1.361,1.109-1.778c0.148-0.217,0.273-0.37,0.375-0.488c0.066-0.109,0.145-0.124,0.195-0.157
	C373.046,276.493,373.076,276.449,373.125,276.438z"/>
<path id="path3000" d="M382.7,285.666c0.276,0.101,0.181,1.302-0.178,3.391c-0.357,2.088-0.972,5.073-1.688,8.759
	c-0.717,3.686-1.532,8.062-2.151,12.949c-0.518,4.083-0.896,8.525-0.953,13.182h-4.316c0.119-4.944,0.646-9.615,1.376-13.851
	c0.867-5.036,2.005-9.471,3.117-13.124c1.113-3.653,2.2-6.516,3.05-8.453C381.808,286.58,382.424,285.566,382.7,285.666z"/>
<path id="path3002" d="M436.977,286.603c-0.322,0-0.625,0.968-0.92,2.683c-0.294,1.714-0.588,4.184-0.875,7.25
	c-0.287,3.067-0.56,6.725-0.773,10.807c-0.213,4.082-0.361,8.592-0.277,13.348c0.003,0.157,0.012,0.311,0.015,0.468
	c0.016,0.82,0.042,1.64,0.073,2.447h4.669c-0.024-0.845-0.055-1.694-0.073-2.557c-0.003-0.153-0.012-0.298-0.014-0.452
	c-0.084-4.637-0.08-9.086-0.103-13.146c-0.022-4.059-0.069-7.729-0.204-10.821c-0.136-3.093-0.35-5.597-0.613-7.328
	S437.299,286.603,436.977,286.603z"/>
<path id="path3006" d="M323.418,318.95c0.012-0.94,0.017-1.882,0-2.839c-0.012-0.672-0.042-1.353-0.069-2.032
	c-0.169-4.172-0.633-8.18-1.426-11.849c-0.794-3.669-1.911-7.001-3.273-9.907c-1.243-2.697-2.685-5.026-4.138-6.948
	c-1.454-1.921-2.925-3.432-4.223-4.616c-2.935-2.092-4.615-3.526-4.46-3.93c0.163-0.399,2.17,0.285,5.648,1.883
	c1.597,0.997,3.422,2.427,5.258,4.362c1.835,1.936,3.673,4.39,5.271,7.321c1.683,3.126,3.088,6.749,4.083,10.729
	c0.994,3.979,1.585,8.308,1.748,12.761c0.026,0.725,0.037,1.452,0.042,2.167c0.008,0.979-0.005,1.938-0.028,2.898H323.418
	L323.418,318.95z"/>
<path id="path3008" d="M336.609,318.95c0.114-1.062,0.242-2.124,0.338-3.199c0.568-6.373,0.749-12.56,0.586-18.398
	c-0.189-6.835-0.857-13.202-1.758-18.875c-0.899-5.674-2.021-10.644-3.064-14.77s-1.988-7.411-2.568-9.71
	c-0.581-2.299-0.8-3.613-0.429-3.788c0.372-0.175,1.295,0.808,2.568,2.858c1.274,2.05,2.908,5.174,4.575,9.256
	s3.352,9.134,4.732,14.996c1.38,5.862,2.44,12.531,2.861,19.737c0.357,6.143,0.278,12.664-0.315,19.352
	c-0.075,0.854-0.157,1.695-0.248,2.541H336.609z"/>
<path id="path3010" d="M350.712,318.95c1.195-3.939,2.43-7.691,3.565-11.207c1.225-3.788,2.33-7.321,3.23-10.563
	c0.524-1.895,0.983-3.684,1.355-5.35c0.372-1.665,0.654-3.206,0.867-4.617c0.209-1.394,0.345-2.66,0.434-3.765
	s0.127-2.045,0.154-2.824c0.026-0.78,0.053-1.398,0.098-1.823c0.045-0.424,0.114-0.658,0.237-0.688s0.296,0.149,0.489,0.538
	s0.413,0.995,0.615,1.793c0.203,0.798,0.381,1.791,0.504,2.974c0.122,1.183,0.177,2.543,0.14,4.049
	c-0.035,1.523-0.152,3.198-0.378,4.991c-0.225,1.792-0.552,3.711-0.965,5.707c-0.704,3.413-1.646,7.104-2.754,10.983
	c-0.898,3.146-1.913,6.436-2.923,9.802H350.712z"/>
<path id="path3012" d="M405.735,318.95c-0.026-0.705-0.061-1.402-0.084-2.115c-0.003-0.071,0.002-0.146,0-0.216
	c-0.189-6.026-0.279-11.775-0.386-17.034c-0.107-5.258-0.242-10.023-0.437-14.021c-0.194-3.997-0.445-7.229-0.755-9.467
	s-0.67-3.479-1.04-3.479c-0.371,0-0.725,1.233-1.058,3.461c-0.332,2.228-0.647,5.445-0.939,9.431
	c-0.292,3.986-0.557,8.747-0.722,14.04c-0.164,5.293-0.225,11.127-0.033,17.267c0.002,0.072-0.002,0.144,0,0.215
	c0.02,0.646,0.058,1.278,0.084,1.919H405.735z"/>
<path id="path3016" d="M431.237,270.161c-0.139-0.002-0.362,0.185-0.656,0.568c-0.336,0.438-0.764,1.138-1.23,2.077
	c-0.468,0.939-0.974,2.122-1.455,3.556c-0.48,1.434-0.934,3.122-1.286,5.021c-0.321,1.741-0.552,3.658-0.671,5.723
	c-0.119,2.065-0.122,4.278,0.014,6.59c0.202,3.411,0.668,7.037,1.398,10.788c0.73,3.75,1.722,7.62,2.853,11.535
	c0.23,0.798,0.464,1.579,0.699,2.36c0.092,0.309,0.187,0.606,0.279,0.911h4.67c-0.235-0.784-0.465-1.55-0.699-2.345
	c-0.226-0.774-0.445-1.548-0.671-2.331c-1.104-3.844-2.101-7.583-2.895-11.147s-1.381-6.954-1.733-10.146
	c-0.239-2.154-0.382-4.219-0.42-6.141c-0.037-1.923,0.027-3.708,0.154-5.35c0.274-3.571,0.87-6.431,1.3-8.412
	c0.215-0.991,0.381-1.769,0.462-2.316c0.081-0.547,0.074-0.859-0.056-0.926C431.277,270.168,431.257,270.161,431.237,270.161
	L431.237,270.161z"/>
<path id="path3018" d="M408.617,270.502c-0.051-0.011-0.119,0.01-0.168,0.09c-0.049,0.079-0.071,0.232-0.084,0.34
	c-0.024,0.188-0.026,0.434,0,0.716c0.055,0.558,0.211,1.308,0.437,2.202c0.447,1.778,1.202,4.222,2.11,7.197
	c1.793,5.873,4.227,13.94,6.116,23.455c0.917,4.625,1.684,9.599,2.211,14.789h5.412c-0.574-5.67-1.541-11.072-2.715-16.024
	c-1.16-4.903-2.524-9.37-3.921-13.321c-1.396-3.95-2.818-7.381-4.121-10.205c-1.324-2.873-2.507-5.1-3.418-6.66
	c-0.462-0.794-0.841-1.397-1.139-1.826c-0.153-0.222-0.281-0.38-0.386-0.501c-0.067-0.112-0.148-0.128-0.201-0.161
	C408.698,270.558,408.668,270.513,408.617,270.502z"/>
<path id="path3020" d="M377.21,279.979c0.284,0.103,0.186,1.337-0.182,3.481s-0.998,5.21-1.733,8.995
	c-0.736,3.785-1.574,8.28-2.21,13.298c-0.531,4.194-0.92,8.755-0.979,13.538h-4.433c0.122-5.078,0.663-9.876,1.412-14.225
	c0.892-5.172,2.06-9.727,3.202-13.479c1.144-3.751,2.26-6.689,3.132-8.681C376.293,280.916,376.926,279.876,377.21,279.979z"/>
<path id="path3022" d="M443.644,280.94c-0.331,0-0.641,0.993-0.943,2.754c-0.303,1.762-0.604,4.297-0.899,7.446
	s-0.575,6.905-0.794,11.098s-0.371,8.823-0.284,13.707c0.002,0.162,0.011,0.319,0.015,0.48c0.016,0.843,0.043,1.684,0.074,2.514
	h4.795c-0.024-0.868-0.056-1.74-0.074-2.626c-0.003-0.157-0.013-0.306-0.015-0.464c-0.087-4.762-0.082-9.331-0.105-13.5
	c-0.023-4.168-0.071-7.937-0.21-11.113c-0.139-3.176-0.358-5.748-0.629-7.526C444.303,281.933,443.975,280.94,443.644,280.94z"/>
<path id="path3024" d="M448.044,284.895c-0.294,0.098-0.271,1.163-0.07,3.003c0.201,1.841,0.583,4.46,0.979,7.695
	c0.396,3.235,0.796,7.096,1.118,11.4c0.283,3.794,0.497,7.945,0.657,12.298h4.474c-0.184-4.514-0.529-8.838-1.034-12.775
	c-0.564-4.403-1.313-8.334-2.125-11.58s-1.682-5.809-2.405-7.531C448.915,285.683,448.338,284.797,448.044,284.895z"/>
<path id="path3026" d="M332.17,320.394c0.01-0.811,0.014-1.621,0-2.446c-0.011-0.58-0.037-1.167-0.061-1.752
	c-0.146-3.596-0.545-7.052-1.229-10.214s-1.646-6.034-2.82-8.539c-1.071-2.325-2.314-4.333-3.567-5.989
	c-1.254-1.656-2.521-2.958-3.641-3.979c-2.528-1.803-3.977-3.039-3.844-3.388c0.14-0.344,1.871,0.246,4.869,1.623
	c1.376,0.859,2.949,2.093,4.531,3.761c1.583,1.668,3.166,3.784,4.544,6.312c1.45,2.693,2.662,5.817,3.52,9.247
	c0.857,3.431,1.366,7.161,1.506,11c0.024,0.624,0.032,1.251,0.036,1.867c0.008,0.844-0.004,1.671-0.023,2.498H332.17L332.17,320.394
	z"/>
<path id="path3028" d="M345.175,320.394c0.081-0.803,0.172-1.607,0.241-2.421c0.404-4.824,0.534-9.507,0.417-13.927
	c-0.135-5.174-0.611-9.992-1.253-14.286c-0.642-4.295-1.442-8.057-2.186-11.18c-0.744-3.123-1.418-5.609-1.832-7.35
	c-0.414-1.739-0.57-2.735-0.306-2.868c0.266-0.132,0.924,0.612,1.832,2.164s2.073,3.916,3.263,7.007
	c1.188,3.09,2.39,6.913,3.374,11.351c0.984,4.437,1.74,9.484,2.041,14.939c0.255,4.649,0.198,9.586-0.225,14.647
	c-0.055,0.646-0.112,1.283-0.178,1.923H345.175z"/>
<path id="path3032" d="M403.448,320.394c-0.022-0.607-0.053-1.208-0.073-1.823c-0.001-0.062,0.002-0.125,0-0.186
	c-0.162-5.194-0.24-10.15-0.332-14.683c-0.092-4.533-0.209-8.641-0.376-12.086c-0.167-3.446-0.384-6.232-0.65-8.161
	c-0.268-1.929-0.578-2.998-0.897-2.998s-0.624,1.062-0.911,2.982c-0.286,1.92-0.559,4.694-0.81,8.13
	c-0.252,3.436-0.48,7.539-0.622,12.102s-0.193,9.592-0.029,14.884c0.002,0.062-0.001,0.123,0,0.186
	c0.018,0.558,0.05,1.102,0.072,1.653H403.448z"/>
<path id="path3036" d="M425.108,278.34c-0.12-0.002-0.313,0.157-0.567,0.489c-0.289,0.378-0.657,0.98-1.06,1.79
	c-0.403,0.81-0.839,1.829-1.254,3.065c-0.415,1.235-0.807,2.69-1.109,4.327c-0.277,1.5-0.476,3.153-0.578,4.934
	c-0.103,1.779-0.105,3.688,0.012,5.68c0.174,2.94,0.576,6.066,1.206,9.299c0.629,3.232,1.484,6.568,2.458,9.943
	c0.198,0.688,0.4,1.361,0.603,2.035c0.079,0.265,0.161,0.521,0.241,0.785h4.025c-0.202-0.676-0.4-1.336-0.603-2.022
	c-0.194-0.666-0.385-1.333-0.578-2.009c-0.952-3.312-1.811-6.536-2.495-9.608s-1.191-5.995-1.495-8.745
	c-0.206-1.857-0.328-3.636-0.361-5.294c-0.032-1.657,0.023-3.195,0.133-4.611c0.237-3.078,0.751-5.543,1.121-7.251
	c0.185-0.854,0.327-1.524,0.397-1.996s0.064-0.74-0.048-0.798C425.142,278.345,425.124,278.34,425.108,278.34L425.108,278.34z"/>
<path id="path3038" d="M405.61,278.633c-0.044-0.01-0.103,0.008-0.145,0.077c-0.042,0.068-0.062,0.201-0.072,0.293
	c-0.021,0.163-0.023,0.374,0,0.617c0.047,0.481,0.182,1.127,0.375,1.898c0.387,1.532,1.037,3.639,1.82,6.204
	c1.545,5.062,3.643,12.016,5.271,20.217c0.79,3.987,1.451,8.274,1.906,12.748h4.664c-0.494-4.888-1.327-9.544-2.339-13.812
	c-1.001-4.227-2.176-8.077-3.38-11.482c-1.203-3.405-2.43-6.362-3.553-8.797c-1.142-2.477-2.161-4.396-2.946-5.741
	c-0.397-0.685-0.725-1.204-0.981-1.574c-0.132-0.19-0.242-0.327-0.333-0.432c-0.058-0.097-0.127-0.11-0.173-0.139
	C405.68,278.681,405.654,278.642,405.61,278.633z"/>
<path id="path3042" d="M435.802,287.63c-0.285,0-0.553,0.856-0.813,2.375c-0.261,1.518-0.521,3.703-0.775,6.418
	s-0.496,5.952-0.685,9.565s-0.319,7.605-0.245,11.815c0.002,0.141,0.01,0.274,0.013,0.414c0.014,0.727,0.037,1.451,0.064,2.167
	h4.133c-0.021-0.748-0.048-1.5-0.063-2.264c-0.003-0.136-0.011-0.264-0.014-0.399c-0.074-4.104-0.07-8.043-0.091-11.637
	c-0.02-3.594-0.061-6.842-0.181-9.579c-0.119-2.738-0.309-4.955-0.542-6.487C436.369,288.485,436.087,287.63,435.802,287.63z"/>
<path id="path3046" d="M381.495,320.394c0.082-0.803,0.173-1.607,0.241-2.421c0.406-4.824,0.534-9.507,0.418-13.927
	c-0.135-5.174-0.611-9.992-1.253-14.286c-0.642-4.295-1.441-8.057-2.186-11.18s-1.418-5.609-1.832-7.35
	c-0.414-1.739-0.57-2.735-0.306-2.868c0.266-0.132,0.924,0.612,1.832,2.164s2.073,3.916,3.263,7.007
	c1.188,3.09,2.39,6.913,3.374,11.351c0.984,4.437,1.74,9.484,2.041,14.939c0.255,4.649,0.198,9.586-0.226,14.647
	c-0.054,0.646-0.111,1.283-0.177,1.923H381.495z"/>
<path id="path3048" d="M396.946,278.34c-0.119-0.002-0.312,0.157-0.566,0.489c-0.289,0.378-0.657,0.98-1.061,1.79
	s-0.839,1.829-1.254,3.065c-0.414,1.235-0.805,2.69-1.108,4.327c-0.277,1.5-0.476,3.153-0.578,4.934
	c-0.104,1.779-0.104,3.688,0.012,5.68c0.175,2.94,0.576,6.066,1.205,9.299c0.63,3.232,1.484,6.568,2.459,9.943
	c0.198,0.688,0.399,1.361,0.603,2.035c0.08,0.265,0.161,0.521,0.241,0.785h4.025c-0.202-0.676-0.4-1.336-0.603-2.022
	c-0.194-0.666-0.385-1.333-0.578-2.009c-0.952-3.312-1.811-6.536-2.495-9.608s-1.191-5.995-1.494-8.745
	c-0.207-1.857-0.329-3.636-0.362-5.294c-0.033-1.657,0.023-3.195,0.133-4.611c0.237-3.078,0.751-5.543,1.121-7.251
	c0.185-0.854,0.327-1.524,0.397-1.996s0.064-0.74-0.048-0.798C396.98,278.345,396.963,278.34,396.946,278.34L396.946,278.34z"/>
<path id="path3050" d="M435.579,280.96c0.044-0.009,0.103,0.009,0.145,0.078c0.043,0.067,0.062,0.2,0.072,0.292
	c0.022,0.163,0.023,0.375,0,0.618c-0.046,0.48-0.182,1.127-0.375,1.897c-0.386,1.533-1.037,3.639-1.82,6.205
	c-1.545,5.062-3.643,12.016-5.271,20.217c-0.791,3.987-1.452,8.274-1.907,12.748h-4.664c0.495-4.888,1.328-9.544,2.339-13.812
	c1.001-4.227,2.177-8.077,3.38-11.482s2.43-6.362,3.553-8.797c1.143-2.477,2.161-4.396,2.946-5.741
	c0.398-0.685,0.725-1.204,0.982-1.574c0.131-0.191,0.241-0.327,0.332-0.432c0.059-0.097,0.128-0.11,0.173-0.139
	C435.51,281.008,435.536,280.97,435.579,280.96z"/>
<path id="path3056" d="M388.341,289.177c-0.253,0.083-0.233,1.002-0.06,2.588c0.173,1.587,0.502,3.845,0.843,6.634
	c0.342,2.789,0.688,6.115,0.965,9.827c0.244,3.27,0.429,6.849,0.566,10.6h3.856c-0.158-3.89-0.457-7.618-0.892-11.012
	c-0.486-3.797-1.132-7.184-1.832-9.982c-0.699-2.798-1.449-5.007-2.073-6.491C389.092,289.855,388.595,289.092,388.341,289.177z"/>
<g id="g3234">
	<path id="path3196" d="M209.684,314.37c1.821,0.387,4.796,3.526,4.803-0.458c10.803-33.49,15.415-69.473,11.76-104.772
		c-1.559-23.486,1.634-48.308,14.538-67.989c5.01-8.035,10.987-15.311,17.104-22.393c-14.166,15.112-26.977,33.025-31.114,54.392
		c-3.957,17.667-2.632,35.934-1.852,53.882C225.112,256.788,219.596,286.609,209.684,314.37z"/>
	<path id="path3202" d="M260.138,147.378c-13.732,12.382-26.513,27.466-31.987,46.607c-1.819,5.744-3.033,11.633-3.88,17.597
		c0.473,0.278,0.95,0.548,1.434,0.802c2.141-16.851,7.377-33.279,17.499-46.259C248.291,159.283,254.161,153.234,260.138,147.378
		L260.138,147.378z"/>
	<path id="rect3207" d="M253.722,122.548L253.722,122.548c1.404,1.105,1.704,3.219,0.669,4.72l-12.535,18.179
		c-1.035,1.501-3.013,1.821-4.417,0.715l0,0c-1.405-1.105-1.705-3.219-0.67-4.72l12.535-18.179
		C250.34,121.763,252.317,121.442,253.722,122.548z"/>
	<path id="rect3209" d="M255.294,151.53L255.294,151.53c1.058,1.061,1.111,2.838,0.118,3.969L243.384,169.2
		c-0.993,1.131-2.656,1.188-3.715,0.127l0,0c-1.059-1.062-1.111-2.838-0.118-3.97l12.028-13.701
		C252.573,150.525,254.236,150.469,255.294,151.53z"/>
	<path id="path3216" d="M191.38,234.263c0,0.008,0.006,0.02,0.006,0.028c-5.024,2.774-9.515,5.946-10.189,7.735
		c1.703,0.808,6.945,0.226,12.373-1.017c4.408,9.296,14.321,23.61,18.946,24.867c2.033,0.439,4.072,0.887,5.996,1.741l0.134,0.041
		l0.103,0.021c0.35-0.791-0.678-6.289-0.37-7.511C217.457,254.18,196.486,234.28,191.38,234.263L191.38,234.263z"/>
	<path id="path3223" d="M230.298,246.182c1.174-0.794,2.471-1.337,3.761-1.871c3.826-1.822,11.284-19.621,10.549-23.331
		c-3.354,0.629-15.035,16.241-15.006,20.289c0.331,0.766,0.235,4.504,0.549,4.98l0.066-0.023L230.298,246.182L230.298,246.182
		L230.298,246.182z"/>
	<path id="path3227" d="M214.333,259.062c-0.797,0.209-1.549,0.501-2.247,0.857c3.647,4.468,7.093,9.231,9.885,14.347
		c0.984-0.421,1.868-0.961,2.628-1.615C221.694,267.74,218.173,263.215,214.333,259.062z"/>
	<path id="path3232" d="M232.666,239.506c0.651,0.171,1.265,0.409,1.833,0.701c-2.977,3.646-5.79,7.535-8.069,11.71
		c-0.803-0.343-1.525-0.784-2.145-1.318C226.657,246.591,229.532,242.897,232.666,239.506z"/>
</g>
<g id="g3354">
</g>
<g id="g3403">
	<path id="path3247" d="M208.344,159.61c-3.673,10.195-6.07,20.497-5.512,31.141c0.335,16.613,6.016,32.118,11.078,47.514
		c7.307,25.868,9.012,53.55,5.907,80.795c1.883-0.225,5.557,1.599,4.61-1.876c2.61-32.512-1.454-65.288-13.497-94.916
		c-7.029-19.632-9.854-41.803-2.379-62.612C208.386,159.564,208.504,159.716,208.344,159.61z"/>
	<path id="path3249" d="M229.478,158c-10.543,15.024-19.504,32.11-20.308,50.476c-0.415,5.566-0.2,11.071,0.395,16.529
		c0.531,0.097,1.065,0.185,1.603,0.256c-1.926-15.342-0.708-31.271,6.141-45.702C220.675,172.027,225,164.947,229.478,158z"/>
	<path id="path3338" d="M222.667,180.873c-0.39,1.198-1.065,2.39-2.456,4.107c-2.887,1.876-7.58,3.632-7.162,7.401
		c-0.031,0.053-0.045,0.087-0.064,0.126c-0.584,0.755-1.151,1.527-1.689,2.319c0.175,0.236,0.396,0.448,0.649,0.618
		c0.474-0.759,0.979-1.503,1.494-2.238c4.293-0.236,5.529-4.706,7.294-7.646c1.596-1.554,2.707-2.318,3.828-2.768
		c-0.877,0.256-1.985,0.776-3.157,1.455C222.003,182.991,222.45,181.808,222.667,180.873z"/>
	<path id="path3346" d="M223.949,215.491c0.011,0.117,0.016,0.224,0.026,0.337c-4.646,4.873-5.678,14.752-6.092,23.383
		c-0.395,0.686,0.002,2.82,0.432,4.068c-0.347,1.028-0.682,2.065-0.986,3.119c0.347,0.334,0.75,0.609,1.183,0.801
		c0.301-1.199,0.636-2.378,0.986-3.558c0.646-0.272,0.94-1.14,1.835-2.459c2.649-8.235,5.368-18.251,2.729-25.367
		c0.027-0.057,0.051-0.107,0.08-0.165c-0.036,0.036-0.068,0.073-0.104,0.109C224.006,215.672,223.983,215.578,223.949,215.491
		L223.949,215.491z M223.982,215.979c0.329,3.916-0.18,6.067-2.326,13.057C222.072,221.587,222.326,219.407,223.982,215.979z"/>
	<path id="path3364" d="M213.469,169.532c-0.26,1.321-0.819,2.673-2.062,4.675c-2.79,2.366-7.489,4.839-6.583,8.78
		c-0.027,0.06-0.037,0.099-0.052,0.143c-0.518,0.876-1.016,1.769-1.481,2.679c0.212,0.228,0.47,0.423,0.757,0.571
		c0.402-0.867,0.839-1.722,1.287-2.568c4.467-0.809,5.207-5.71,6.69-9.057c1.479-1.855,2.548-2.811,3.667-3.433
		c-0.886,0.386-1.983,1.082-3.126,1.954C213.036,171.865,213.358,170.552,213.469,169.532z"/>
	<path id="path3366" d="M196.765,160.168c0.863,0.985,1.579,2.251,2.399,4.487c0.213,3.8-0.587,9.331,2.954,10.799
		c0.03,0.058,0.054,0.089,0.079,0.127c0.375,0.957,0.772,1.904,1.204,2.833c0.296-0.055,0.594-0.168,0.872-0.335
		c-0.434-0.85-0.838-1.722-1.229-2.6c1.943-4.374-1.389-7.834-3.103-11.053c-0.573-2.358-0.693-3.842-0.528-5.179
		c-0.212,0.998-0.308,2.356-0.296,3.857C198.305,161.886,197.483,160.851,196.765,160.168L196.765,160.168z"/>
	<path id="path3368" d="M195.269,190.539c1.201,0.867,2.303,2.088,3.755,4.366c1.145,4.194,1.569,10.6,5.881,11.279
		c0.048,0.056,0.082,0.084,0.12,0.121c0.646,0.968,1.318,1.92,2.022,2.842c0.318-0.143,0.624-0.35,0.896-0.612
		c-0.688-0.832-1.349-1.699-1.997-2.574c1.13-5.423-3.424-8.386-6.109-11.52c-1.204-2.482-1.691-4.11-1.827-5.65
		c0,1.173,0.217,2.72,0.589,4.396C197.402,192.041,196.235,191.107,195.269,190.539L195.269,190.539z"/>
	<path id="path3370" d="M223.859,192.985c-0.626,1.069-1.517,2.043-3.189,3.317c-3.101,0.966-7.859,1.249-8.297,5.125
		c-0.041,0.042-0.062,0.073-0.088,0.106c-0.71,0.568-1.408,1.159-2.083,1.778c0.111,0.289,0.271,0.569,0.47,0.817
		c0.608-0.607,1.242-1.189,1.883-1.76c4.051,1.103,6.184-2.955,8.473-5.326c1.828-1.047,3.031-1.461,4.174-1.558
		c-0.874-0.019-2.021,0.153-3.261,0.462C222.776,194.884,223.452,193.847,223.859,192.985L223.859,192.985z"/>
	<path id="path3372" d="M211.321,161.174c-1.706,1.572-3.391,3.188-5.049,4.831c0.062,0.039,0.133,0.073,0.198,0.109
		C208.069,164.448,209.69,162.806,211.321,161.174z"/>
	<g id="g3374">
		<path id="path3378" d="M229.478,158c-10.543,15.024-19.504,32.11-20.308,50.476c-0.415,5.566-0.2,11.071,0.395,16.529
			c0.531,0.097,1.065,0.185,1.603,0.256c-1.926-15.342-0.708-31.271,6.141-45.702C220.675,172.027,225,164.947,229.478,158z"/>
	</g>
	<path id="path3401" d="M197.314,214.542c0.032,0.104,0.066,0.196,0.098,0.297c6.325,1.853,10.972,9.688,14.556,16.769
		c0.638,0.387,1.037,2.381,1.079,3.643c0.717,0.7,1.426,1.412,2.11,2.152c-0.215,0.45-0.506,0.879-0.858,1.251
		c-0.736-0.866-1.496-1.697-2.272-2.523c-0.73,0.084-1.336-0.504-2.695-1.183c-5.618-5.661-11.959-12.79-12.009-20.078
		c-0.047-0.034-0.089-0.065-0.139-0.1c0.047,0.013,0.093,0.028,0.141,0.041C197.326,214.723,197.312,214.632,197.314,214.542
		L197.314,214.542z M197.462,214.97c1.123,3.464,2.411,5.032,7.079,9.887C201.39,218.774,200.34,217.058,197.462,214.97z"/>
</g>
<rect x="171.739" y="40.481" fill="none" width="283.463" height="283.465"/>
</svg>
