<?xml version="1.0" encoding="utf-8"?>
<!-- Generator: Adobe Illustrator 15.0.2, SVG Export Plug-In . SVG Version: 6.00 Build 0)  -->
<!DOCTYPE svg PUBLIC "-//W3C//DTD SVG 1.1//EN" "http://www.w3.org/Graphics/SVG/1.1/DTD/svg11.dtd">
<svg version="1.1" id="Layer_1" xmlns="http://www.w3.org/2000/svg" xmlns:xlink="http://www.w3.org/1999/xlink" x="0px" y="0px"
	 width="110.42px" height="70px" viewBox="0 0 110.42 70" enable-background="new 0 0 110.42 70" xml:space="preserve">
<g>
	<g>
		<line fill="none" stroke="#000000" stroke-miterlimit="10" x1="5" y1="65" x2="6.675" y2="63.907"/>
		
			<line fill="none" stroke="#000000" stroke-miterlimit="10" stroke-dasharray="3.9199,3.9199" x1="9.958" y1="61.766" x2="93.683" y2="7.163"/>
		<line fill="none" stroke="#000000" stroke-miterlimit="10" x1="95.325" y1="6.093" x2="97" y2="5"/>
	</g>
</g>
<rect x="0.5" y="60.5" fill="#FFFFFF" stroke="#000000" stroke-miterlimit="10" width="9" height="9"/>
<rect x="92.5" y="0.5" fill="#FFFFFF" stroke="#000000" stroke-miterlimit="10" width="9" height="9"/>
<g>
	<path fill-rule="evenodd" clip-rule="evenodd" d="M103.197,26.874c-0.466-1.227-0.914-2.473-1.362-3.719
		c-0.395-1.1-0.79-2.2-1.198-3.287c-0.521,0.482-1.044,1.003-1.554,1.511c-0.625,0.623-1.271,1.267-1.919,1.846l-0.823,0.736
		l-0.01-1.104c-0.021-2.229-0.01-4.554,0.001-6.88c0.017-3.732,0.036-7.591-0.086-10.959l-0.051-1.4l0.926,1.052
		c4.201,4.773,8.193,9.505,11.546,13.685l0.682,0.85l-1.089-0.038c-0.966-0.033-1.881-0.126-2.767-0.216
		c-0.639-0.064-1.293-0.131-1.966-0.174c0.892,2.517,1.875,4.87,2.733,6.868l0.162,0.377l-0.338,0.232
		c-0.646,0.444-1.448,0.69-2.284,0.924l-0.44,0.123L103.197,26.874z"/>
	<path fill="#FFFFFF" d="M96.745,5c3.905,4.437,7.945,9.196,11.531,13.667c-1.899-0.065-3.567-0.362-5.466-0.427
		c0.901,2.629,1.929,5.132,2.99,7.602c-0.591,0.406-1.357,0.637-2.135,0.854c-0.964-2.538-1.849-5.156-2.819-7.688
		c-1.345,1.168-2.666,2.638-4.015,3.844C96.775,16.984,96.942,10.443,96.745,5 M95.645,2.236l0.101,2.8
		c0.122,3.358,0.104,7.212,0.086,10.939c-0.011,2.288-0.022,4.653-0.001,6.886l0.021,2.207l1.646-1.471
		c0.658-0.588,1.309-1.237,1.939-1.865c0.328-0.327,0.662-0.659,0.996-0.982c0.317,0.859,0.628,1.726,0.933,2.573
		c0.44,1.227,0.896,2.495,1.365,3.728l0.324,0.854l0.88-0.246c0.877-0.246,1.724-0.506,2.432-0.993l0.676-0.465l-0.324-0.754
		c-0.772-1.798-1.646-3.883-2.46-6.114c0.392,0.034,0.783,0.074,1.184,0.115c0.893,0.091,1.817,0.184,2.799,0.218l2.178,0.075
		l-1.363-1.7c-3.357-4.186-7.355-8.924-11.561-13.702L95.645,2.236L95.645,2.236z"/>
</g>
</svg>
