<?xml version="1.0" encoding="utf-8"?>
<!-- Generator: Adobe Illustrator 15.0.2, SVG Export Plug-In . SVG Version: 6.00 Build 0)  -->
<!DOCTYPE svg PUBLIC "-//W3C//DTD SVG 1.1//EN" "http://www.w3.org/Graphics/SVG/1.1/DTD/svg11.dtd">
<svg version="1.1" id="Layer_1" xmlns="http://www.w3.org/2000/svg" xmlns:xlink="http://www.w3.org/1999/xlink" x="0px" y="0px"
	 width="150px" height="150.012px" viewBox="0 0 150 150.012" enable-background="new 0 0 150 150.012" xml:space="preserve">
<path fill-rule="evenodd" clip-rule="evenodd" d="M47.975,99.412c2.817-3.584,5.442-7.361,8.74-10.465
	c-0.189-0.021,0.068-1.105,0.114-0.459c-0.017-0.244-0.247-0.305-0.345-0.576c-0.684-1.883-0.5-5.592-1.38-7.59
	c1.237,2.023,2.331,4.186,2.875,6.9c0.629,0.033,1.125-1.004,1.609-1.496c0.445-13.89,0.106-27.707-2.415-38.984
	c-2.772-0.837-3.409-4.61-4.37-7.245c-0.896-2.454-1.878-4.601-2.185-6.669c-1.104-1.882-1.579-4.273-2.415-6.67
	c-1.208-3.46-2.735-7.103-3.91-10.465c-1.05-3.003-2.73-8.852,1.955-9.2c3.388-0.252,4.766,3.08,5.98,5.635
	c1.809,3.806,3.261,7.878,4.715,11.959c0.333,0.938,1.089,1.731-0.116,2.3c0.251,0.149,0.562-0.6,0.805-0.46
	c0.421,0.241,1.067,3.582,1.265,4.255c1.198,4.066,4.153,12.271,0.345,15.64c2.244,11.134,3.341,23.416,2.875,37.259
	c1.851-1.6,3.927-3.969,5.98-5.75c0.586-5.51,0.953-11.604,0.23-17.249c1.499,4.174,2.07,9.277,1.955,15.065
	c2.799-2.081,5.908-4.872,9.314-6.785c0.404-0.021,0.379,0.388,0.689,0.46c-0.104-0.203-0.256-0.356-0.459-0.46
	c2.012-1.477,4.619-2.357,6.785-3.68c-5.387,4.312-10.975,9.418-16.101,14.375c0.051,7.525-0.177,14.771-0.919,21.504
	c0.819-0.494,1.249-1.443,1.84-2.186c3.865-4.855,8.188-9.916,12.535-14.488c0.729-0.77,1.278-1.283,1.955-1.957
	c-1.178,0.982,0.239-0.422,0.69-0.918c0.521-0.574,1.103-1.289,1.379-1.611c-0.031-0.875,0.384-1.303,0.461-2.07
	c0.202-0.213,0.355,0.029,0.46,0.23c-0.724-2.168,3.091-6.281,4.484-7.705c4.837-4.941,9.814-9.654,14.95-14.375
	c1.246-1.145,2.57-2.831,4.715-2.76c2.082,0.069,4.182,2.092,4.141,4.14c-0.055,2.628-3.764,5.26-5.406,6.785
	c-4.592,4.268-7.811,7.582-12.189,11.959c-2.121,2.121-4.066,4.178-7.129,4.945c-0.9,0.225-1.727,0.023-2.646,0.461
	c-0.794,0.375-1.995,2.018-2.876,2.988c-5.638,6.234-10.496,12.562-15.524,19.436c-0.868,1.188-2.357,2.65-2.53,3.68
	c-1.381,8.25-3.264,16.926-5.405,24.15c3.633-6.248,7.35-13.65,12.075-19.32c0.671-0.805,1.47-1.982,2.069-2.414
	c0.248-0.18,0.241-0.283,0.576,0c-0.283-0.312-0.163-0.332,0-0.576c0.595-0.896,2.031-1.848,3.104-2.76
	c1.077-0.916,2.261-1.768,3.22-2.529c-7.513,10.082-15.517,20.668-18.285,35.879c2.424-4.666,4.27-9.912,8.05-13.225
	c-1.824,4.424-3.876,9.617-4.485,15.641c2.175-4.725,4.509-9.291,7.705-12.996c-0.695-1.719-1.497-3.332-2.416-4.83
	c1.247,0.633,2.467,2.287,3.68,3.336c2.855-2.818,6.004-5.344,9.43-7.59c0.736-0.133,0.834,0.982,1.381,1.15
	c-0.1-0.031-1-1.182-0.92-1.381c0.137-0.344,2.207-1.184,2.645-1.381c1.102-0.494,1.962-0.895,2.645-1.033
	c0.072,0.16-1.504,1.014-0.689,0.344c-0.156,0.129-0.433,0.408-0.575,0.576c-0.015,0.018-0.683,0.904-0.115,0.229
	c-4.181,3.605-8.013,8.07-10.579,13.801c1.703,2.857,3.335,5.787,4.484,9.199c0.426-4.289,1.916-7.514,4.14-10.004
	c-0.775,2.906-1.661,7.271-1.149,11.73c1.33-1.506,2.734-2.939,4.024-4.486c0.036-2.795-0.538-4.98-1.034-7.244
	c1.268,1.453,2.395,3.049,2.875,5.289c1.645-1,2.965-2.324,4.484-3.449c-0.408-2.121-0.836-4.225-1.725-5.865
	c1.506,0.871,2.566,3.184,3.564,4.945c0.505-0.186,1.047-0.334,1.609-0.461c-0.387,0.494-1.303,0.461-1.264,1.381
	c-0.203-0.104-0.357-0.258-0.461-0.461c1.529,1.771,2.809,5.568,2.646,9.775c2.515-3.082,5.972-6.217,11.04-7.131
	c-3.836,2.377-6.256,6.166-7.359,11.271c3.902-0.697,5.594-4.602,7.129-8.051c0.258,2.037,0.158,4.463-0.459,5.98
	c1.66-1.406,3.98-3.148,6.439-4.141c-0.324,1.824-1.309,3.982-1.609,6.211c1.676-1.811,3.734-4.238,6.324-5.521
	c-1.609,2.264-4.08,4.662-4.141,8.855c-30.818,0-61.64,0-92.459,0c0.872-7.666-1.788-12.771-4.83-16.904
	c2.976,1.355,5.266,4.393,6.785,7.59c0.322-2.355,0.776-4.752,1.15-6.9c0.126-0.727,0.391-1.725,0.345-2.414
	c-0.07-1.066-1-2.619-1.495-3.91c-0.797-2.078-1.369-3.693-1.725-6.209c1.558,2.045,2.957,4.248,4.37,6.439
	c1.227-5.559,3.444-10.125,5.75-14.605c1.427,1.064,2.559,2.424,3.795,3.68c-1.689,3.371-3.093,7.928-4.37,12.305
	c-0.382,1.311-1.279,3.168-1.15,4.371c0.102,0.949,1.202,2.27,1.61,3.219c0.51,1.188,0.909,2.164,1.38,3.336
	c-0.218-8.525,1.054-15.885,3.335-22.195c0.566-0.131,1.427,1.398,2.185,1.84c-0.467,1.027-0.285,2.705-1.15,3.334
	c0.203-0.104,0.356-0.256,0.46-0.459c-1,6.955-1.1,17.289,0.575,23.92c0.549-4.205,0.662-8.844,1.61-12.65
	c1.077,3.369,1.692,7.201,2.875,10.465c0.4-7.338-0.232-14.641-1.15-21.045c0.335-0.146,0.667,0.328,0.919,0.576
	c2.074,2.029,4.469,4.574,6.556,6.67c-0.53,2.361-1.058,4.564-0.46,7.244c0.495-0.773,0.616-1.74,0.92-2.875
	c0.24-0.895,0.472-2.572,0.805-2.875c0.32-0.291,0.912,0.814,1.035,0.691c0.031-0.033-0.885-0.871-0.92-1.266
	c-0.051-0.578,0.681-2.035,0.92-2.875c0.835-2.928,1.323-6.381,2.07-9.199c-0.796,1.969-2.483,3.709-3.221,5.863
	c-0.529,1.547-0.387,3.258-1.035,4.945c-0.339,0.152-0.693-0.354-0.92-0.574c-2.133-2.088-4.535-4.738-6.785-6.785
	c0.048-1.408-1.142-3.471,0.23-4.141c-0.285-0.221-0.53,0.691-0.805,0.461c-0.342-0.287-0.272-1.861-0.46-2.875
	c-0.208-1.125-0.562-1.996-0.689-2.531c-0.545,1.793-0.989,3.689-1.38,5.637c-0.508,0.109-1.466-1.285-2.07-1.842
	c0.594-2.205,1.467-4.129,2.186-6.209c-0.984,1.316-2.112,3.484-2.875,5.404c-1.371-1.082-2.904-2.615-3.795-3.795
	c1.607-3.299,3.6-6.213,5.52-9.199c-1.071-4.205-2.462-9.027-3.795-13.801c-0.417-1.492-1.504-3.49-0.345-4.141
	c-0.91,1.707-1.131-1.727-1.61-2.645C42.797,87.571,45.493,93.692,47.975,99.412z M86.385,124.483c0.378-0.26,1.244-1.176,1.15-1.15
	C87.157,123.594,86.291,124.508,86.385,124.483z M57.06,45.823c-0.489-0.595-1.637-1.72-1.84-1.84
	C55.709,44.578,56.857,45.703,57.06,45.823z M58.9,47.663c-0.185-0.311-1.021-1.078-0.919-0.92
	C58.165,47.053,59.001,47.821,58.9,47.663z M62.35,86.877c-0.464,9.811-1.072,20.088-2.415,28.637
	c1.244-2.801,3.631-5.002,4.945-8.281c0.654-1.631,0.789-3.941,1.15-6.094c1.053-6.273,1.393-13.621,2.07-19.781
	c-0.007-0.07-0.018-0.137-0.115-0.115C66.118,83.133,64.339,85.112,62.35,86.877z M57.29,110.797
	c0.192-0.158,0.763-0.531,0.575-0.689c-0.078,0.127-0.383,0.596-0.46,0.346c0.697-5.125,1.108-11.789,0-16.791
	c-2.152,2.404-4.091,4.947-5.98,7.82c-0.581,0.883-1.767,2.006-1.84,2.875c-0.053,0.635,0.496,2.238,0.69,2.99
	c0.284,1.1,0.861,2.539,1.265,3.91c0.361,1.225,1.237,4.008,0.919,4.484c0.064-0.164,0.18-0.281,0.345-0.346
	c0.74,2.826,1.13,6.002,1.84,8.855C55.63,119.871,56.73,115.604,57.29,110.797z M78.335,143.342
	c0.524-0.777,0.979-1.627,1.841-2.068c0.269,1.57,0.86,2.818,1.84,3.678c-0.127-3.361-0.387-6.59-1.381-9.084
	C79.608,138.024,78.66,140.869,78.335,143.342z"/>
<path fill-rule="evenodd" clip-rule="evenodd" fill="#FFFFFF" d="M-116.5-233.494c1.761,1.041,11.743,10.824,16,16
	C-102.261-218.534-112.243-228.318-116.5-233.494z"/>
<path fill-rule="evenodd" clip-rule="evenodd" fill="#FFFFFF" d="M-92.5-209.494c-0.882-1.373,6.394,5.305,8,8
	C-83.618-200.122-90.894-206.799-92.5-209.494z"/>
</svg>
