<?xml version="1.0" encoding="utf-8"?>
<!-- Generator: Adobe Illustrator 15.0.2, SVG Export Plug-In . SVG Version: 6.00 Build 0)  -->
<!DOCTYPE svg PUBLIC "-//W3C//DTD SVG 1.1//EN" "http://www.w3.org/Graphics/SVG/1.1/DTD/svg11.dtd">
<svg version="1.1" id="Layer_1" xmlns="http://www.w3.org/2000/svg" xmlns:xlink="http://www.w3.org/1999/xlink" x="0px" y="0px"
	 width="37px" height="37px" viewBox="0 0 37 37" enable-background="new 0 0 37 37" xml:space="preserve">
<g>
	<g>
		<path fill="#FFFFFF" d="M36,6c0-2.761-2.239-5-5-5H6C3.239,1,1,3.239,1,6v25c0,2.761,2.239,5,5,5h25c2.761,0,5-2.239,5-5V6z"/>
		<path fill="none" stroke="#7E7E7E" stroke-width="2" stroke-miterlimit="10" d="M36,6c0-2.761-2.239-5-5-5H6C3.239,1,1,3.239,1,6
			v25c0,2.761,2.239,5,5,5h25c2.761,0,5-2.239,5-5V6z"/>
	</g>
	<defs>
		<filter id="Adobe_OpacityMaskFilter" filterUnits="userSpaceOnUse" x="0" y="0" width="37" height="37">
			<feFlood  style="flood-color:white;flood-opacity:1" result="back"/>
			<feBlend  in="SourceGraphic" in2="back" mode="normal"/>
		</filter>
	</defs>
	<mask maskUnits="userSpaceOnUse" x="0" y="0" width="37" height="37" id="SVGID_1_">
		<g filter="url(#Adobe_OpacityMaskFilter)">
			<image overflow="visible" width="41" height="41" xlink:href="A02B5BEA.jpg"  transform="matrix(1 0 0 1 -2 -2)">
			</image>
		</g>
	</mask>
	<g opacity="0.75" mask="url(#SVGID_1_)">
		<path fill="#FFFFFF" d="M36,6c0-2.761-2.239-5-5-5H6C3.239,1,1,3.239,1,6v25c0,2.761,2.239,5,5,5h25c2.761,0,5-2.239,5-5V6z"/>
		<path fill="none" stroke="#FFFFFF" stroke-width="2" stroke-miterlimit="10" d="M36,6c0-2.761-2.239-5-5-5H6C3.239,1,1,3.239,1,6
			v25c0,2.761,2.239,5,5,5h25c2.761,0,5-2.239,5-5V6z"/>
	</g>
</g>
<g>
	<path fill="#464646" d="M5.488,24.777v6.354h6.354v-6.354H5.488z M9.723,29.013H7.605v-2.118h2.118V29.013z"/>
	<path fill="#464646" d="M24.549,5.715v6.354h6.354V5.715H24.549z M28.785,9.951h-2.118V7.833h2.118V9.951z"/>
	<polygon fill="#464646" points="10.933,28.106 8.513,25.681 25.457,8.741 27.877,11.161 	"/>
</g>
</svg>
