<?xml version="1.0" encoding="utf-8"?>
<!-- Generator: Adobe Illustrator 15.0.2, SVG Export Plug-In . SVG Version: 6.00 Build 0)  -->
<!DOCTYPE svg PUBLIC "-//W3C//DTD SVG 1.1//EN" "http://www.w3.org/Graphics/SVG/1.1/DTD/svg11.dtd">
<svg version="1.1" id="Layer_1" xmlns="http://www.w3.org/2000/svg" xmlns:xlink="http://www.w3.org/1999/xlink" x="0px" y="0px"
	 width="150.557px" height="150.002px" viewBox="582.428 234 150.557 150.002" enable-background="new 582.428 234 150.557 150.002"
	 xml:space="preserve">
<path d="M600.709,303.145c0.072-1.472,2.973,1.317,3.046-1.522c0.711,1.304,3.104,1.535,1.522,3.046
	c3.139-0.622,4.604-1.347,6.094,1.523c0.34-4.414-5.472-9.246-7.616-13.709c1.251-2.609,2.546-0.448,5.331-1.523
	c0.396,1.127,1.127,1.919,1.523,3.046c1.186-2.178,1.502-0.464,4.568-0.762c0.089-3.389-3.257-3.343-5.331-4.569
	c0.61-3.911-0.815-5.784-1.522-8.377c3.337,3.033,5.178,0.522,7.614,2.285c-0.92-2.38-2.651-3.947-3.046-6.854
	c1.626,0.356,1.45-1.088,1.523-2.285c2.864,1.918,2.695-1.416,4.568,0c-2.518-1.113-2.932-5.504-1.522-8.377
	c1.553,0.224,1.494,2.061,3.047,2.285c-1.873-1.705,3.197-2.741,1.523-5.331c1.271-2.191,3.083,1.414,3.046,3.046
	c5.462-1.774,3.854,2.629,6.854,2.285c-0.539,3.522-2.424,5.7-4.568,7.616c1.856,2.538,3.992-1.023,4.568-2.285
	c1.127,0.396,1.92,1.127,3.046,1.523c-0.007,2.372-1.801,4.963,0,6.854c1.022-0.5,1.419-1.628,1.523-3.046
	c1.303-0.16,1.973,1.299,2.285,0c1.854,1.432-1.492,2.766,2.284,1.523c-0.922,4.127-1.403,3.734-0.763,9.9
	c-2.387-0.842-2.146-0.491-3.046,1.523c0.581,3.909,3.609-2.768,3.046,2.285c2.361-0.431,2.003-3.583,4.57-3.808
	c-0.215,1.361,0.72,1.563,0.762,0.762c1.646,2.943-4.677,4.442-3.809,9.139c-2.824,0.476-4.459,2.141-6.854,3.046
	c2.314,1.142,0.421,2.291,1.523,3.809c2.712-1.858,7.347-1.792,9.14-4.57c0.893,0.123,0.643,1.389,0.761,2.285
	c2.864-3.23,2.136,0.91,3.81-0.762c0.429,3.996-5.599,8.101-9.901,9.9c1.385,2.599,0.193,3.956-3.046,3.808
	c7.855,0.982,12.728-0.991,20.562-5.33c0.159,1.303-1.298,1.972,0,2.284c-4.771,3.597-8.712,6.406-7.615,9.14
	c-8.527,3.064-13.87,4.793-20.563,9.139c2.056,1.542,2.957-0.033,5.331,0c1.132-0.333-0.3-0.975,0-2.285
	c4.044,1.008,6.735-0.598,7.616-3.046c2.247,1.445,4.715-0.227,6.093,0.761c0.26,1.528-0.155,2.384-1.522,2.285
	c5.154,1.328,9.394-1.903,18.278-3.046c-0.256,3.322-6.08,5.059-5.331,6.854c-0.304,0.971-5.942-0.892-6.094,2.284
	c0.662,1.149,1.142-0.209,3.047,0.763c0.481,3.02-2.896,2.182-2.284,5.331c2.164-0.627,2.559-3.026,3.808-4.569
	c3.867,1.192,4.793,0.435,9.139,1.523c-2.465,3.625-7.746,3.086-11.423,4.569c1.525,1.14,2.821,0.396,5.33,0
	c0.842,3.221-3.876,2.888-4.567,2.285c3.816,4.115,10.042-2.349,14.47,1.523c-2.391,1.732-1.883,0.227-0.763,3.046
	c-9.207-1.148-15.855,4.354-23.608,2.285c-0.192,2.73,2.287,2.791,2.285,5.332c-8.565-1.516-13.233-1.252-21.324-0.763
	c0.153,8.225,0.481,16.271,1.521,23.609c4.578,0.755,9.926,0.738,13.709,2.285c-10.156,1.773-23.606,0.256-35.032,0.762
	c2.561-3.023,9.271-1.898,13.709-3.047c4.711-3.413,1.2-15.045,2.283-22.086c-0.145-0.617-0.765-0.759-0.761-1.523
	c-1.106,0.417-3.938-0.89-3.809,0.763c-0.479-1.299-2.302-1.253-3.047-2.285c-0.894,0.124-0.643,1.389-0.763,2.285
	c-6.017-1.134-8.353-5.143-12.945-0.763c-0.593-0.678-0.819-1.72-0.763-3.046c-7.224,2.217-13.564-0.486-17.517-0.762
	c-0.744-2.103,4.158-2.324,2.285-3.046c1.552-1.728,3.983-1.684,5.331,0c-0.828-3.511-2.053-7.354-9.901-6.854
	c0.664-1.875,3.373-1.705,3.047-4.569c2.771,1.8,7.494,1.645,9.139,4.569c1.393-0.899-1.748-0.658,0-3.046
	c1.133,0.899,3.402,0.659,3.048,3.046c5.059-2.118,12.311,3.327,16.755,2.285c-2.88-2.125-9.646-4.933-13.708-5.331
	c-0.746-3.436-4.586-5.693-7.617-4.569c2.159-1.704-3.681-1.562-1.522-4.569c2.993,1.773,5.311,0.396,8.378,0
	c-2.627,0.054-4.86-2.712-7.615-4.569c0.478-2.774,3.848,2.056,3.046-1.522c1.132,0.898,3.401,0.658,3.047,3.046
	c0.893-0.123,0.643-1.39,0.762-2.285c1.733,1.059,2.95,2.635,4.569,3.808c0.892-0.123,0.642-1.388,0.761-2.285
	c-2.282,1.019-3.557-4.268-2.284-3.046c-3.487-3.349-8.269-2.681-11.424-7.615c3.884-1.773,10.232,2.059,13.708,3.046
	c1.522-1.897-1.627-3.737,0-6.094c2.553,1.899,6.51,1.735,8.378,1.523c1.651-0.128,0.345,2.702,0.762,3.808
	c1.075-1.15,3.699-2.404,5.331-0.762c-0.565-2.226-4.11-1.474-3.808-4.568c-4.612,0.55-6.248-1.876-9.901-2.285
	C605.516,307.913,602.912,306.132,600.709,303.145z M617.463,297.812c-2.387-0.526-0.992-2.032-0.762-3.808
	c-0.762,0-1.522,0-2.284,0C614.092,296.168,616.025,299.931,617.463,297.812z M615.179,304.667c0.737-3.022-2.206-2.364-3.808-3.046
	C611.254,304.022,614.459,303.103,615.179,304.667z M628.126,321.422c2.315,0.031,5.012,0.443,4.569-2.285
	C630.798,319.525,628.101,319.113,628.126,321.422z M612.133,332.085c-0.389-2.404-3.479-2.107-5.332-3.046
	C606.889,331.744,609.322,332.103,612.133,332.085z M628.126,351.125c2.955-0.599,5.119-1.989,6.093-4.569
	C631.548,344.829,627.114,346.752,628.126,351.125z M624.317,350.363c0-1.27,0-2.539,0-3.809c-1.016,0-2.03,0-3.046,0
	C621.073,349.038,622.176,350.221,624.317,350.363z M618.986,349.602c-3.387-2.444-8.797-2.254-10.662-1.522
	C611.582,348.411,617.513,352.339,618.986,349.602z"/>
<path d="M671.72,240.439c0.311,6.02,8.063-0.758,11.608,3.167c0.127-0.308,1.369-5.581,0-6.332c0.941-2.904,4.282,2.458,3.165-3.166
	c3.271,3.081,6.312,4.468,13.719,2.11c-0.229,3.86-1.448,4.048,0,7.388c1.894,0.134,2.227-1.292,4.222-1.055
	c-0.357,2.117,0.217,3.301,2.11,3.166c-2.238,6.897,4.994,8.473,3.165,11.608c4.105-2.271,6.099-3.247,10.555-3.166
	c-4.551,2.377,1.567,9.059-4.222,9.498c0.117,0.839,3.489,3.199,3.165,1.055c1.103,1.691,1.689,9.527-5.275,8.442
	c3.72,4.633,1.021,11.161-2.109,14.774c3.696-0.875,4.058-5.087,5.274-8.442c4.298,2.271,5.624,4.748,10.554,4.222
	c1.147,2.685-4.94,4.092,0,4.22c-1.162,0.396-4.015,4.221-1.056,5.277c-2.197,3.47-4.449-1.782-6.331-2.11
	c2.5,3.018,1.13,4.619-2.111,3.166c0,0.703,0,1.407,0,2.11c0.591,2.796,4.084-4.392,3.168,2.111c3.941,0.095,3.009,1.183,6.33,0
	c-0.492,2.251,1.51,2.01,3.167,2.109c1.233,2.76-3.258,4.539,1.056,4.221c-2.021,2.588-4.277,5.566-2.11,9.498
	c-2.608,2.739-4.128,0.023-5.276,4.223c1.802,3.315,7.403-1.184,8.441,1.055c0.522,3.812-2.73,10.79-3.165,12.663
	c-0.374,1.479-1.857,0.092-2.11-1.054c-2.405,4.283,0.21,6.019,1.055,10.553c-4.665-0.098,1.312,5.288-3.166,6.332
	c1.031,1.08,2.087,2.135,3.166,3.167c-0.811,3.411-2.919,5.521-6.331,6.332c0.797-6.208-2.658-2.042-4.222-6.332
	c-2.31,0.713,2,3.506,3.167,4.221c-4.235,2.459-3.837,0.206-9.498,3.166c-0.359-2.118,0.216-3.302,2.109-3.166
	c-1.357-1.602-6.854-3.664-7.388,0c-2.397-0.77-3.155-3.175-4.221-5.276c-2.479,1.039-1.752,5.283-5.277,5.276
	c-1.977-2.01-0.115-2.651,0-5.276c-10.594-0.623-7.203,22.144-6.332,29.549c0.424,3.092,6.192,0.844,7.388,3.166
	c11.932,0.808-0.99,0.955-7.388,1.057c-7.635,0.118-16.3-0.101-20.049,0c-1.787-1.178,5.769-1.9,8.439-2.111
	c7.017-3.894,0.523-21.286,4.224-28.494c-0.953-3.554-2.36-0.125-4.224-2.11c-1.565,0.46,0.416,1.351,0,3.166
	c-2.431,0.323-1.172-3.049-3.164-3.166c-4.089,1.329-3.031,3.1-5.275,7.387c-2.969,0.207-3.045-4.553-3.167,1.056
	c-0.985-0.598-1.599-2.935-2.111-1.056c-1.59-1.549,0.101-6.3-5.275-6.332c-0.433,2.542,1.928,2.294,1.056,5.277
	c-3.991-1.528-2.025,2.899-5.277,2.11c-2.155-2.282-0.361-6.563,2.111-7.388c-1.448,0.231-5.953,0.537-9.498,1.056
	c0.738-3.249,0.738-2.028,0-5.276c-3.83,2.358-6.551,1.733-8.443,4.221c-2.66-3.872-0.731-5.772-2.108-10.553
	c2.88,0.768,2.123-2.098,4.221-2.111c-0.611-3.958-0.103-3.874-2.111-7.388c2.103-1.125,6.118-5.762,4.224-7.387
	c0.239-1.521,3.147-0.368,3.165-2.11c2.393,1.126,3.835,3.201,4.222,6.332c2.88,0.769,2.125-2.098,4.221-2.11
	c-0.448-2.06-3.015,1.726-2.108-3.166c-2.879-0.095-2.125,1.758-4.224,0c1.386-4.771,0.835-5.296,5.278-7.388
	c-0.917-3.068-1.581-1.187-4.223-1.055c2.312-2.208,2.174-3.966-1.057-5.277c2.986-0.341,2.104-0.716,4.224-4.221
	c-2.627,0.21-2.467-7.837-7.389-8.443c2.08-2.73,5.172-5.614,8.443-4.221c0-1.056,0-2.11,0-3.166
	c-2.543-0.432-2.295,1.926-5.278,1.055c0.272-3.903,2.063-4.663-3.165-4.221c1.311-2.862,4.073-2.626,2.11-6.332
	c4.508,2.744,5.18-3.611,9.498-1.055c-4.441-2.227,0.359-4.338,2.11-6.333c3.388-0.925,2.188,2.737,4.222,3.166
	c0.442-2.821,2.182-9.117-3.166-11.608c1.978-3.956,2.271-6.419-1.056-7.387c0.842-5.107,3.818-7.665,2.11-12.664
	C666.217,242.278,668.401,240.791,671.72,240.439z"/>
<rect x="582.983" y="234" fill="none" width="150" height="150"/>
</svg>
