<?xml version="1.0" encoding="utf-8"?>
<!-- Generator: Adobe Illustrator 15.0.2, SVG Export Plug-In . SVG Version: 6.00 Build 0)  -->
<!DOCTYPE svg PUBLIC "-//W3C//DTD SVG 1.1//EN" "http://www.w3.org/Graphics/SVG/1.1/DTD/svg11.dtd">
<svg version="1.1" id="Layer_1" xmlns="http://www.w3.org/2000/svg" xmlns:xlink="http://www.w3.org/1999/xlink" x="0px" y="0px"
	 width="150.557px" height="150.002px" viewBox="0 0 150.557 150.002" enable-background="new 0 0 150.557 150.002"
	 xml:space="preserve">
<path d="M47.966,51.019c0.088-1.803,3.639,1.611,3.729-1.864c0.87,1.596,3.8,1.879,1.864,3.729c3.842-0.762,5.635-1.65,7.46,1.865
	c0.416-5.404-6.699-11.319-9.324-16.783c1.531-3.194,3.117-0.549,6.526-1.865c0.485,1.379,1.38,2.349,1.865,3.729
	c1.451-2.666,1.838-0.568,5.591-0.933c0.109-4.149-3.987-4.092-6.526-5.593c0.747-4.787-0.997-7.08-1.862-10.255
	c4.085,3.713,6.338,0.639,9.32,2.797c-1.126-2.913-3.245-4.832-3.729-8.39c1.99,0.435,1.775-1.332,1.865-2.797
	c3.506,2.348,3.3-1.734,5.593,0c-3.083-1.363-3.59-6.738-1.864-10.255c1.901,0.274,1.829,2.522,3.73,2.798
	c-2.293-2.087,3.915-3.357,1.865-6.528c1.555-2.681,3.774,1.731,3.729,3.73c6.686-2.172,4.717,3.218,8.389,2.798
	c-0.659,4.311-2.967,6.977-5.591,9.322c2.271,3.107,4.888-1.253,5.591-2.797c1.381,0.485,2.352,1.379,3.729,1.865
	c-0.009,2.904-2.204,6.076,0,8.39c1.251-0.612,1.738-1.992,1.864-3.728c1.596-0.196,2.416,1.59,2.798,0
	c2.27,1.752-1.827,3.386,2.797,1.864c-1.129,5.052-1.719,4.57-0.936,12.119c-2.922-1.03-2.626-0.6-3.729,1.865
	c0.711,4.786,4.419-3.388,3.729,2.797c2.891-0.528,2.452-4.386,5.596-4.663c-0.264,1.667,0.881,1.914,0.932,0.933
	c2.016,3.603-5.725,5.439-4.662,11.188c-3.457,0.583-5.458,2.622-8.392,3.729c2.834,1.398,0.518,2.805,1.865,4.663
	c3.32-2.274,8.994-2.193,11.188-5.594c1.095,0.15,0.788,1.7,0.933,2.796c3.506-3.953,2.615,1.114,4.664-0.932
	c0.524,4.892-6.854,9.917-12.121,12.12c1.696,3.183,0.236,4.843-3.729,4.663c9.616,1.202,15.582-1.215,25.172-6.525
	c0.195,1.595-1.589,2.414,0,2.795c-5.841,4.404-10.665,7.842-9.322,11.19c-10.439,3.75-16.98,5.867-25.172,11.188
	c2.516,1.888,3.619-0.041,6.524,0c1.387-0.408-0.367-1.193,0-2.798c4.952,1.234,8.245-0.731,9.323-3.729
	c2.751,1.77,5.773-0.278,7.46,0.932c0.318,1.871-0.189,2.919-1.863,2.797c6.31,1.626,11.501-2.328,22.376-3.729
	c-0.313,4.067-7.443,6.194-6.526,8.392c-0.373,1.188-7.274-1.093-7.46,2.795c0.81,1.407,1.397-0.256,3.73,0.935
	c0.588,3.696-3.546,2.671-2.797,6.525c2.649-0.768,3.133-3.704,4.661-5.593c4.734,1.459,5.868,0.533,11.189,1.865
	c-3.019,4.438-9.483,3.777-13.985,5.593c1.867,1.396,3.454,0.485,6.525,0c1.031,3.942-4.745,3.536-5.591,2.797
	c4.671,5.038,12.294-2.876,17.714,1.865c-2.927,2.119-2.305,0.277-0.934,3.729c-11.271-1.406-19.41,5.33-28.901,2.796
	c-0.234,3.343,2.8,3.417,2.798,6.528c-10.485-1.855-16.2-1.533-26.105-0.935c0.188,10.07,0.59,19.92,1.863,28.903
	c5.604,0.924,12.15,0.902,16.782,2.796c-12.433,2.171-28.899,0.314-42.886,0.934c3.135-3.7,11.349-2.323,16.782-3.729
	c5.767-4.179,1.47-18.418,2.795-27.038c-0.179-0.755-0.938-0.929-0.932-1.865c-1.354,0.511-4.821-1.089-4.664,0.935
	c-0.585-1.591-2.817-1.533-3.73-2.798c-1.094,0.153-0.788,1.701-0.934,2.798c-7.367-1.387-10.226-6.296-15.848-0.935
	c-0.726-0.829-1.003-2.104-0.934-3.729c-8.844,2.714-16.605-0.595-21.445-0.933c-0.911-2.575,5.09-2.845,2.797-3.729
	c1.9-2.114,4.876-2.062,6.526,0c-1.014-4.298-2.513-9.003-12.121-8.391c0.813-2.296,4.129-2.088,3.73-5.593
	c3.393,2.203,9.174,2.013,11.188,5.593c1.705-1.101-2.14-0.807,0-3.729c1.387,1.102,4.164,0.808,3.731,3.729
	c6.192-2.593,15.07,4.072,20.511,2.797c-3.526-2.602-11.809-6.039-16.781-6.526c-0.914-4.207-5.614-6.969-9.325-5.594
	c2.644-2.085-4.506-1.911-1.862-5.592c3.664,2.171,6.501,0.485,10.256,0c-3.216,0.065-5.95-3.32-9.322-5.594
	c0.586-3.396,4.71,2.516,3.729-1.864c1.386,1.1,4.164,0.806,3.73,3.729c1.094-0.15,0.788-1.702,0.934-2.797
	c2.121,1.296,3.61,3.226,5.592,4.662c1.093-0.15,0.787-1.7,0.931-2.797c-2.792,1.246-4.354-5.226-2.795-3.73
	c-4.269-4.099-10.124-3.282-13.986-9.322c4.756-2.17,12.527,2.521,16.781,3.73c1.864-2.323-1.992-4.575,0-7.46
	c3.126,2.324,7.971,2.123,10.256,1.864c2.021-0.157,0.423,3.308,0.934,4.661c1.316-1.407,4.529-2.942,6.526-0.933
	c-0.692-2.724-5.032-1.804-4.663-5.592c-5.645,0.674-7.648-2.295-12.12-2.797C53.85,56.855,50.663,54.674,47.966,51.019z
	 M68.476,44.489c-2.922-0.644-1.215-2.487-0.933-4.662c-0.933,0-1.864,0-2.796,0C64.349,42.477,66.717,47.083,68.476,44.489z
	 M65.68,52.881c0.902-3.699-2.701-2.894-4.661-3.729C60.875,52.092,64.799,50.966,65.68,52.881z M81.53,73.392
	c2.835,0.038,6.136,0.543,5.594-2.796C84.8,71.069,81.499,70.565,81.53,73.392z M61.951,86.445
	c-0.476-2.942-4.258-2.579-6.527-3.729C55.531,86.028,58.51,86.468,61.951,86.445z M81.53,109.755
	c3.618-0.733,6.267-2.436,7.459-5.594C85.719,102.047,80.291,104.401,81.53,109.755z M76.867,108.82c0-1.554,0-3.106,0-4.662
	c-1.245,0-2.485,0-3.729,0C72.896,107.199,74.245,108.648,76.867,108.82z M70.341,107.891c-4.147-2.992-10.769-2.759-13.052-1.863
	C61.277,106.433,68.537,111.24,70.341,107.891z"/>
<rect x="8.774" fill="none" width="150" height="150"/>
</svg>
