<?xml version="1.0" encoding="utf-8"?>
<!-- Generator: Adobe Illustrator 15.0.2, SVG Export Plug-In . SVG Version: 6.00 Build 0)  -->
<!DOCTYPE svg PUBLIC "-//W3C//DTD SVG 1.1//EN" "http://www.w3.org/Graphics/SVG/1.1/DTD/svg11.dtd">
<svg version="1.1" id="Layer_1" xmlns="http://www.w3.org/2000/svg" xmlns:xlink="http://www.w3.org/1999/xlink" x="0px" y="0px"
	 width="91.962px" height="99.589px" viewBox="0 0 91.962 99.589" enable-background="new 0 0 91.962 99.589" xml:space="preserve">
<path fill-rule="evenodd" clip-rule="evenodd" d="M43.148,1.535c0.198-0.058-0.053-0.17,0-0.401c0.119,0.083,0.239,0.162,0.268,0
	c0.361,0.159,0,0.699,0,0.938c0.119,0.316,0.748-0.307,0.67,0.401c0.266-0.092,0.307-0.408,0.536-0.537
	c0.531,0.358,0.175,0.867,0.669,1.34c-0.335-0.017-0.419-0.256-0.535,0.134c0.43,0.338,0.976-0.554,0.401-0.937
	c0.524,0.211,0.278-0.348,0.536-0.401c0.239-0.038,0.274,0.126,0.133,0.133c-0.052,0.32,0.61-0.074,0.402,0.401
	c0.082-0.186,0.516-0.021,0.536-0.268C46.71,2.037,45.98,2.41,46.229,1.804c0.525,0.124,0.498,0.292,1.071,0.133
	c-0.432,0.536-0.063,1.076-0.937,1.207c0.092,0.107,0.208,0.366,0,0.402c0.032,0.145,0.266,0.089,0.267,0.267
	c0.402-0.088-0.128-0.287,0-0.536c0.39-0.315,1.632,0.036,1.205,0.536c0.108-0.071,0.218-0.14,0.402-0.134
	c-0.166-0.28-0.39-0.504-0.669-0.67c0.771-0.583,1.073,0.762,1.74,0.135c0.024,0.292-0.109,0.426-0.401,0.402
	c0.245,0.333,0.059,1.102,0.669,1.07c0.224-0.215-0.087-1.29,0.536-0.937c-0.373-0.313,0.09-0.686-0.401-0.938
	c0.047-0.398,0.551-0.341,0.401-0.937c-0.234,0.122-0.465,0.249-0.401,0.669c-0.108-0.072-0.218-0.14-0.402-0.135
	c-0.006-0.342,0.1-0.163,0.268-0.133c0.166-0.434-0.434-0.102-0.268-0.535c0.241,0.017,0.283-0.164,0.535-0.135
	c-0.098-0.125-0.243-0.202-0.401-0.267c0.248-0.426,0.979-0.337,0.938,0.402c0.438-0.009,0.512-0.381,1.071-0.268
	c-0.562,0.301-0.456,0.178-0.268,0.803c-0.427-0.115-0.414,0.211-0.67,0.268c0.093,0.173,0.771-0.099,0.805,0.133
	c0.024,0.514-0.11,0.049-0.403,0.134c-0.017,0.24,0.165,0.283,0.134,0.536c0.294,0.024,0.428-0.109,0.402-0.401
	c0.474,0.015-0.284,0.442,0.134,0.401c-0.273,0.235-0.778,0.09-0.937,0c-0.182,0.042-0.111,0.335-0.135,0.536
	c0.171,0.074,0.744,0.489,0.805-0.267c0.538,0.23-0.18,0.884,0.534,0.535c0.05,0.227-0.104,0.252-0.268,0.268
	c0.281,0.283,0.981-0.062,1.34,0.668c-0.42,0.028-0.984-0.089-1.206,0.135c0.519,0.265-0.529,0.612,0.268,0.937
	c-0.021,0.158-0.243,0.113-0.401,0.135c0.444,0.428,0.175,0.445,0.67,0.535c-0.033,0.146-0.268,0.091-0.269,0.267
	c-0.062,0.421,0.361,0.354,0.402,0.671c0.064-0.712,1.299-0.126,1.875-0.938c-0.183-0.671-0.604,0.432-0.938,0
	c0.232-0.126,0.22-0.495,0.67-0.401c-0.362-0.56-0.623-0.456-1.473-0.402c0.094-0.413,0.094-0.257,0-0.67
	c0.425,0.58,1.165,0.154,1.741-0.134c0.058,0.279-0.092,0.354-0.135,0.535c0.267-0.001,0.171-0.365,0.537-0.267
	c0.174,0.361,0.456,0.616,0.67,0.938c0.096-0.641,1.154-0.14,1.338-0.938c-0.06-0.12-0.118-0.24-0.269-0.268
	c-0.197,0.058,0.054,0.171,0,0.402c-0.559-0.136-0.672-0.315-1.069,0c0.058-0.471,0.281-0.568,0.67-0.402
	c-0.072-0.108-0.142-0.218-0.134-0.401c-0.231-0.006-0.348,0.099-0.404,0.267c-0.312-0.034-0.077-0.587,0-0.668
	c-0.422-0.067-0.049,0.664-0.536,0.535c-0.147-0.319,0.165-0.59,0.136-0.937c-0.523,0.012-0.708,0.364-0.804,0.804
	c-0.548-0.294,0.127-1.286,0.937-1.072c0.017-0.24-0.163-0.283-0.133-0.535c0.292,0.225,1.018,0.49,0.67,0.937
	c0.107-0.026,0.133-0.135,0.269-0.134c0.099-0.413-0.37-0.258-0.269-0.67c0.227,0.049,0.252-0.104,0.269-0.268
	c0.487,0.09,1.134,0.123,1.203,0.938c-0.285,0.062-0.255-0.191-0.268-0.401C56.76,3.586,56.83,3.88,56.808,4.08
	c-0.297,0.074-0.191-0.256-0.402-0.268c-0.229,0.311,0.701,0.683,0.938,0.268c0.017,0.24-0.164,0.283-0.135,0.535
	c0.286,0.063,0.255-0.19,0.268-0.402c0.312-0.042,0.515,0.022,0.67,0.135c0.038,0.305-0.032,0.503-0.268,0.535
	c0.735,0.024,1.925,0.34,3.482,0.803c-0.458,0.818,0.02,1.987-0.938,2.143c0-0.223,0-0.446,0-0.67
	c-0.352-0.04-0.105,0.52-0.535,0.402c0-0.178,0-0.357,0-0.536c-0.425-0.03-0.777,0.837-0.938,0.401
	c-0.401,0.089,0.129,0.287,0,0.537c0.235-0.492,0.245,0.112,0.402-0.134c0.399,0.087-0.129,0.287,0,0.536
	c0.505,0.151,1.579,0.687,1.874,1.473c-0.805-0.09-1.181,0.247-1.338,0.804c0.58-0.689,1.345-0.012,1.739-0.938
	c0.481,0.056,0.481,0.592,1.071,0.536c-0.114,0.108-0.078,0.367-0.268,0.402c0.279,0.6,0.626,0.324,1.207,0.535
	c0.429-0.269-0.481-0.311-0.403-0.669c0.212-0.012,0.512,0.064,0.536-0.134c-0.215-0.232-0.603-0.29-1.072-0.267
	c-0.14-0.499,0.452-0.264,0.536-0.537c-0.267-0.432-0.835,0.367-1.07,0c0.27-0.354,0.888-0.36,0.804-1.071
	c0.106,0.072,0.217,0.14,0.4,0.135c-0.285,0.715-0.522,0.71,0.27,0.535c0.097-0.409-0.232-0.394-0.135-0.803
	c0.233,0.086,1.423,0.744,0.938,0.535c-0.209,0.151-0.279,0.436-0.67,0.402c0.071,0.108,0.139,0.217,0.134,0.402
	c0.296-0.515,0.851-0.84,1.474-0.668c0.053-0.322-0.61,0.074-0.403-0.402c0.437,0.033,0.408-0.265,0.67-0.67c0.09,0,0.179,0,0.27,0
	c0.005,0.342-0.1,0.164-0.27,0.134c-0.042,0.445,0.659,0.146,0.402,0.803c0.156-0.021,0.111-0.244,0.134-0.401
	c0.352-0.04,0.439,0.186,0.401,0.537c-0.118,0.103-0.302,0.144-0.535,0.133c0.281,0.674,0.484-0.307,0.938-0.268
	c-0.194,0.507,0.369,0.258,0.267,0.67c0.42-0.172,0.071-0.277,0.269-0.67c0.297,0.592,0.94,0.102,0.938,1.072
	c0.41,0.097,0.393-0.23,0.803-0.134c-0.253,0.418-0.879,0.46-1.205,0.804c-0.057,0.222,0.499-0.012,0.535-0.134
	c0.442,0.364-0.283,0.69-0.267,1.07c-0.247-0.019-0.082-0.452-0.269-0.535c-0.401,0.088,0.127,0.286,0,0.535
	c-0.419-0.071-0.664-0.319-0.805-0.668c-0.407,0.164,0.197,0.511-0.133,0.668c-0.192-0.074-0.327-0.208-0.401-0.401
	c-0.157,0.022-0.113,0.245-0.135,0.401c0.237,0.166,0.543,0.261,0.669,0.537c-0.19,0.388-0.429,0.074-0.669,0.535
	c0.196,0.102,0.76,0.159,0,0.269c0.021,0.248,0.454,0.081,0.536,0.268c0.25-0.522,1.458-0.939,2.01-0.268c0,0.178,0,0.357,0,0.535
	c-0.209-0.22-0.522,0.046-0.804,0.135c0.497,0.502,1.064-0.02,1.339-0.938c-0.059-0.198-0.172,0.054-0.402,0
	c0.66-0.724,0.896-0.418,1.606-0.535c0.058,0.279-0.092,0.354-0.134,0.535c0.393-0.198,0.498,0.152,0.67-0.268
	c0.271,0.098,0.406,0.883,0,1.072c0.042,0.182,0.335,0.112,0.536,0.135c-0.033,0.235-0.23,0.304-0.536,0.267
	c0.027,0.18,0.557,0.25,0,0.268c0.285,0.489,0.78-0.631,1.071-0.133c0.395-0.116-0.312-0.2-0.134-0.536
	c0.34,0.017,0.52,0.195,0.536,0.536c0.119-0.06,0.239-0.118,0.268-0.268c-0.201-0.245-0.577-0.316-0.804-0.535
	c0.067-0.447,0.907-0.007,0.938,0.402c0.236-0.246,0.969-0.438,1.206-0.269c-0.003,0.266-0.366,0.17-0.271,0.535
	c-0.409-0.093-0.256-0.093-0.668,0c-0.022,0.292,0.475,0.061,0.668,0.135c-0.131,0.43-0.381,0.325,0.136,0.535
	c-0.056,0.14-0.519,0.47-0.401,0c-0.392,0.229,0.021,0.768,0.401,0.67c-0.004-0.13-0.164-0.104-0.269-0.134
	c0.702-0.371,0.863-1.281,1.741-1.473c0.137,0.085,0.139,0.307,0.401,0.267c-0.174,0.54-0.264,0.329,0,0.804
	c-0.332,0.021-0.415-0.21-0.67-0.267c-0.165-0.433,0.436-0.102,0.269-0.537c-0.447,0.088-0.587,0.484-0.804,0.804
	c0.189,0.333,0.463,0.236,0.804,0.134c-0.317,0.466-0.472,1.103-0.937,1.072c0.612,0.366-0.013,0.73,1.205,1.07
	c-0.132,0.431-0.997,0.129-0.537,0.805c-0.502-0.189-1.43-0.16-1.873,0.267c-0.671-0.101,0.07-0.867-0.67-0.536
	c0.11-0.48-0.304-0.648,0-0.938c-0.379-0.11-0.348,0.189-0.67,0.135c0.054,0.257,0.52,0.105,0.401,0.535
	c-0.382,0.107-0.83-0.086-0.938,0.402c-0.34-0.016-0.52-0.195-0.535-0.535c-0.212,0.011-0.511-0.065-0.536,0.133
	c0.025,0.152,0.134,0.074,0.134,0c0.199,0.058-0.054,0.171,0,0.402c-0.641-0.241-0.84,0.061-1.071,0.536
	c0.761,0.357,1.45-0.917,2.545,0.134c0.022,0.38-0.452,0.261-0.269,0.803c0.207-0.305,0.279-0.253,0.67-0.135
	c0.146-0.032,0.091-0.266,0.269-0.267c-0.961-0.304,1.51-1.001,1.474,0.401c-0.135,0-0.271,0-0.403,0
	c0.033,0.235,0.23,0.305,0.537,0.267c0.006,0.229-0.101,0.347-0.269,0.403c0.122,0.118,0.396,0.023,0.805,0.133
	c-0.027,0.376-0.235,0.57-0.67,0.536c-0.039-0.216,0.126-0.231,0.134-0.402c-0.312-0.042-0.516,0.022-0.67,0.135
	c0.024,0.151,0.134,0.074,0.133,0c0.039,0.774,0.58,0.235,1.207,0.803c-0.046,0.475-0.37,0.329-0.134,0.803
	c-0.263-0.047-1.168-0.205-0.536,0c-0.848-0.182-1.066-1.25-2.009-0.938c-0.08,0.481,0.396,0.408,0.803,0.402
	c-0.423,0.676,0.05,0.089,0.402,0.536c-0.119,0.436-0.1,0.833-0.134,1.607c-0.595,0.103-0.54-0.443-0.804-0.67
	c-0.455,0.775-0.836,0.333-1.607,0.67c-0.324-0.311,0.21-0.358,0.268-0.67c-0.528,0.31-0.915,0.255-1.606,0.402
	c0.293,0.28,0.275,0.503-0.135,0.669c0.06,0.194,0.118-0.013,0.268,0c0.021,0.072-0.622,0.622-0.936,0.804c0-0.134,0-0.268,0-0.402
	c-0.195,0.16-0.18,0.636-0.537,0.268c0.752,0.813,1.117,0.185,2.01,0.402c-0.058-0.211-0.422-0.115-0.268-0.536
	c0.411-0.189,0.602-0.06,0.937,0.134c-0.429,0.634,0.312,0.02,0.401,0.536c0.376-0.131-0.193-0.357,0.134-0.536
	c0.441-0.133,0.513,0.859,0.536,0c0.752,0.077,0.1,0.821,0.536,1.072c0.359-0.232,0.84-0.868,1.204-0.67
	c-0.67,0.381,0.175,0.545,0.133,1.072c-0.532-0.234-0.361,0.313-0.802-0.135c-0.543,0.553,0.645,0.51,0.802,0.804
	c-0.033,0.314-0.587,0.078-0.668,0c-0.406,0.165,0.146,0.461,0,0.805c0.528-0.081,0.695,0.196,0.938,0.402
	c0.02,0.377-0.403,0.312-0.403,0.668c-0.335,0.023-0.419-0.205-0.535-0.401c-0.146,0.483-0.436,0.396-0.804,0.134
	c-0.445,0.38,0.488,1.026,0.135,1.339c-0.361-0.041-0.24-0.563-0.536-0.67c-0.278,0.212-0.045,0.938-0.269,1.207
	c-0.119-0.083-0.238-0.163-0.268,0c-0.2-0.114-0.193-0.432-0.268-0.67c-0.296,0.017-0.058,0.568-0.134,0.804
	c-0.342-0.015-0.266-0.449-0.268-0.804c-0.136,0.087-0.14,0.308-0.402,0.268c0.006-0.229-0.099-0.347-0.268-0.401
	c0.06-0.195,0.118,0.014,0.268,0c-0.047-0.177-0.234-0.211-0.268-0.403c-0.302,0.055,0.071,0.786-0.535,0.537
	c0.102,0.388,0.633,0.347,0.535,0.937c-0.412-0.093-0.257-0.093-0.67,0c0.132,0.181,0.358,0.268,0.537,0.402
	c-0.037,0.47-0.594-0.242-0.537,0.133c-0.372,0.061,0.105-0.729-0.269-0.668c-0.289-0.023-0.06,0.474-0.133,0.668
	c-0.56-0.295-0.647-0.237-0.804-0.937c-0.02,0.283-1.004,0.538-0.803-0.133c-0.28,0.034-0.037,0.587-0.269,0.67
	c-0.182-0.041-0.11-0.336-0.134-0.537c-0.129,0.229-0.421,0.293-0.669,0.402c0.684-0.12,0.183,0.832,0,1.338
	c0.482-0.052,0.408-0.661,0.669-0.937c0.446,0.542,0.54,0.043,1.072-0.134c0,0.312,0,0.625,0,0.937
	c0.135-0.087,0.138-0.309,0.401-0.268c0.152,0.897-0.421,0.931-0.269,1.608c-0.279,0.056-0.354-0.092-0.535-0.135
	c-0.546,0.381,0.743,0.457,0.135,0.938c0.379-0.308,0.441-0.24,0.803-0.67c0.725-0.162,0.71,0.415,1.204,0.133
	c-0.095-0.351-0.29-0.602-0.803-0.535c0.02-0.384,0.559-0.246,0.938-0.269c0.048-0.227-0.106-0.252-0.27-0.267
	c0.372-0.474,0.493,0.186,0.804-0.536c0.179,0.134,0.499,0.127,0.536,0.403c0.255-0.401,0.384-0.099,0.804-0.27
	c0.153,0.295,0.345,0.548,0.268,1.072c1.364,0.092,0.479-0.939,1.34-1.339c0.085,0.648-0.178,0.947,0,1.339
	c0.618,0.085,0.408-0.661,1.071-0.535c-0.18-0.239-0.981-0.208-0.536-0.67c0.287,0.55,0.4-0.065,0.938,0
	c-0.022,0.156,0.028,0.239,0.133,0.268c-0.42,0.305-0.332,0.04-0.133,0.535c-0.181,0-0.357,0-0.538,0
	c0.003,0.267,0.368,0.171,0.269,0.537c-0.668-0.284-0.246,0.386-0.133,0.803c0.284-0.484,0.742-0.428,1.205-0.135
	c-0.049,0.177-0.235,0.211-0.269,0.402c0.72-0.636,0.861-0.131,1.741,0c-0.073,0.535-0.073,0.404,0,0.938
	c-0.925-0.344-0.624,0.538-1.072,0.67c0-0.18,0-0.357,0-0.536c-0.098-0.125-0.242-0.203-0.4-0.268
	c0.512-0.043,0.641-0.182,1.07-0.536c-0.175-0.474-1.636,0.44-1.607-0.402c-0.312,0.034-0.076,0.589,0,0.67
	c0.241,0.017,0.284-0.164,0.537-0.133c-0.26,0.504-0.722,2.131-1.877,1.339c-0.101,0.245-0.085,0.554-0.533,0.535
	c0.201,0.406,0.587-0.11,0.938,0c-0.151,0.165-0.117,0.275,0.132,0.268c-0.004,0.671-0.652,0.658-0.132,1.206
	c0.492-0.626,0.368-0.451,0.67-1.339c0.308-0.041,0.147,0.387,0.399,0.402c0.203-0.117-0.036-0.2,0.135-0.537
	c0.269,0.448-0.068,1.498,0.938,1.207c-0.182,0.437-0.592,0.541-0.27,0.937c-0.195,0.384-0.354,0.149-0.938,0.269
	c0,0.223,0,0.445,0,0.669c-0.519-0.364-0.861,0.635-1.34,0.134c-0.197,0.113-0.192,0.431-0.266,0.67
	c0.605,0.1-0.205-0.368,0.401-0.268c0.055,0.322-0.244,0.291-0.136,0.67c0.253-0.152,0.646-0.159,0.536-0.67
	c0.288-0.063,0.256,0.19,0.269,0.402c0.183-0.042,0.11-0.335,0.136-0.536c0.438,0.005,0.664,0.226,1.203,0.134
	c0.026-1.166,0.738-1.109,0.938-1.875c0.332-0.021,0.414,0.211,0.669,0.268c0.177-0.336-0.53-0.42-0.134-0.536
	c0.497,0.039,0.362,0.708,0.938,0.669c0.016,0.24-0.163,0.283-0.134,0.537c0.269-0.497,0.298,0.03,0.402,0.401
	c-0.37,0.193-0.73,0.393-0.67,0.669c-0.515,0.024-0.049-0.109-0.134-0.402c-0.468,0.459,0.138,0.873,0.134,1.34
	c0.093-0.198,0.02-1.262,0.67-0.804c-0.031,0.193-0.4,0.046-0.402,0.267c0.252,0.585,1.298-0.134,1.876,0.402
	c-0.194,0.375-0.646,0.228-0.938,0c-0.363,0.122,0.283,0.324,0.402,0.402c-0.335,0.609-0.915,0.149-1.474,0.536
	c-0.111-0.378,0.189-0.347,0.134-0.67c0.34,0.549,0.322-0.153,0.803,0.134c-0.075-0.124-0.371-0.203-0.133-0.267
	c-0.569-0.229-1.753,1.162-2.679,0.937c0.025,0.108,0.135,0.134,0.135,0.268c0.388-0.147,0.949-0.121,1.339-0.268
	c-0.201,0.336-0.339,0.733-0.938,0.67c0.321,0.659,0.756-0.357,1.34-0.268c-0.384,0.53-0.643,1.042-1.205,1.071
	c0.093,0.178,0.356-0.066,0.669,0.133c0.278-0.683,0.878-0.768,1.34-1.338c0.389,0.187-0.038,0.661-0.134,0.804
	c-0.042,0.308,0.386,0.148,0.401,0.401c0.199-0.258,0.293-0.651,0-1.205c0.402-0.177,0.467-0.038,1.071-0.134
	c-0.02,0.639-0.305,0.178-0.803,0.268c0.245,0.246,0.431,0.55,0.534,0.937c-0.134,0-0.268,0-0.4,0
	c0.141,0.379,0.529,0.167,0.267,0.671c0.061,0.262,0.938,0.24,0.67-0.27c0.165,0.06,0.275,0.172,0.268,0.403
	c0.322-0.756,1.229-0.39,1.474,0.133c-0.312,0.042-0.515-0.022-0.669-0.133c0.384,0.406,0.958,0.326,0,0.535
	c0.024,0.108,0.134,0.134,0.134,0.268c0.413,0.1,0.163-0.462,0.669-0.268c0.065,0.585-0.413,0.286-0.134,0.804
	c-1.026-0.179-1.501-0.189-2.277,0.401c0.463,0.143,1.273-0.023,1.742-0.269c0.41,0.251-0.155,0.637-0.536,0.537
	c-0.209,0.476,0.455,0.08,0.402,0.402c0.088-0.324,0.124-0.351,0.669-0.402c-0.188,0.805-0.814,0.518-0.938,1.205
	c-0.286-0.338-0.639-0.61-0.937-0.937c0.093,0.572,0.062,0.904,0.267,1.607c-0.512-0.248-0.592,0.078-0.4,0.535
	c-0.359,0.239-0.26-0.59-0.402-0.134c-0.049-0.271-0.104-0.849-0.804-0.536c-0.017-0.33-0.02-0.644,0.135-0.803
	c-0.025-0.108-0.135-0.132-0.135-0.267c-0.235,0.118-0.221,0.594-0.535,0.267c0.14,0.562,0.056,0.415,0,1.071
	c-0.785-0.502-1.008,0.283-1.606,0.134c0.192,0.272-0.397,0.91,0.268,1.072c-0.037,0.315-0.5-0.013-0.536-0.134
	c-0.182,0.042-0.111,0.335-0.134,0.535c0.339-0.292,0.899,0.012,1.474,0c-0.506,0.453-1.311-0.106-1.474,0.537
	c-0.294-0.754-0.385-0.581-0.402-1.474c-0.279,0.669-0.233,1.207-0.804,1.338c0.194-0.768-0.145-1.651-0.802-1.606
	c0.021-0.157,0.243-0.113,0.402-0.134c-0.489-0.521-0.688,0.377-1.074,0.402c0-0.268,0-0.536,0-0.803
	c-0.275,0.034-0.036,0.588-0.266,0.67c-0.232-0.122-0.37-0.494,0-0.537c-0.398-0.36-1.105-0.414-1.474-0.803
	c0.268,0.402,0.502,0.836,0.938,1.071c-1.275,0.37-1.086-2.405-2.545-1.875c0.059-0.46-0.054-0.751-0.134-1.071
	c-0.252,0.014-0.093,0.443-0.4,0.401c0.057,0.256,0.287,0.337,0.268,0.67c-0.335,0.023-0.42-0.206-0.537-0.402
	c-0.327,0.119-0.145,0.748-0.669,0.67c-0.114-0.427,0.211-0.415,0.269-0.67c-0.337-0.023-0.419,0.205-0.535,0.402
	c-0.353-0.675,0.388-0.462,0.267-0.938c-0.444,0.291-0.914-0.143-1.07,0.269c-0.451-0.041-0.535-0.448-0.67-0.803
	c-0.095,0.855-0.561-0.38-1.072,0c0.124,0.456,0.427,0.735,1.072,0.67c0.085,0.609,0.673,0.415,0.804,1.205
	c-0.588-0.188-0.338,0.46-1.207,0.133c0.765,0.633,1.544,1.088,3.082,0.938c-0.279,1.046,0.431,0.583,0.937,1.473
	c-0.496-0.035-0.591-0.262-0.536,0.402c-0.802-0.366-0.558-0.15-1.339-0.536c0.17,0.2,0.547,0.402,0.269,0.67
	c-0.311-0.244-0.96-0.65-0.67-1.072c-0.751,0.266,0.175,0.918,0.135,1.34c-0.487,0.129-0.113-0.602-0.537-0.537
	c-0.484,0.243,0.237,0.37,0.134,0.669c-0.5-0.078-0.691-0.468-1.07-0.669c-0.188,0.26-0.495,0.397-0.804,0.537
	c-0.394-0.01-0.497-0.306-0.67-0.537c-0.521,0.467,0.278,0.875-0.536,1.205c0.767,0.192,1.863,0.746,3.215,0.403
	c0,0.177,0,0.356,0,0.535c-0.424-0.156-0.589,0.083-1.071-0.134c1.191,1.145,3.089,0.688,4.954,0.804
	c-0.653,0.782-2.083-0.243-2.812,0.134c0.189,0.391,0.735,0.425,1.07,0.67c-0.825-0.109-2.476-0.82-3.08-1.205
	c-0.392,0.113,0.175,0.336,0,0.668c0.424,0.024,0.799,0.096,0.804,0.537c-0.364,0.097-0.27-0.266-0.534-0.269
	c-0.353,0.684,0.34,0.747,0.669,1.473c-0.228,0.051-0.254-0.104-0.269-0.268c-0.539,0.396-0.754,0.06-1.071-0.401
	c-0.345,0.032,0.185,0.23,0,0.536c-0.509-0.575-0.639,0.394-0.803-0.135c-0.391,0.229,0.303,0.488,0.134,0.938
	c-0.306-0.096-0.685-0.119-0.937-0.268c-0.199,0.058,0.051,0.172,0,0.401c-0.379,0.022-0.313-0.402-0.67-0.401
	c-0.302,0.741-0.699,0.855-1.474,0.535c0.25,0.381,0.443,0.192,0.268,0.805c-0.51-0.141-0.41,0.538-0.804,0.134
	c-0.396,0.116,0.311,0.2,0.134,0.535c-0.42-0.376-0.459,0.439-0.534-0.134c0.065,0.659-0.465,0.899-0.403,1.875
	c0.421,0.153,0.326-0.212,0.537-0.268c-0.022-0.157-0.246-0.114-0.403-0.134c0.657-0.485,0.56-1.379,1.474-1.072
	c0.04-0.352-0.521-0.105-0.4-0.535c1.062,0.102,1.467,0.75,2.276,1.071c-0.085,0.708,0.425,0.823,0.668,1.204
	c0.396-0.251,1.036-0.596,1.339,0c-0.33-0.017-0.644-0.021-0.803,0.136c0.21,0.368,0.813,0.345,0.803,0.936
	c-0.423,0.066-0.473-0.241-0.937-0.134c0.388,0.561-0.233,0.294-0.268-0.134c-0.368,0.227-0.667,0.386-0.938-0.134
	c-0.246,0.155-0.093,0.712-0.668,0.535c0.156-0.639-0.762-0.072-0.27-0.804c-0.364-0.096-0.27,0.268-0.534,0.269
	c0.224,0.845,1.192,1.807,2.008,0.938c0.303,0.486,1.046-0.185,0.937,0.804c0.48-0.24,0.408,0.012,0.403,0.536
	c0.286-0.438,0.491-0.032,0.804,0c0.256-0.014-0.209-0.5,0.133-0.67c0.42-0.063,0.354,0.36,0.67,0.401
	c-0.882,0.653,1.146,1.578,1.473,0.67c-0.054-0.259-0.519-0.105-0.4-0.535c-0.279,0.034-0.037,0.589-0.27,0.669
	c-0.363,0.096,0.097-0.632-0.268-0.535c-0.198,0.058,0.053,0.171,0,0.401c-0.119-0.083-0.239-0.161-0.269,0
	c-0.505-0.124,0.339-0.974-0.267-0.804c0.054-0.567,1.17-0.917,0.803-0.134c0.346-0.01,0.192-0.625,0.537-0.268
	c0.012-0.366-0.223-0.27,0-0.536c-0.122-0.366-0.301,0.407-0.537,0c0.297-0.283-0.172-0.396-0.133-0.804
	c-0.46,0.405-0.053,0.674-0.938,0.938c0.012-0.188,0.022-0.38-0.134-0.401c0.229-0.129,0.294-0.421,0.401-0.67
	c-0.323-0.055-0.291,0.245-0.67,0.134c0.364-0.35,0.184-0.411,0-0.804c1.194,0.085,0.299-0.239,1.606-0.401c0-0.178,0-0.356,0-0.535
	c-0.51-0.196-0.024,0.599-0.534,0.402c0.265-0.309-0.033-0.148-0.136-0.402c-0.048,0.693-0.735-0.085-0.668,0.67
	c-0.44-0.141-0.592,0.085-0.938-0.268c0.04-0.273,0.363-0.263,0.403-0.537c0.182,0.042,0.11,0.336,0.134,0.537
	c0.182-0.042,0.111-0.335,0.133-0.537c0.296-0.073,0.19,0.256,0.402,0.269c-0.232-0.776,0.33-1.62,0.67-1.874
	c-0.432-0.152,0.13-0.384,0.4-0.269c-0.021,0.155,0.03,0.237,0.134,0.269c-0.059,0.164-0.17,0.274-0.401,0.267
	c0.043,0.447,0.635-0.402,0.537,0.269c0.307-0.273-0.187-0.879-0.402-1.072c-0.023-0.29,0.475-0.06,0.67-0.134
	c-0.155,0.199-0.155,0.339,0,0.536c0.28-0.037-0.194-0.358,0.133-0.536c0.156,0.112,0.36,0.177,0.67,0.134
	c0.049,0.229-0.104,0.253-0.268,0.269c0.042,0.182,0.335,0.11,0.535,0.134c0.061-0.641-0.683-0.479-0.67-1.072
	c-0.165,0.061-0.274,0.172-0.268,0.402c-0.135-0.087-0.138-0.309-0.4-0.268c0.13-0.181,0.449-0.173,0.534-0.401
	c0.979,0.174,1.745,1.612,2.813,1.607c0.053-0.322-0.61,0.074-0.402-0.402c0.45,0.258,0.996,0.211,1.34,0.269
	c-0.969-0.435-0.147-0.39-0.938-0.671c0.233-0.354,0.276-0.136,0.669-0.401c0,0.134,0,0.268,0,0.401
	c0.273-0.075,0.264-0.402,0.536-0.134c-0.025-0.108-0.136-0.134-0.136-0.268c-0.116-0.202-0.199,0.037-0.536-0.135
	c-0.116-0.429,0.349-0.277,0.404-0.535c-0.105,0.272,0.538,0.184,0.268,0.535c0.248-0.018,0.448-0.086,0.535-0.267
	c0.02-0.377-0.328-0.387-0.671-0.401c0.013-0.19,0.022-0.38-0.132-0.401c0.143-0.53,0.404,0.033,0.803,0
	c-0.087-0.138-0.309-0.141-0.267-0.401c0.592,0.011,0.999-0.16,1.069-0.67c0.229,0.233,0.86,0.488,0.537-0.136
	c0.416-0.062,0.478,0.338,0.267,0.537c0.316-0.041,0.25-0.466,0.67-0.401c0.323,0.996,1.063,1.242,2.144,1.205
	c-0.114,0.391-0.433-0.08-0.67,0c0.224,0.312,0.747,0.322,0.67,0.936c-0.369-0.352-0.65,0.138-0.938,0.269
	c-0.353-0.216-0.125-0.479-0.669-0.67c0.076,0.37,0.423,0.472,0.401,0.938c-0.436,0.079-0.623-0.091-0.938-0.134
	c0.032,0.235,0.231,0.307,0.536,0.268c-0.058,0.21-0.423,0.115-0.269,0.537c-0.124-0.099-0.201-0.243-0.268-0.402
	c-0.258,0.279-0.633,0.438-0.536,1.071c0.322-0.652,0.808,0.125,1.607-0.268c-0.411-0.313-0.104-0.131,0.134-0.401
	c0.171,0.631,1.781-0.175,1.608,0.803c-0.218-0.187-0.691-0.113-0.804-0.401c-0.393,0.112,0.172,0.336,0,0.669
	c-0.215-0.135-0.54-0.126-0.27-0.401c-0.106,0.071-0.217,0.139-0.4,0.134c0.082,0.542,0.527,0.721,0.4,1.473
	c-0.342-0.35-0.584-0.445-1.07-0.133c0.689-0.156,0.363,0.613,1.34,0.534c0.184-0.133-0.058-0.221,0.268-0.401
	c0.407,0.039,0.913-0.021,0.937,0.401c-0.408,0.038-0.521-0.428-0.804-0.133c0.471,0.332,1.387,0.222,1.34,1.07
	c-0.197-0.116-0.425-0.199-0.403-0.536c-0.124,0.099-0.201,0.244-0.267,0.402c0.124,0.356,0.969,0.437,0.535,0.938
	c0.379,0.111,0.348-0.188,0.671-0.134c0.129,0.666-0.987,0.085-0.939,0.67c-0.271-0.04-0.262-0.362-0.533-0.402
	c-0.057,0.322,0.243,0.291,0.133,0.67c-0.279-0.166-0.505-0.39-0.669-0.67c-0.299,0.021,0.173,0.338,0,0.67
	c-0.155-0.647-1.132-0.475-0.938-1.474c-0.106,0.577-0.742,0.397-0.67-0.268c-0.364,0.633-1.014-0.047-1.071-0.536
	c-0.069,0.098-0.095,0.629-0.535,0.269c0.687,0.721,1.124,0.964,2.142,1.205c-0.419,0.634,0.341,0.437,0.402,0.938
	c-0.366,0-0.86-0.558-1.205-0.134c1.197,0.594,2.104,0.263,3.348,0.134c0.432,0.229-0.697,0.002-0.536,0.401
	c0.121,0.119,0.396,0.023,0.803,0.135c-0.296,0.484-0.732,0.044-1.203,0.402c0.167,0.323,0.421,0.691-0.136,0.401
	c0.269,0.361,0.512,1.447,1.072,1.071c-0.621-0.044,0.255-0.86,0.804-0.938c0.017,0.239-0.165,0.282-0.134,0.536
	c0.42,0.065,0.353-0.463,0.669-0.135c0.215,0.526-0.579,0.047-0.535,0.401c0.131,0.375,0.356-0.194,0.535,0.135
	c-0.271,0.34-0.929,0.439-0.535,1.07c0.286,0.062,0.255-0.19,0.267-0.401c0.563,0.619,0.623,0.821,0.67,1.741
	c-0.689,0.207-1.053-0.354-1.34-0.134c0.201,0.071,0.158,0.133,0.536,0.268c-0.172,0.204-0.869,0.465-0.937,0
	c-0.309,0.681-0.577,0.05-1.072,0.268c-0.015-0.334-0.251-0.415,0-0.67c-0.134-0.104-0.335-0.084-0.534-0.401
	c-0.458,0.15,0.041,0.52-0.269,0.67c-0.445,0.093-0.216-0.276-0.135-0.401c-0.108,0.025-0.133,0.134-0.267,0.133
	c-0.018,0.241,0.163,0.283,0.134,0.537c0.927-0.027,1.046,0.084,1.339,0.803c-0.466-0.026-0.508-0.473-0.937-0.536
	c-0.266,0.282,0.943,1.005,1.204,0.402c0.176,0.27,0.146,0.747,0.803,0.536c-0.047,0.176-0.235,0.21-0.267,0.401
	c0.083-0.186,0.515-0.021,0.536-0.268c0.144,0.391-0.141,0.527,0.134,1.338c0.411-0.094,0.258-0.094,0.669,0
	c0.193,0.508-0.367,0.258-0.269,0.67c-0.304,0.184-0.503-0.345-0.534,0c-0.072-0.332-0.014-0.273-0.402-0.402
	c-0.291-0.021-0.061,0.477-0.134,0.67c-0.637-0.441-1.139-0.719-1.74-0.938c0.027,0.51,0.83,0.241,0.804,0.804
	c-0.678-0.298-0.483-0.144-1.073,0.134c0.123-0.778-0.218-0.263-0.535-0.536c0.246-0.335,0.565-0.595,0.938-0.802
	c-0.188-0.215-0.462-0.343-0.804-0.401c0.087,0.18,0.285,0.248,0.535,0.267c-0.42,0.503-0.582,0.498-1.339,0.535
	c0.149-0.163,0.117-0.274-0.134-0.268c0.215-0.229,0.263-0.63,0.535-0.803c-0.088-0.18-0.286-0.25-0.535-0.268
	c-0.302,0.055-0.004,0.71-0.269,0.803c-0.274-0.038-0.268-0.358-0.4-0.535c-0.323-0.053,0.073,0.609-0.403,0.402
	c0-0.179,0-0.359,0-0.536c-1.307-0.013-0.129-1.853-2.142-1.741c-0.04,0.354,0.186,0.439,0.535,0.401
	c-0.327,0.611-0.957-0.357-1.606-0.268c0.286,0.688,0.724,0.844,0.936,1.34c0.579-0.326,1.421,0.229,1.607,1.606
	c-0.023-0.517,0.614-0.24,1.34-0.402c-0.104,0.119-0.144,0.303-0.134,0.535c0.282-0.373,0.687-0.193,1.071,0
	c-0.584,0.388-0.127,0.441,0,1.072c-0.539-0.321-0.974,0.307-1.474-0.402c-0.031,0.451-0.263,0.504-0.268,1.072
	c-0.175-0.048-0.211-0.237-0.402-0.269c-0.095,0.665-0.518,0.395-0.534,0.938c-0.868-0.123-0.038-0.683-0.135-1.205
	c-0.449,0.528-0.286-0.058-0.269-0.67c-0.533-0.133-0.402,0.401-0.936,0.269c-0.098-0.366,0.265-0.27,0.268-0.536
	c-0.048-0.176-0.236-0.211-0.268-0.401c-0.321-0.054,0.073,0.61-0.404,0.401c-0.055-0.279,0.093-0.354,0.136-0.536
	c0.021-0.181-0.746-0.047-0.535,0.401c-0.53-0.139-0.08-0.87,0-1.203c-0.095-0.11-0.742,0.301-0.938-0.269
	c-0.26,0.014,0.208,0.498-0.135,0.67c-0.275-0.038-0.267-0.358-0.401-0.536c-0.354,0.409,0.215,0.586,0,1.071
	c0.353,0.039,0.104-0.52,0.536-0.402c-0.308,0.588-0.058,0.643-0.135,1.071c-0.361-0.218-0.974-0.185-1.071-0.669
	c-0.156,0.021-0.112,0.244-0.134,0.401c-0.456,0.01-0.498-0.395-0.67-0.67c-0.618,0.223,0.203,0.359,0.134,0.804
	c-0.216,0.039-0.23-0.126-0.4-0.134c-0.021,0.333,0.208,0.414,0.267,0.67c0.578,0,1.736-0.479,1.875,0.268
	c-0.384,0.397-0.231-0.335-0.67-0.268c-0.027,0.187-0.197,0.463-0.535,0.669c0.116,0.396,0.201-0.31,0.535-0.134
	c0.102,0.412-0.367,0.258-0.268,0.67c0.211-0.058,0.114-0.421,0.536-0.268c-0.412,0.363,0.732,0.385,0.269,0.803
	c-0.297,0.074-0.191-0.254-0.402-0.268c-0.323,0.107,0.42,0.552,0,0.805c-0.235-0.123-0.245-0.47-0.402-0.67
	c-0.64,0.913,0.521,0.889,1.34,0.67c0.092,0.358-0.277,0.259-0.402,0.401c0.232,0.457,0.967,0.016,1.072,0.803
	c-0.539-0.025-0.549-0.017-0.402,0.401c-0.293,0.025-0.425-0.109-0.401-0.401c-0.554,0.389-0.631,0.625-0.938,1.205
	c0.319,0.352,1.032,0.308,1.206,0.804c-0.294,0.291-0.945,0.661-1.071-0.134c-0.183,0.041-0.111,0.335-0.135,0.535
	c-0.275-0.482-0.657-0.86-1.071-1.205c-0.124,0.099-0.201,0.243-0.268,0.402c-0.099,0.411,0.368,0.257,0.268,0.67
	c-0.291,0.023-0.425-0.111-0.4-0.402c-0.481,0.32,0.394,0.397,0.133,0.938c-0.487,0.162-0.525-0.654-0.536,0.134
	c-0.546,0.134-0.427-1.168-0.803-0.402c0.128-0.969-0.249-0.141-0.267-0.804c-0.214,0.011-0.513-0.063-0.537,0.135
	c-0.478-0.113-0.016-0.33-0.133-0.804c-0.222,0.862-0.42-0.272-0.67,0c-0.299-0.056-0.104-0.711,0-0.804
	c0.421,0.021,0.808,0.004,0.937-0.268c-0.204,0.171-0.925-0.173-1.07,0.268c-0.029-0.78-0.658-0.527-0.67-1.07
	c-0.278,0.033-0.036,0.587-0.268,0.668c-0.391-0.116-0.149-0.199-0.135-0.534c-0.263,0.438-0.356-0.525-0.401,0.133
	c-0.095-0.333-0.168-0.958,0.134-1.338c-0.5-0.143-0.211,0.501-0.67,0.401c-0.044-0.491,0.206-0.688,0.536-0.804
	c-0.087-0.136-0.309-0.138-0.267-0.401c-0.241-0.018-0.284,0.164-0.536,0.134c0.077,0.622-0.184,0.808,0,1.205
	c-0.667-0.235-0.088,0.043-0.403,0.401c-0.194-0.115-0.423-0.2-0.4-0.535c-0.289,0.385,0.309,1.025,0.536,1.338
	c0.391-0.112-0.174-0.336,0-0.668c0.373,0.072,0.813,0.485,0.534,0.803c0.356,0.002,0.766-0.051,0.938,0.134
	c-0.032,0.235-0.229,0.306-0.535,0.268c0.117,0.456,0.632,0.366,0.804,0.268c0.199,0.114,0.288,0.338,0.268,0.67
	c-0.421-0.152-0.326,0.21-0.536,0.269c0.373,0.563,1.42,0.454,2.143,0.67c-0.042,0.181-0.335,0.11-0.534,0.133
	c-0.121,0.433,0.437,0.188,0.534,0.402c-0.034,0.312-0.588,0.077-0.669,0c0.802,0.725,0.199,0.599,1.607,0.401
	c-0.047,0.474-0.352,0.346-0.67,0.269c0.071,0.107,0.139,0.217,0.135,0.401c1.528,0.009,1.048,0.487-0.135,0.134
	c0.138,0.309,0.461,0.432,0.401,0.938c-0.552,0.105-0.252-0.642-0.804-0.536c-0.314,0.003,0.049,0.366,0.269,0.268
	c-0.236,0.44-0.543-0.156-0.669-0.268c-0.281,0.038,0.192,0.358-0.135,0.536c-0.3-0.057-0.428-0.287-0.67-0.401
	c-0.465-0.048-0.509,0.681-0.938,0.267c-0.119,0.875,0.178,0.767,0.537,1.608c-0.884-0.456-1.377-1.301-1.474-2.545
	c-0.18,0.088-0.25,0.287-0.267,0.535c-0.435-0.251,0.015-0.611-0.27-1.071c-0.792,0.927,0.078,1.419,0.27,2.276
	c-0.165-0.059-0.275-0.171-0.27-0.402c0.069,0.573-0.265,1.371,0.536,1.876c-0.113,0.198-0.337,0.287-0.67,0.268
	c-0.056-0.28,0.093-0.355,0.134-0.535c-0.351-0.04-0.104,0.52-0.534,0.401c-0.097-0.41,0.23-0.394,0.134-0.803
	c-0.235-0.13-0.278,0.214-0.67-0.135c0.141-0.524-0.173-0.31-0.134-0.938c-0.152,0.026-0.075,0.134,0,0.134
	c-0.031,0.192-0.4,0.047-0.402,0.269c-0.603-0.338-0.581-0.364-1.339-0.135c0.049-0.487,0.316-0.755,0.805-0.804
	c-0.027-0.107-0.136-0.134-0.136-0.267c-0.031,0.369-0.66,0.142-0.804,0.401c-0.287-0.113-0.215-0.588-0.4-0.803
	c-0.332,0.128,0.185,0.514,0,0.937c-0.559-0.002-0.691,0.131-0.803,0.803c-0.491-0.077,0.303-1.454-0.804-1.205
	c0.103-0.119,0.144-0.302,0.134-0.534c0.188,0.011,0.378,0.021,0.401-0.135c0.392,0.113-0.08,0.431,0,0.669
	c0.758-0.508,0.013-0.717,0-1.473c-0.367,0.835-0.994-0.026-1.205,0.67c-0.199-0.113-0.194-0.432-0.269-0.67
	c-0.154,0.36-0.525,0.197-0.268-0.134c-0.464,0.027-0.278,0.704-0.804,0.671c0.021-0.438,0.31-0.867-0.268-0.938
	c0.173-0.536,0.277,0.036,0.67,0c-0.276-0.205,0.461-0.546,0.938-0.535c-0.033-0.236-0.231-0.306-0.536-0.269
	c0.306-0.223,0.5-0.351,0.268-0.804c-0.433-0.166-0.103,0.434-0.535,0.269c-0.142-1.112,0.46-0.012,0.134-0.938
	c-0.32,0.259-0.407,0.753-0.938,0.804c0.284-0.385,0.353-0.984,0.938-1.071c-0.004-0.13-0.163-0.104-0.268-0.134
	c0.104-0.265,0.469-0.481,0.669-0.269c-0.107-0.462,0.251-0.564,0-0.803c-0.514-0.04-0.775,0.578-1.071,0
	c-0.333,0.387,0.353,0.484,0,1.071c-0.566-0.201-0.799,0.227-1.607,0.804c0.036-0.527-0.051-0.93-0.399-1.072
	c0.436,2.086-0.13-0.27-1.206-0.534c-0.282,0.246,0.693,0.368,0.534,0.937c-0.581-0.256-0.768-0.556-1.071-0.134
	c0.112-0.646-0.168-0.901-0.669-0.937c0.2-0.246,0.56-0.335,0.669-0.67c-0.145-0.085-0.641,0.25-0.267-0.401
	c-0.475,0.116-0.33,0.017-0.804,0.133c0.014,0.475,0.441-0.284,0.401,0.134c-0.025,0.115,0.053,0.127,0.135,0.135
	c-0.16,0.152-0.57,0.61-0.67,0.134c-0.17,0.153-0.453,0.729-0.402,0c-0.183,0.041-0.111,0.336-0.134,0.536
	c-0.165-0.06-0.274-0.173-0.268-0.401c-0.404,0.202,0.111,0.587,0,0.936c-0.276-0.079-0.507-0.207-0.402-0.669
	c-0.479,0.114-0.016,0.329-0.134,0.803c-0.279-0.121-0.407-0.394-0.401-0.803c-0.24,0.578-0.295,0.255-0.535-0.133
	c-0.394,0.357,0.358,0.704,0.267,1.204c-0.483,0.038-0.306-0.586-0.535-0.803c-0.103,0.163,0.11,0.78-0.536,0.4
	c0.251,0.643,1.293,0.495,1.475,1.206c0.383-0.242,1.042-0.206,1.204-0.67c0.419,0.203-0.394,0.578,0,0.804
	c0.305-0.096,0.041-0.764,0.536-0.67c-0.353,0.844,0.817,0.036,1.474,0.268c-0.018,0.496-0.196,0.338-0.537,0.269
	c0.447,0.384,0.818,0.676,0.537,1.205c-0.248-0.02-0.083-0.454-0.269-0.535c-0.203,0.316-0.203,0.494-0.669,0.268
	c0.185,0.305,0.463,0.519,0.669,0.804c-0.316,0.676-0.87-0.138-1.071-0.401c-0.183,0.065,0.435,0.746-0.134,0.937
	c0.201,0.13,0.693-0.284,1.205,0c0.222-0.178,0.207-0.596,0.402-0.804c0.126,0.64,0.763-0.459,0.67,0.402
	c0.193-0.208,0.685-0.118,1.069-0.134c-0.125,0.736-0.124,0.377,0.536,0.535c-0.184,0.424-0.028,0.448,0,0.938
	c-0.675-0.393-0.519,0.021-1.34-0.135c0.483,0.456,1.68,0.196,1.474,1.339c-0.291,0.025-0.425-0.108-0.401-0.401
	c-0.355-0.043,0.125,0.75-0.402,0.535c0-0.179,0-0.356,0-0.535c-0.154,0.33-0.514,0.33-0.67,0c-0.181,0.042-0.109,0.335-0.134,0.535
	c-0.257-0.112-0.36-0.587-0.132-0.804c-0.026-0.107-0.136-0.133-0.136-0.268c-0.178,0.093,0.066,0.358-0.133,0.67
	c-0.191-0.011-0.38-0.022-0.401,0.133c-0.277-0.258-0.255-0.814-0.402-1.204c-0.189,0.257-0.215,0.678-0.535,0.803
	c0.462,0.118,0.459,0.701,0.938,0.804c-0.166,0.406-0.462-0.145-0.804,0c0.227,0.131,0.344,0.37,0.267,0.805
	c-0.347-0.055-0.386-0.417-0.534-0.67c-0.623,0.363,0.469,0.821-0.402,0.937c0-0.312,0-0.625,0-0.937
	c-0.304,0.857-0.891-0.095-0.67-0.537c-0.089,0-0.178,0-0.268,0c-0.129,0.111-0.007,0.992-0.67,0.938
	c-0.077-0.436,0.092-0.623,0.134-0.938c-0.315,0.043-0.078,0.635-0.535,0.537c0.154-0.814-0.11-1.105-0.135-1.741
	c-0.242,0.541-0.129,0.369-0.669,0.401c0.043-0.311-0.021-0.513-0.134-0.668c-0.234,0.282-0.009,0.388,0,0.803
	c-0.402,0.135-0.237-0.299-0.269-0.536c-0.416,0.029-0.225,0.666-0.267,1.071c-0.403-0.247-0.378-0.413-0.804-0.402
	c0.095-0.484,0.403-0.756,0.669-1.07c-0.545,0.035-0.623,0.536-0.803,0.938c-0.218-0.34,0.064-0.996-0.269-1.474
	c-0.58,0.193,0.142,0.299,0,0.804c-0.133,0-0.268,0-0.402,0c-0.017-0.24,0.165-0.283,0.135-0.536
	c-0.322-0.056-0.291,0.244-0.669,0.135c-0.073-0.298,0.256-0.191,0.267-0.402c-0.113-0.393-0.43,0.081-0.669,0
	c0.375-0.897,1.536,0.131,2.009-0.268c-0.039-0.53-0.709,0.103-0.67-0.67c-0.171,0.342-0.655-0.124-0.67,0.135
	c-0.457-0.371,0.084-0.911-0.535-1.072c-0.03,0.548-0.566,0.083-0.401,1.205c-0.255-0.251-0.337-0.014-0.67,0
	c0.097-0.409-0.231-0.394-0.133-0.803c-0.321-0.054,0.073,0.608-0.402,0.401c-0.013-0.219,0.223-0.582,0-0.269
	c-0.247-0.24,0.636-0.635,0.133-1.205c0.422,0.425,0.453-0.227,0.402-0.67c-0.099-0.125-0.243-0.202-0.402-0.266
	c-0.099,0.412,0.462,0.162,0.27,0.668c-0.27,0.254-0.623-0.164-0.67-0.536c-0.235,0.123-0.296,0.419-0.269,0.804
	c0.525-0.673,0.13-0.102,0.269,0.536c0.39-0.117,0.149-0.201,0.133-0.536c0.146,0.034,0.092,0.267,0.268,0.269
	c-0.652,0.66-0.044,1.174-0.133,1.74c-0.157-0.021-0.113-0.244-0.135-0.401c0.305,5.652,0.596,12.326,2.144,17.409
	c0.171-0.184,0.632-0.184,0.803,0c-0.105-0.296-0.468-0.336-0.67-0.537c-0.052-0.319,0.611,0.075,0.402-0.4
	c0.169,0.032,0.136,0.267,0,0.269c0.207,0.238,0.804,0.088,0.938,0.4c0.181-0.091-0.117-0.407,0.268-0.534
	c-0.093-0.335-0.356,0.247-0.669,0.134c-0.015-0.757,0.534-0.119,0.401-0.938c0.709,0.195,1.639-0.589,0.268-0.536
	c-0.161-0.229,1.417-0.282,1.071-0.402c0.043-0.182,0.337-0.11,0.535-0.133c-0.038,0.157-0.538,0.505-0.134,0.669
	c-0.097-0.239,0.454-0.415,0.804-0.134c-0.02,0.332-0.453,0.039-0.535,0c0.162,0.176,0.052,0.21,0,0.401
	c0.102,0.112,0.634,0.027,0.535,0.67c-0.501-0.288-0.456,0.203-0.535,0.67c0.337,0.021,0.419-0.207,0.535-0.401
	c0.18,0.087,0.25,0.285,0.268,0.534c0.108-0.071,0.218-0.14,0.402-0.133c-0.747-0.479,0.525-0.536,0.536-1.071
	c-0.357-0.363-0.621,0.488-0.67-0.402c0.657,0.274,1.051-0.119,0.67-0.67c0.694-0.309,1.313-0.08,1.741,0.134
	c-0.084-0.565-0.298-0.491-0.804-0.401c0-0.134,0-0.268,0-0.402c1.243-0.032,1.407,0.236,1.739,1.206
	c-0.154-0.022-0.237,0.029-0.266,0.134c-0.149-0.121-0.094-0.299,0-0.536c-0.09,0-0.181,0-0.269,0
	c-0.107,0.174-0.062,1.145-0.401,1.474c0.462-0.328,0.737-0.529,1.206-0.134c0.194-0.25,0.536-0.355,0.533-0.804
	c0.315,1.224,0.349,0.645-0.268,1.74c-0.247-0.02-0.082-0.453-0.266-0.534c-0.255,0.1-0.096,0.398-0.404,0.132
	c-0.05,0.409,0.489,0.229,0.538,0.537c-0.333,0.452-1.001,0.153-1.742,0.134c0.232,0.518,1.821,0.271,1.338,1.071
	c-0.613-0.495,0.088,0.169-0.534,0.269c0.113-0.025,0.127,0.051,0.133,0.133c0.364-0.573,1.533-0.341,1.205-1.606
	c0.135,0,0.269,0,0.402,0c0.25,0.236-0.159,0.391,0.134,0.669c0.34-0.151,0.323-0.659,0.804-0.669
	c-0.081,0.68-0.361,0.551-0.536,0.937c0.075,0.303,0.21-0.162,0.402,0.135c0,0.178,0,0.357,0,0.535
	c-0.495-0.256-0.335,0.084-0.536,0.402c0.018,0.296,0.567,0.057,0.804,0.134c0.198-0.115,0.289-0.336,0.268-0.669
	c0.567,0.166,0.304,0.466,1.072,0.267c0.062,0.42-0.36,0.354-0.401,0.67c0.45-0.139,1.136-0.432,1.205,0
	c0.145-0.032,0.091-0.267,0.268-0.268c-0.186-0.216-0.475-0.33-0.401-0.804c0.229-0.05,0.252,0.104,0.267,0.268
	c0.119-0.059,0.24-0.117,0.269-0.268c0.269,0.147-0.164,0.72,0,1.205c0.289,0.022,0.061-0.475,0.135-0.67
	c0.092-0.114,0.431,0.819,0.668,0c0.473,0.231-0.387,0.22-0.134,0.67c0.507,0.113,0.629-0.444,0.938-0.134
	c-0.254,0.395,0.04,0.828-0.135,1.072c0.09,0.179,0.286,0.248,0.536,0.267c-0.088-0.136-0.308-0.138-0.267-0.401
	c0.48,0.177,0.49-0.009,0.937,0.135c-0.088,0.179-0.286,0.248-0.536,0.267c0.294,0.323,1.211-0.346,1.34,0.536
	c-0.342-0.546-1.353,0.292-1.74-0.268c-0.315,0.001,0.048,0.364,0.267,0.268c-0.294,0.503-0.549-0.025-0.937-0.135
	c-0.277,0.146,0.189,0.548-0.134,0.938c-0.636-0.31-0.709-0.354-1.473-0.536c-0.199,0.061,0.052,0.173,0,0.402
	c-0.5,0.013-0.383,0.15-0.804,0c-0.161-0.175-0.054-0.21,0-0.402c-0.506,0.344-1.35,0.348-1.876,0.67
	c-0.471-0.229,0.337-0.269,0.268-0.535c-0.853-0.117-1.782,0.752-2.409-0.401c-0.482,0.36,0.362,0.52,0.269,0.937
	c-0.549-0.323-0.755,0.135-1.341,0.134c0.097-0.304,0.403-0.399,0.671-0.535c-0.268-0.407-1.282-0.132-1.341,0.268
	c-0.342-0.015-0.468-0.244-0.67-0.401c-0.264,0.092-0.306,0.408-0.534,0.535c-0.479-0.574,0.727-0.607,0.804-1.071
	c-0.456-0.355-1.074-0.075-1.741-0.401c0,0.797,1.071-0.118,1.071,0.803c-0.524-0.469-1.267-0.063-1.473-0.668
	c-0.346,0.031,0.185,0.229,0,0.534c-0.552-0.755-1.435-0.333-2.277-0.268c0.062-0.255-0.412-0.577,0.134-0.535
	c-0.973-0.396-0.933,0.493-2.009,0.535c-0.32-0.365-0.062-0.534-0.534-0.803c-0.396,0.116,0.31,0.201,0.133,0.536
	c-0.629,0.085-0.356-0.635-0.938-0.269c0-0.178,0-0.356,0-0.535c-0.251,0.512-0.504,0.036-0.804-0.135
	c0.187,0.171,0.059,0.657,0.402,0.67c-0.273,0.392-0.701-0.182-0.938-0.268c-0.046,0.162-0.137,0.428-0.536,0.135
	c-0.081,0.692,0.589,0.466-0.134,0.936c0.021,0.157,0.245,0.114,0.401,0.134c0.272-0.085,0.089-0.626,0.402-0.668
	c0.499,0.476,0.347,0.278,0.938,0c-0.002,0.399-0.348,0.455-0.401,0.803c0.322,0.056,0.29-0.244,0.669-0.135
	c-0.375-0.245-0.007-0.645,0.402-0.668c-0.174,0.389-0.174,0.949,0,1.338c-0.156-0.021-0.238,0.03-0.268,0.134
	c-0.194-0.028-0.047-0.399-0.269-0.401c-0.611,0.745-2.795-0.564-4.151,0.268c-0.389-0.023-0.323-0.636,0.134-0.535
	c-0.17-0.289-0.799,0.083-0.804,0.401c-0.071-0.199-0.133-0.157-0.268-0.536c-0.436,0.156,0.365,0.711-0.401,0.536
	c0.237,0.209,0.713,0.179,0.536,0.804c0.222-0.224,0.786-0.106,1.205-0.134c-0.752,0.299-1.351,0.366-1.875,0.938
	c0.13-0.755-0.053-1.197-0.669-1.205c0.183-0.181,0.255-0.935-0.134-0.938c-0.366,0.123,0.238,0.47-0.134,0.67
	c-0.408,0.053-0.682-0.352-0.804,0.134c0.229-0.03,0.294,0.753,0.402,0.402c0.317,0.036-0.154,0.357-0.134,0.536
	c-0.249-0.618-0.381-0.359-0.535-1.072c-0.378-0.109-0.347,0.19-0.669,0.134c0.229,0.129,0.269,0.445,0.535,0.536
	c-0.113,0.199-0.43,0.195-0.669,0.269c0.052-0.835-0.829,0.05-0.938-0.67c-0.065,0.438-0.35,0.351-0.401,0.804
	c-0.176-0.136-0.494-0.131-0.669-0.269c0.041-0.315,0.465-0.249,0.401-0.67c-0.76,0.143-0.245,0.888-1.071,1.071
	c-0.092-0.358,0.276-0.258,0.402-0.401c-0.156-0.436-0.711,0.365-0.536-0.401c-0.119,0.104-0.303,0.144-0.536,0.134
	c0.254,0.159,0.311,0.337,0,0.536c-0.436-0.082-0.005-0.394-0.669-0.134c-0.038-0.217,0.126-0.23,0.133-0.402
	c-0.627,0.339-1.476-0.338-1.741,0.402c-0.398-0.315-0.513-0.136-1.071,0c0.057-0.281-0.091-0.355-0.134-0.536
	c0.061,0.57-1.176-0.014-1.741,0.536c-0.094-0.412-0.094-0.257,0-0.67c-0.562,0.354-1.156-0.157-1.741,0.134
	c0.608-0.271,0.41-0.541,0.938-0.804c-0.115,0.428,0.21,0.414,0.267,0.67c0.472-0.269,0.924-0.233,1.339-0.135
	c-0.185-0.384-0.491-0.113-1.071-0.268c-0.29-0.492-0.497-1.079-1.205-0.803c0.148-0.387,0.279-1.276-0.134-1.473
	c0.452,0.036,0.221-0.335,0.669-0.537c-0.31,1.24-0.167,2.355,1.339,1.875c-0.628-0.63-0.254-0.704-0.536-1.473
	c0.515,0.288,0.748,0.859,0.938,1.473c0.478-0.113,0.017-0.329,0.134-0.803c0.259,0.055,0.105,0.519,0.536,0.401
	c0.396-0.115-0.312-0.2-0.134-0.535c1.031-0.021,1.008-0.102,1.205,1.071c-0.178,0-0.357,0-0.535,0
	c0.025,0.108,0.134,0.133,0.133,0.267c0.587-0.35,1.753-0.121,1.607-1.204c-0.246-0.365-0.453,0.43-0.804,0.401
	c-0.136-0.424,0.042-0.743-0.134-1.205c0.156,0.021,0.238-0.029,0.268-0.134c0.49-0.089,0.514,0.29,0.938,0.268
	c-0.131-0.137-0.265-0.271-0.402-0.402c0.092-0.334,0.357,0.248,0.669,0.135c-0.054-0.259-0.519-0.105-0.401-0.536
	c0.147,0.161,0.799,0.571,0.669-0.134c0.518-0.116,0.477,0.327,0.803,0.402c-0.227-0.309-0.337-0.734-0.938-0.669
	c0-0.135,0-0.269,0-0.402c-0.134,0-0.267,0-0.401,0c0.243-0.319,1.048-0.076,1.339,0c-0.203-0.422-0.757-0.493-1.205-0.671
	c0.654-0.381,1.405,0.287,1.606,0.805c0.269-0.442,1.392-1.117,1.473-0.269c0.327-0.073,0.49-0.313,0.669-0.536
	c-0.105-0.34-0.469,0.378-0.669,0c0.145-0.3,0.842-0.051,0.669-0.669c0.175,0.359,0.768,0.304,0.804,0.804
	c1.309-0.572,1.782,0.669,2.276,1.339c0.136-0.086,0.139-0.308,0.402-0.268c-0.321-0.512-0.603-0.831-0.536-1.34
	c0.575,0.371,0.449,0.01,1.205,0c0.095-0.217-0.631-0.217-0.536,0c-0.412-0.176,0.233-0.611,0.401-0.267
	c0.1-0.412-0.367-0.258-0.267-0.669c0.333,0.014,0.414,0.251,0.669,0c-0.172-0.069-0.277-0.143-0.669-0.269
	c0.105-0.471,0.468-0.154,0.669,0c0.017-0.24-0.164-0.283-0.134-0.535c-0.31,0.042-0.514-0.022-0.669-0.134
	c0.322-0.389,0.146-0.518-0.134-0.805c0.2-0.312,0.327-0.204,0.669-0.134c-0.059,0.506,0.264,0.629,0.402,0.938
	c0.008-0.273,0.913-0.32,0.536-0.536c0.536-0.363,0.446,0.949-0.134,0.804c0.112,0.154,0.176,0.358,0.134,0.67
	c0.107-0.072,0.217-0.141,0.401-0.134c1.238,0.087,0.425-5.213,0.268-7.634c-0.253-3.907-0.106-8.598-0.402-11.516
	c-0.208,0.321-0.281,0.571-0.268-0.136c-0.146,0.302-0.364,0.53-0.804,0.536c-0.104-0.119-0.144-0.302-0.133-0.536
	c-0.397,0.195,0.176,0.522,0,0.938c0.29-0.112,0.457-0.346,0.938-0.268c0.024,0.555-0.444,0.406-0.134,0.938
	c-0.364-0.166-0.334-0.516-0.804-0.268c0.162,0.195,0.585,0.129,0.402,0.67c-0.682-0.686-1.021-0.34-1.071-1.206
	c-0.19-0.011-0.379-0.022-0.402,0.134c-0.199-0.202-0.216-0.587-0.268-0.938c-0.397,0.195,0.176,0.522,0,0.938
	c-0.253,0.163-0.001-0.698-0.536-0.134c0-0.312,0-0.624,0-0.937c-0.119,0.06-0.239,0.117-0.268,0.269
	c-0.299-0.059-0.054-0.661-0.134-0.938c-0.136,0.087-0.139,0.309-0.401,0.269c-0.095-0.335,0.589-0.552,0.133-0.804
	c-0.198,0.058,0.054,0.171,0,0.401c-0.364,0.097-0.269-0.267-0.535-0.269c0.327,0.609,0.383,1.492,0.937,1.875
	c0.025,0.114-0.051,0.127-0.134,0.134c0,0.089,0,0.179,0,0.268c-0.3-0.337-0.537-0.242-0.937-0.401
	c-0.062-0.016-0.075,1.048,0.134,1.205c-0.372,0.449-0.647-0.326-0.536-0.804c-0.133,0-0.268,0-0.402,0
	c0.107,0.329,0.23,0.772-0.268,0.804c0.166-0.465,0.033-1.507-0.535-1.339c-0.472-0.229,0.336-0.271,0.268-0.536
	c-0.032-0.396-0.498,0.538-0.669,0c-0.041-0.546,0.185,0.023,0.535-0.133c0.058-0.531-0.308-0.724,0.134-0.938
	c-0.114-0.392-0.337,0.175-0.669,0c0.669,0.596-0.415,0.02,0,0.67c-0.687,0.02-0.272-0.664-0.268-1.071
	c-0.181,0.132-0.174,0.452-0.402,0.536c-0.412,0.1-0.257-0.368-0.67-0.269c0.054-0.258,0.52-0.105,0.402-0.535
	c0.546-0.011,0.969,0.103,1.071,0.535c0.83-0.426,0.011-1.317-0.401-0.67c-0.639-0.449,0.535-1.071,0.669-1.606
	c0.321,0.2,1.409-0.575,1.339-1.205c0.178,0,0.357,0,0.535,0c-0.396,0.436,0.417,0.475,0.402,0.937
	c0.419,0.041-0.34-0.386,0.134-0.401c-0.098-0.125-0.244-0.202-0.402-0.268c0.574-0.31,1.174,0.234,1.474,0
	c-0.541-0.842-1.83-0.937-2.008-2.143c-0.137,0.087-0.139,0.309-0.402,0.269c0-0.179,0-0.357,0-0.535
	c-0.196,0.19-0.519,0.196-0.402-0.269c-0.181,0.171-0.268,0.407-0.402,0c-0.125,0.099-0.203,0.244-0.268,0.401
	c0.087,0.136,0.308,0.139,0.268,0.402c0.679-0.28,0.877,0.727,1.206,1.205c-1.19-0.208-0.822,1.142-1.742,1.204
	c-0.057-0.458,0.401-0.401,0.536-0.668c-0.032-0.235-0.498,0.2-0.669,0.267c-0.122-0.369-0.325-0.657-0.402-1.07
	c-0.457,0.055,0.202,0.734-0.134,0.669c-0.41-0.511-0.104-0.096-0.804-0.267c0.302,0.321,0.314,0.936,1.072,0.802
	c-0.056,0.324,0.244,0.291,0.134,0.67c-0.22-0.221-0.56,0.12-0.536,0.536c-0.402,0.135-0.237-0.299-0.268-0.536
	c-0.279,0.035-0.037,0.589-0.269,0.67c-0.181-0.041-0.111-0.335-0.134-0.536c-0.485,0.716-0.654-0.143-1.071,0.269
	c-0.413-0.336,0.399-0.574,0.402-0.938c-0.333-0.186-0.318-0.38-0.402-0.535c-0.401,0.087,0.128,0.285,0,0.535
	c-0.155-0.022-0.238,0.029-0.267,0.133c-0.407-0.231-0.246-0.798,0.133-1.069c-0.13-0.183-0.357-0.269-0.535-0.402
	c0.12,0.391,0.12,0.412,0,0.804c-0.237-0.534-0.084-1.302-0.67-1.875c0.464,0.466,0.303-0.376,0.67-0.401
	c-0.111-0.089-0.469,0.063-0.67,0.133c-0.393-0.112,0.08-0.431,0-0.67c-0.25,0.389-0.839-0.059-0.536,0.804
	c-0.235-0.033-0.305-0.229-0.268-0.535c-0.119,0.082-0.239,0.161-0.267,0c-0.266,0.716-0.678,1.287-0.536,2.41
	c-0.498-0.302,0.016-1.708,0.268-2.41c-1.186-0.524-0.835,1.373-1.206,2.277c-0.138-0.752-0.041-1.644,0.134-2.411
	c-0.107,0.071-0.217,0.14-0.402,0.134c0.275,0.435-0.956,0.933-0.669,2.009c0.02,0.247,0.454,0.082,0.536,0.269
	c-0.073,0.533-0.073,0.402,0,0.936c-0.273-0.233-0.262,0.101-0.536-0.133c0.186,0.083,0.02,0.516,0.268,0.535
	c-0.927,0.598-1.716,2.354-3.213,2.813c0.114,0.197,0.336,0.287,0.669,0.267c1.187-1.224,2.736-2.085,3.081-4.15
	c0.31-0.239,0.042,0.936,0,1.204c0.344-0.014,0.215-0.499,0.401-0.669c0.166,0.578-0.353,1.36-0.268,2.009
	c-0.476-0.268-0.04-0.613-0.134-1.206c-0.452,0.53-1.199,0.765-0.938,2.009c-0.215-0.131-0.308-0.356-0.133-0.535
	c-0.831,0.019-0.369,1.328-0.67,1.876c0.473,0.726,0.655-0.759,1.205-0.804c0.102,0.301-0.009,0.68,0.67,0.668
	c-0.416,0.869-0.314,0.378-0.536,1.34c-0.082-0.186-0.516-0.021-0.536-0.269c-0.244,0.217,0.095,0.425-0.267,0.67
	c0.534,0.133,0.403-0.399,0.937-0.268c-0.183,0.585,0.519,0.285,0.402,0.803c-0.25-0.262-0.49-0.041-0.803,0
	c0.208,0.099,0.758,0.939,0.401,0.402c0.034,0.437-0.56,0.315-0.268,0.938c-0.417,0-0.925-0.264-0.669-0.536
	c-0.156,0.023-0.239-0.029-0.268-0.134c-0.015,0.207-0.321,0.223-0.268,0.804c0.627-0.389,0.316,0.68,1.071,0.537
	c0,0.176,0,0.356,0,0.535c-0.334-0.069-0.447-0.357-0.803-0.402c-0.013-0.365,0.223-0.27,0-0.536
	c-0.546-0.025-0.597,0.913-0.804,0.135c-0.355-0.043,0.125,0.75-0.402,0.535c-0.078-0.752,0.036-0.861-0.134-1.474
	c-0.29-0.021-0.061,0.476-0.134,0.67c-0.309,0.041-0.149-0.387-0.401-0.401c-0.133,0.224,0.166,0.359,0.133,0.804
	c-0.193-0.075-0.327-0.209-0.401-0.402c-0.101,0.116-0.004,0.774-0.536,0.804c-0.042-0.584,0.396-0.597,0.134-1.071
	c-0.259,0.054-0.106,0.519-0.536,0.401c-0.212-0.925,0.849-0.38,1.072-0.938c-0.539,0.607-0.857-1.445,0.134-0.937
	c-0.441-0.158-0.115-0.711,0-1.072c-0.219,0.406-0.788,0.463-0.669,1.206c-0.684-0.676-0.641,0.644-1.206,0
	c-0.295,0.017-0.057,0.567-0.134,0.803c-0.164-0.058-0.275-0.17-0.268-0.401c-0.299,0.098-0.065,0.764,0.268,0.67
	c-0.339,0.31-0.105,0.684-0.268,0.938c0.095,0.351,0.629,0.264,0.804,0.536c-0.152,0.42,0.038,0.354-0.134,0.668
	c-0.145-0.032-0.09-0.266-0.268-0.267c-0.257,0.015,0.158,0.448,0,0.803c-0.157-0.021-0.113-0.244-0.134-0.401
	c-0.155-0.021-0.239,0.029-0.268,0.134c-0.326-0.165-0.016-0.806,0.134-0.937c-0.019-0.384-0.559-0.245-0.937-0.269
	c0.038,0.364,0.49,0.313,0.536,0.67c-0.114,0.288-0.588,0.216-0.804,0.401c0.679,0.064,0.772,0.81,1.606,0.535
	c-0.11,0.379,0.189,0.348,0.134,0.67c-0.664-0.229-0.447-0.24-0.937,0.134c0.112-0.859-0.905,0.259-0.67-0.804
	c-0.271,0.141-0.453,0.704-0.536,0c-0.393,0.114,0.08,0.432,0,0.67c-0.155,0.168-0.874,0.307-0.669-0.269
	c-0.291-0.021-0.061,0.475-0.134,0.67c-0.416-0.014-0.382,0.421-0.937,0.269c-0.037-0.306,0.032-0.504,0.268-0.536
	c-0.737-0.138-0.202-0.757-1.072-0.804c0.035-0.815-0.166-0.612-0.67-0.937c0.311,0.081,0.373,0.702,0.134,0.937
	c-0.181,0.022-0.173-0.774-0.402-0.269c-0.392-0.113,0.174-0.336,0-0.668c-0.247,0.02-0.083,0.453-0.267,0.535
	c-0.399,0.033-0.475-0.943-0.938-0.402c-0.409-0.332,0.428-0.544,0.269-1.07c-0.033-0.236-0.231-0.306-0.537-0.269
	c0.023-0.485,0.314-0.476,0-0.938c0.463-0.109,0.565,0.251,0.804,0c-0.1-0.302-0.751-0.052-1.072-0.133
	c0.049-0.229-0.104-0.254-0.268-0.269c0.431-0.59,1.65,0.607,2.276,0.269c0.405,0.201-0.658,0.04-0.4,0.535
	c0.339-0.549,0.322,0.152,0.802-0.134c-0.038,0.662,0.602,0.648,0.67,1.205c0.457-0.053,0.221-0.413,0.536,0
	c0.002-0.323-1.028-1.041,0.134-1.34c-0.261-0.464-0.535,0.163-0.804,0.135c0-0.438,1.036-0.683,0.402-0.938
	c-0.053-0.259,0.61-0.195,0.402,0.135c0.182-0.042,0.111-0.336,0.134-0.536c-1.657,0.473-0.145-0.663,0.134,0.269
	c0.279,0.057,0.354-0.093,0.535-0.134c-0.356-0.046-0.306-0.497-0.669-0.536c0.232-0.229,0.351,0.021,0.803-0.134
	c0.124,0.68,0.354,0.781-0.134,1.205c0.825-0.354,0.797-0.769,1.339-0.938c-0.556-0.187-0.182-0.471-0.536-0.804
	c-0.119,0.121-0.024,0.396-0.134,0.804c-0.219-0.447-0.096-0.84-0.804-0.536c0.172-0.541,0.895-0.533,0.938-1.204
	c-0.144-0.307-0.503,0.288-0.67,0.4c-0.222-0.518,0.163-0.627-0.535-0.669c0.045-0.473,0.368-0.329,0.133-0.804
	c0.33,0.019,0.646,0.021,0.803-0.133c-0.324-0.268-0.134-0.211-0.268-0.67c-0.199,0.112-0.193,0.43-0.268,0.67
	c-0.363-0.245,0.074-0.809,0.134-1.072c-0.003-0.13-0.164-0.104-0.268-0.134c-0.246,1.181-0.635,0.357-1.339,1.071
	c0.015-0.333,0.251-0.414,0-0.669c-0.36-0.093-0.258,0.276-0.402,0.401c-0.361-0.242,0.391-0.491,0.134-1.071
	c0.266,0.001,0.17,0.365,0.536,0.268c0.1-0.606-0.368,0.205-0.268-0.401c-0.353-0.041-0.439,0.187-0.402,0.535
	c-0.402-0.044-0.157-0.735-0.536-0.804c-0.401,0.089,0.128,0.287,0,0.536c-0.406,0.049-0.278-0.437-0.402-0.67
	c0.974,0.016,0.395-0.81,0.669-1.339c0.914,0.453-0.416-0.604,0.402-0.803c-0.031-0.347-0.23,0.184-0.535,0
	c-0.023-0.38,0.453-0.262,0.268-0.804c0.223,0,0.447,0,0.67,0c-0.042-0.183-0.335-0.111-0.536-0.134
	c0.25-0.381,0.443-0.192,0.268-0.804c0.255-0.251,0.243,0.079,0.67,0c0.182-0.042,0.11-0.336,0.134-0.536
	c-0.077,0.411-0.7,0.466-0.804-0.134c-0.217,0.248-0.491,0.637-0.134,0.938c-1.447,0.575-0.514,1.954-1.204,3.213
	c-0.183-0.04-0.112-0.335-0.134-0.535c-0.856,0.127-0.863,1.103-1.206,1.741c0.329-0.34,0.771-0.568,0.938-1.071
	c0.338,0.833-1.135,1.005-1.34,1.74c-0.595-0.234,0.337-0.669,0.401-1.07c-0.122-0.363-0.249,0.356-0.669,0.134
	c0.145-0.27,1.309-0.944,0.402-0.67c0.107-0.25,0.224-0.491,0.268-0.804c-0.288,0.114-0.215,0.588-0.401,0.804
	c-0.248-0.02-0.082-0.452-0.268-0.535c-0.222,0.135-0.145,0.569-0.267,0.803c-0.379-0.291-0.201-1.138-0.804-1.205
	c0.42-0.612,0.743-0.499,1.205-1.07c-0.193-0.367-0.644-0.07-0.937-0.536c0.024,0.114-0.053,0.126-0.134,0.134
	c0.151,0.161,0.382,0.242,0.268,0.67c-0.535,0.132-0.571,0.502-0.67,1.07c-0.082-0.038-0.516-0.332-0.536,0
	c-0.205-0.188-0.38-0.693-0.134-0.937c-0.165,0.059-0.275,0.172-0.268,0.401c-0.298-0.056-0.105-0.71,0-0.803
	c-0.059-0.119-0.117-0.24-0.268-0.269c-0.354,0.834-0.546,1.07-0.268,1.874c-0.756-0.087-0.844,0.496-1.071,0.938
	c-0.272-0.13-0.29-0.515-0.268-0.938c-0.43,0.062-0.46,0.522-0.669,0.805c-0.362-0.371,0.223-0.932,0.402-1.206
	c-0.058-0.21-0.421-0.113-0.268-0.534c-0.526,0.531-0.588-0.188-0.937-0.536c0.199-0.158,0.157-0.557,0.536-0.536
	c-0.012,0.189-0.022,0.38,0.133,0.402c-0.103-0.862,0.935-0.583,0.938-1.339c-0.101,0.09-0.425,0.563-0.402,0
	c-0.552-0.106-0.251,0.64-0.803,0.535c-0.128-0.751-0.279-0.671-0.401-1.339c-0.305,0.096-0.04,0.764-0.536,0.669
	c0.097-0.409-0.136-0.488-0.134-0.804C9.253,65.844,9.161,66.197,9,66.483c-0.799-0.611,0.768-0.841,0.67-1.607
	c0.194-0.072,0.692,0.156,0.67-0.134c0.18,0.088,0.249,0.287,0.268,0.536c-0.155,0.112-0.359,0.177-0.669,0.134
	c1.018,0.076,0.396,0.259,0.937,0.804c0.384-0.604-0.205-1.109,0-1.474c0.457-0.099,0.221,0.495,0.536,0.536
	c-0.469,0.409,0.112,0.599,0.134,1.205c0.328-0.085,0.021-0.626-0.134-0.669c0.712-0.288-0.014-0.89,0.67-1.206
	c-0.335-0.353-0.755-0.124-1.473-0.268c0-0.269,0-0.536,0-0.803c0.334-0.097,0.55,0.588,0.803,0.134
	c0.334,0.055,0.008,0.519-0.268,0.4c0.236,0.524,0.87-0.354,0.401-0.534c0.694-0.217,0.487,0.907,0.938,1.472
	c-0.179,0-0.357,0-0.536,0c0.644,0.584,0.711-0.504,0.938-0.134c0.218-0.015-0.128-0.571-0.402-0.535
	c0.104-0.118,0.144-0.302,0.134-0.536c0.976-0.128,1.099,0.596,1.874,0.67c-0.201-0.245-0.578-0.315-0.803-0.535
	c0.538-0.292,0.779-0.141,1.339-0.268c-0.384-0.311-0.744-0.245-1.072,0c0.063-0.287-0.191-0.255-0.402-0.269
	c-0.012-0.365,0.223-0.27,0-0.535c-0.267,0.135-0.211,0.592-0.669,0.535c-0.024-0.471,0.452-0.44,0.535-0.804
	c0.315,0.042,0.503,0.211,0.938,0.134c0.062,0.286-0.191,0.256-0.402,0.269c0.035,0.312,0.589,0.077,0.67,0
	c-0.075-0.328-0.518-0.285-0.402-0.804c0.13,0.004,0.104,0.163,0.134,0.269c0.502-0.144,1.507-1.312,2.009-0.537
	c-0.24,0.018-0.283-0.164-0.536-0.133c0.09,0.329,0.832,0.357,0.402,0.803c0.294-0.361,0.445-0.036,0.804-0.268
	c-0.024-0.215-0.637,0.219-0.537-0.402c0.108,0.072,0.217,0.14,0.402,0.135c0.197-0.51-0.599-0.026-0.402-0.536
	c0.45,0.275,0.07-0.442,0.268-0.938c0.497,0.017,0.337,0.195,0.269,0.536c0.369-0.381,0.408,0.16,0.535,0.401
	c0.202-0.116-0.037-0.2,0.134-0.535c-0.022-0.157-0.244-0.113-0.402-0.134c-0.056-0.458,0.401-0.402,0.536-0.67
	c-0.1-0.125-0.245-0.202-0.402-0.269c-0.21,0.048,0.116,0.236-0.134,0.269c-0.771-0.125,0.282-0.858,0.536-0.402
	c0.425-0.305-0.174-0.71-0.134-1.07c0.541,0.078,0.508-0.45,1.071-0.134c-0.033,0.145-0.266,0.09-0.268,0.267
	c0.02,0.301,0.337-0.173,0.669,0c-0.087-0.136-0.308-0.139-0.268-0.401c0.542,0.186,0.424-0.29,0.804-0.267
	c-0.02-0.248-0.453-0.083-0.536-0.269c-0.127,0.216-0.066,0.697-0.536,0.402c-0.016-0.384,0.791-0.627,0.268-1.072
	c-0.252,0.238-0.099,0.884-0.67,0.804c-0.115-0.661-0.589-0.739-1.071-0.401c0.017-0.34,0.195-0.521,0.536-0.536
	c-0.042-0.182-0.336-0.111-0.536-0.134c0.371-0.697,0.671-0.374,1.071-0.669c-0.222-0.268,0.013-0.171,0-0.536
	c-0.229-0.007-0.346,0.099-0.4,0.268c-0.389-0.188,0.038-0.661,0.133-0.804c0.118-0.43-0.347-0.277-0.401-0.535
	c-0.396,0.115,0.311,0.2,0.134,0.535c-0.168-0.187-0.757-0.059-0.402-0.401c-0.42,0.092-0.175,0.356-0.134,0.669
	c-0.494-0.454-0.583,0.309-0.803,0.536c-0.108-0.07-0.218-0.14-0.402-0.134c-0.001-0.727,0.109-1.059-0.401-1.34
	c0.279-0.265,0.544-0.444,0.937-0.267c-0.051-0.778-0.869-0.05-0.803-0.803c-0.18,0.087-0.249,0.286-0.267,0.535
	c-0.312-0.038-0.308-0.359-0.134-0.535c-0.6,0.219-0.198,1.053-0.804,1.471c-0.209-0.27,0.855-1.664-0.268-1.739
	c0.765,0.486-0.144,0.895-0.268,1.606c-0.559-0.229-0.927-0.125-0.669,0.535c-0.726,0.039,0.035-0.631-0.669-0.669
	c0.328-0.453,0.233-1.053-0.536-1.071c0.039-0.272,0.362-0.262,0.402-0.536c0.065-0.338-0.665,0.373-0.536-0.267
	c1.575-0.019,2.066-0.167,3.214-0.804c-0.348,0.007-0.592-0.152-0.804,0.134c-0.264-0.093-0.357-0.358-0.402-0.671
	c-0.428,0.362,0.373,0.52,0,0.938c-0.255-0.251-0.336-0.015-0.669,0c-0.037-0.724-0.113-0.71,0.133-1.205
	c-0.393,0.093-0.394,0.448-0.669,0c-0.13,0.52-0.462,0.327-0.535,0.669c-0.275,0.117-0.268-0.682-0.402-0.268
	c-0.541-0.234,0.706-0.895-0.268-0.805c0.324-0.254,0.206-0.954,0.804-0.936c0.066-0.42-0.462-0.354-0.133-0.67
	c0.304,0.097,0.684,0.12,0.937,0.268c-0.054,0.679,0.292,0.957,0.669,1.205c0.391-0.188-0.237-0.461-0.133-0.803
	c0.938-0.339,2.018,0.978,1.741-0.134c-0.247,0.289-0.335,0.261-0.67,0.134c0.549-0.13,0.064-0.462,0.67-0.536
	c-0.084-0.273-0.677-0.038-0.536-0.536c1.303,0.199,1.844-0.215,1.875-1.072c-0.041-0.181-0.335-0.11-0.536-0.133
	c0-0.178,0-0.357,0-0.535c0.99-0.097,0.69,1.095,1.741,0.937c0.006-0.229-0.099-0.347-0.267-0.401
	c0.476-0.467,0.831,0.323,1.205,0.401c0.022-0.122-0.362-1.079-0.536-0.803c-0.362-0.384,0.232-0.302,0.402-0.401
	c0.043-0.355-0.75,0.125-0.536-0.402c0.324-0.055,0.292,0.245,0.67,0.133c-0.309-0.226-0.388-0.683-0.401-1.205
	c0.567-0.191,0.772-0.747,1.339-0.937c-0.075-0.354-0.776,0.299-0.402-0.269c-0.677,0.089-0.013,0.072-0.268,0.67
	c-0.125-0.143-0.494-0.042-0.402-0.401c-0.291-0.023-0.061,0.475-0.134,0.668c-0.228-0.048-0.252,0.106-0.268,0.269
	c-0.494-0.255-0.688,0.048-0.937,0.133c-0.211-0.057-0.115-0.42-0.536-0.267c0.058-0.255,0.289-0.336,0.268-0.67
	c-0.496,0.198-0.231,0.286-0.536-0.133c-0.248,0.02-0.082,0.453-0.268,0.535c-0.45-0.123-0.067-0.249-0.134-0.669
	c0.176-0.161,0.21-0.054,0.402,0c-0.022-0.157,0.03-0.239,0.134-0.268c-0.075-0.303-0.208,0.163-0.401-0.133
	c-0.181,0.131-0.268,0.356-0.402,0.535c-0.25-0.489-0.158-0.282-0.669-0.134c0.563-0.725-0.486-0.337-0.134-0.938
	c0.147-0.53,0.771,0.244,0.669-0.535c0.199,0.069,0.337,0.198,0.536,0.267c0.395-0.116-0.311-0.2-0.134-0.535
	c0.408-0.242,0.784,0.5,1.339,0.535c-0.019-0.249-0.088-0.447-0.268-0.535c0.164-0.406,0.511,0.094,0.669,0.134
	c-0.492-0.779-0.086-0.42-0.133-0.804c-0.474,0.02-0.599,0.384-1.072,0.402c0.035-0.393-0.303-0.412-0.268-0.804
	c0.791,0.451,0.854-0.887,1.34,0.135c0.327-0.016,0.027-0.443-0.134-0.403c0.052-0.297,0.834-0.127,0.401,0.134
	c1.569-0.487,2.076-2.589,3.348-3.75c0-0.268,0-0.535,0-0.803c-0.681,0.496-1.042,1.011-1.205,1.74
	c-0.366,0.098-0.271-0.266-0.536-0.267c-0.5,0.215-0.611,0.818-0.938,1.205c-0.325-0.078-0.297-0.506-0.402-0.803
	c-0.337,0.243-0.332,0.828-0.669,1.071c0.17-0.046,0.895-0.076,0.803,0.804c-0.365,0.097-0.27-0.268-0.536-0.268
	c-0.11,0.378,0.189,0.347,0.134,0.67c-0.47,0.022-0.44-0.453-0.803-0.537c-0.612,0.415-0.784,1.271-1.741,1.34
	c0.055,0.259,0.519,0.105,0.401,0.536c-0.646-0.104-0.609,0.657-1.205,0.803c-0.057-0.279,0.092-0.354,0.134-0.535
	c-0.259,0.271-0.71,0.143-0.536-0.402c-0.366,0.125-0.341,0.641-0.804,0.67c-0.023-0.514,0.463-0.52,0.536-0.938
	c-0.404,0.087-0.456,0.525-0.803,0.67c-0.401-0.089,0.128-0.286,0-0.536c-0.131-0.217-0.357-0.309-0.536-0.134
	c0.181,0.369,0.462,1.04-0.133,1.473c0.042-0.41,0.146-0.944-0.269-1.473c-0.181,0.041-0.111,0.335-0.133,0.536
	c-0.286,0.062-0.255-0.192-0.269-0.402c-0.398,0.002-0.171,0.631-0.402,0.804c-0.858-0.234-0.361,0.407-1.205,0.4
	c-0.03-0.237,0.135-0.67-0.268-0.535c0.094-0.48,0.61-0.169,0.67,0.134c0.125-0.098,0.202-0.244,0.267-0.402
	c-0.087-0.137-0.308-0.139-0.267-0.402c0.378-0.111,0.347,0.188,0.669,0.134c0.182-0.131,0.174-0.451,0.402-0.535
	c-0.361-0.097-0.469,0.415-0.938-0.135c0.763-0.289,2.617-0.701,3.75-1.072c-0.517-0.269-0.539-0.101-0.134-0.535
	c-0.393,0.009-0.497,0.306-0.67,0.535c-0.267-0.409-0.625,0.173-1.338-0.133c0.555-1.108,2.093-0.47,2.143-2.144
	c-0.032-0.345-0.23,0.185-0.536,0c0.265,0.312,0.265,0.359,0,0.67c-0.198-0.188-0.288-0.427-0.268,0.135
	c-0.278-0.075-0.283-0.21-0.133-0.403c-0.192,0.364-0.515,0.308-0.67,0.938c-0.453-0.39-1.115,0.546-0.803-0.402
	c-0.18,0.169-0.264,0.402-0.537,0.134c-0.181,0.042-0.111,0.336-0.134,0.536c-0.449-0.123-0.066-0.25-0.134-0.67
	c-0.342,0.149-0.573,0.409-0.669,0.804c-0.57-0.172-0.008-0.686,0.267-0.804c-0.036-0.316-0.499,0.012-0.535,0.134
	c-0.448-0.287,0.53-0.261,0.401-0.67c-0.445,0.108-0.725,0.886-1.205,0.536c0.016-0.476,0.53-0.452,0.804-0.67
	c-0.071-0.108-0.14-0.217-0.134-0.401c-0.408-0.039-0.915,0.021-0.938-0.402c0.481-0.079,0.648,0.155,0.938,0.268
	c0.318-0.04-0.149-0.363-0.268-0.401c0.749-0.142,1.531,0.303,2.276-0.135c0.01-0.677-0.508-0.429-0.938-0.402
	c0.084-0.753,0.858-0.124,1.206-0.402c-0.351-0.393-0.581-0.071-1.206-0.133c-0.137-0.45,0.417-0.208,0.67-0.268
	c-0.071-0.108-0.14-0.217-0.134-0.401c-0.851,0.068-0.44,0.875-0.803,1.205c-0.251-0.34-0.285-0.062-0.536-0.402
	c-0.273,0.085-0.038,0.677-0.536,0.537c-0.042-0.311,0.022-0.515,0.134-0.67c-0.319,0.083-0.22,0.584-0.804,0.402
	c0.021-0.681,1.224-0.479,1.072-0.938c0.285-0.062,0.255,0.192,0.268,0.402c0.159-0.318,1.119-1.148,1.741-0.535
	c0.544,0.053,0.412-0.571,0.803-0.67c-0.662,0.058,0.055-0.531-0.803-0.536c-0.084-0.559,0.36-0.668-0.402-0.938
	c0.185-0.398,1.229-0.018,0.804-0.668c0.829,0.284,0.994-0.118,1.606,0.402c0.199-0.059-0.053-0.172,0-0.402
	c0.552,0.072,0.88,0.37,1.072,0.803c0.34-0.238,1.226-0.032,1.606-0.537c-0.02-0.298-0.337,0.175-0.67,0
	c-0.099-0.456,0.494-0.221,0.537-0.535c-0.194-0.171-0.299,0.235-0.804,0c0.097-0.409-0.137-0.488-0.134-0.804
	c0.421,0.067,0.524-0.291,0.804,0c-0.089-0.691-0.732-0.046-1.206-0.402c0.231-0.284,1.019-0.403,1.206,0
	c0.375-0.131-0.194-0.356,0.134-0.536c0.36-0.091,0.259,0.278,0.402,0.402c0.382-0.734,1.026-0.096,1.606,0.134
	c-0.191,0.684,0.41,0.573,0.536,0.937c0.345-0.031-0.184-0.23,0-0.535c0.286-0.063,0.255,0.192,0.268,0.402
	c0.376-0.135-0.037-0.569,0-0.804c0.297,0.075,0.19-0.256,0.402-0.268c0.582,0.292,0.723,1.188,1.339,1.072
	c-0.004-0.175,0.047-0.907-0.402-1.205c0.266-0.441,0.888-0.318,1.339-0.268c0.067-0.557,0.815-0.435,0.803-1.071
	c-0.196,0.774-0.7-0.164-0.803,0.402c-0.259-0.684,0.379-1.16,0.669-1.875c0.452,0.237,0.597-0.181,1.072-0.268
	c-0.14-0.926-0.663,0.166-0.67-0.804c-0.569,0.558-1.318,1.169-1.205,2.144c-0.349,0.157-0.627-0.319-0.669,0.535
	c-0.291,0.023-0.061-0.476-0.134-0.67c-0.199,0.114-0.194,0.431-0.269,0.67c-0.263-0.105-0.481-0.469-0.268-0.67
	c-0.549,0.108,0.07,0.551-0.268,0.803c-0.18-0.087-0.249-0.286-0.268-0.535c-0.366,0.122,0.238,0.469-0.133,0.67
	c-0.18-0.088-0.25-0.286-0.268-0.536c-0.142,0.764-1.127,0.438-1.474,0.803c-0.411,0.101-0.257-0.368-0.669-0.267
	c0.615,0.333-0.312,0.37-0.401,0c-0.044-0.492,0.148-0.745,0.269-1.071c0.36,0.146,0.686,0.024,1.07-0.135
	c-0.224,0-0.886-0.36-1.07-0.401c-0.129,0.11,0.041,1.038-0.67,0.938c0.111-0.335,0.367-0.526,0.402-0.938
	c-0.286-0.062-0.255,0.191-0.268,0.401c-0.701-0.404,0.658-0.481,0.402-0.937c0.216-0.038,0.23,0.126,0.401,0.134
	c-0.181-0.604,0.748-0.393,0.803-0.938c0.439,0.007,0.512,0.381,1.072,0.269c-0.579-0.271-0.216-0.488,0-0.938
	c0.165,0.059,0.275,0.171,0.268,0.402c0.575-0.016-0.226-0.571,0.401-0.535c-0.087-0.402-0.286,0.127-0.535,0
	c-0.004-0.711,0.708-0.5,0.535-1.072c0.31,0.045,0.679,0.137,0.402,0.402c0.12-0.06,0.24-0.118,0.268-0.268
	c-0.191-0.299-0.532-0.449-0.535-0.938c-0.187,0.5-0.759-0.162-0.669,0.67c-0.611-0.057-0.566-0.37-1.206-0.134
	c0.13,0.437,1.267-0.117,1.206,0.803c-0.714-0.311-0.357,0.316-1.072,0.269c-0.223-0.266,0.013-0.17,0-0.536
	c-0.561-0.05-0.095,0.436-0.134,0.668c-0.965-0.405-1.106,0.227-1.606-0.402c-0.182,0.043-0.111,0.336-0.134,0.537
	c-0.156-0.022-0.238,0.029-0.268,0.133c-0.16-0.289-0.641-0.659-0.402-0.937c-0.119,0.103-0.302,0.143-0.535,0.134
	c-0.085-0.292,0.379-0.426-0.134-0.402c0.24-0.242,0.767-0.64,1.072-0.402c-0.002-0.266-0.366-0.17-0.268-0.536
	c-0.38-0.022-0.261,0.454-0.804,0.268c0.117-0.195,0.201-0.425,0.536-0.402c-0.431-0.377-1.215,0.029-1.741,0
	c1.063-0.488,2.334-0.437,3.214-0.803c0.057,0.256,0.382,0.243,0.267,0.669c0.26-0.188,0.862-0.438,1.205-0.134
	c-0.692,0.33-0.339,0.169-0.268,0.938c0.108-0.025,0.134-0.135,0.268-0.134c-0.507-0.117,0.148-1.194,0.536-0.804
	c0.017-0.239-0.165-0.282-0.134-0.535c-0.333,0.683-0.612-0.453-0.67,0.133c-0.495-0.278,0.407-0.564,0-0.803
	c-0.364,0.261-0.505,0.745-1.071,0.803c-0.057-0.3-0.287-0.426-0.401-0.668c0.122-0.326,0.539-0.355,0.938-0.402
	c-0.041-0.182-0.335-0.112-0.536-0.135c0.36-0.442,1.305-0.302,1.206-1.205c0.835,0.082,1.182-0.341,1.473,0.133
	c0.229-0.042-0.123-0.414,0.268-0.535c-0.105-0.34-0.468,0.376-0.669,0c0.284-0.501,0.927-0.124,1.473-0.134
	c-0.572-0.5-1.076-1.068-2.009-1.206c0.114,0.2,0.432,0.194,0.67,0.27c-0.399,0.191-0.009,0.336-0.268,0.668
	c-0.338-0.033-0.555-0.395-0.268-0.668c-0.108,0.07-0.217,0.139-0.402,0.133c0.553,0.825-0.254,0.506,0,1.07
	c-0.894,0.175-1.354,0.424-2.277,0.938c-0.124-0.742,0.054-1.164,1.071-1.473c0.058-0.28-0.091-0.354-0.133-0.535
	c-0.531,0.635-0.733,0.108-1.071,1.07c-0.129-0.385-0.445-0.087-0.537-0.267c-0.344,0.032,0.184,0.23,0,0.536
	c-0.626-0.693-0.048-1.091-0.401-1.875c0.337-0.107,0.533-0.359,0.804-0.535c-0.165-0.407-0.461,0.144-0.804,0
	c0.071-0.108,0.14-0.218,0.134-0.402c0.42-0.068,0.547,0.315,0.67-0.134c0.157,0.021,0.113,0.244,0.134,0.402
	c0.326-0.523,1.017-0.679,1.606-0.938c-0.317-0.244-0.543-0.045-0.937,0.135c-0.098-0.367,0.266-0.271,0.267-0.537
	c-0.409,0.009-0.698,0.492-1.071,0.135c0.826-0.736,1.153-0.367,2.276-0.805c-0.236-0.282-0.302-0.396-0.134-0.803
	c0.398-0.028,0.473,0.479,0.268,0.67c0.273-0.427,1.11-0.592,1.607-0.401c0.066,0.422-0.773,0.261-0.134,0.535
	c-0.171,0.39-0.646,0.076-0.134,0.537c0.23-0.172,0.27-0.535,0.536-0.67c0.102,0.21,0.425,0.2,0.402,0.535
	c-0.217,0.039-0.23-0.126-0.402-0.134c0.183,0.394,0.364,0.455,0,0.804c0.933-0.103,0.779-1.039,1.474-0.937
	c-0.058-0.479-0.625-0.448-0.536-1.072c-0.274,0.083-0.038,0.676-0.536,0.535c-0.156-0.198-0.156-0.338,0-0.535
	c-0.434-0.166-0.102,0.433-0.536,0.268c-0.017-0.241,0.165-0.283,0.134-0.536c-0.117-0.396-0.201,0.311-0.536,0.134
	c-0.334-0.712,0.471-1.993,1.34-1.608c-0.151-0.42,0.038-0.353-0.134-0.668c-0.125,0.142-0.495,0.042-0.402,0.402
	c-0.922-0.377-0.917-0.695-1.473,0c-0.143-0.501,0.333-0.382,0.268-0.804c-0.138,0.13-0.271,0.265-0.402,0.402
	c-0.182-0.042-0.111-0.336-0.134-0.537c0.235,0.078,0.787-0.161,0.803,0.135c-0.146-0.432,0.221-0.422,0.134-0.938
	c0.214-0.493-0.03,0.542,0.402,0.268c0.364-0.122-0.357-0.249-0.134-0.669c0.468,0.066,0.674,0.468,0.804-0.134
	c0.145,0.301,0.645,0.248,0.536,0.803c0.469-0.12,0.44,0.026,0.803-0.268c-0.701-0.081-0.176-0.602-0.937-0.67
	c0.201-0.157,0.328-0.386,0.669-0.401c0.038,0.217-0.126,0.23-0.133,0.401c0.201,0.288,0.327-0.096,0.669,0.135
	c-0.099-0.125-0.244-0.203-0.402-0.268c0.098-0.272,0.883-0.407,1.071,0c0.302-0.075-0.163-0.209,0.134-0.402
	c0.179,0,0.357,0,0.536,0c0.043,0.311-0.021,0.515-0.134,0.67c0.427,0.009,0.295-0.895,0.803-0.402
	c-0.291,0.43-0.225,0.46,0.268,0.668c0.346-0.031-0.184-0.229,0-0.535c0.413,0.441,0.756,1.441,0.536,1.875c0.179,0,0.357,0,0.536,0
	c-0.278-0.487,0-0.269,0.402-0.402c-0.054-0.258-0.614-0.012-0.402-0.537c-0.322-0.052,0.074,0.61-0.402,0.402
	c0.045-0.535-0.172-1.333,0.402-1.338c-0.833-0.757,0.597-1.494,0.804-1.875c-0.111-0.281-0.552-0.521-0.269-0.803
	c0.213,0.303,0.558,0.951,1.071,0.535c-0.03-0.193-0.4-0.046-0.401-0.267c-0.138-0.451,0.417-0.209,0.669-0.268
	c-0.07,0.108-0.14,0.217-0.134,0.402c1.511-0.239,2.772,0.577,3.215,1.205c0.107-0.07,0.217-0.139,0.401-0.134
	c0.073-0.194-0.157-0.692,0.134-0.67c-0.167-0.382-0.389,0.583-0.669,0.134c0.331-0.468-0.418-0.421,0.134-0.668
	c-0.186-0.039-0.853-0.036-1.34-0.135c-0.227-0.914-1.458-0.324-1.607-1.473c-0.196,0.116-0.425,0.201-0.402,0.536
	c-0.238-0.098-0.019-0.244,0-0.402c-0.45-0.138-0.208,0.417-0.268,0.67c-0.593-0.454-0.106,0.129-0.803,0.134
	c0.003-0.13,0.164-0.104,0.269-0.134c0.065-0.422-0.412-0.303-0.269-0.804c0.24-0.018,0.282,0.165,0.536,0.134
	c-0.246-0.467-0.025-0.568,0.134-0.937c0.508,0.292,0.508-0.27,1.071-0.268c0.056-0.323-0.244-0.291-0.134-0.67
	c0.394,0.052,0.262,0.631,0.536,0.803c0.446-0.254-0.232-0.857,0.134-1.072c0.156,0.022,0.112,0.246,0.134,0.403
	C29.875,5.268,29.908,4.9,30.16,4.75c-0.033-0.236-0.231-0.306-0.536-0.269c0.151-0.419-0.039-0.354,0.134-0.669
	c0.248,0.021,0.082,0.454,0.268,0.536c0.423,0.065,0.049-0.665,0.535-0.536c0.043,0.311-0.021,0.514-0.134,0.669
	c0.257,0.09,0.992,0.788,1.072,0c0.278,0.075,0.284,0.209,0.134,0.402c0.561,0.05,0.095-0.437,0.133-0.67
	c0.394,0.417,0.858,0.833,1.339,0.803c-0.167-0.368-0.457-0.614-0.937-0.668c0.22-0.672-0.304-0.658,0.134-1.205
	c0.232,0.214,0.29,0.602,0.267,1.07c0.422-0.024,0.172-0.721,0.669-0.668c0.116,0.426-0.21,0.414-0.268,0.668
	c0.241-0.203,0.967-0.077,0.938,0.402c0.155-0.292,0.405-0.488,0.536-0.803c0.341,0.444,0.407,0.643,0.937,0.669
	c-0.093,0.311-0.54,0.133-0.803,0.535c-0.111,0.379,0.188,0.347,0.134,0.67c-0.653-0.619-0.327,1.812,0.401,1.072
	c-0.078-0.435,0.091-0.624,0.134-0.937c0.108,0.092,0.367,0.208,0.402,0c0.137,0.086,0.138,0.307,0.402,0.267
	c-0.421,0.16-0.595,0.565-0.536,1.205c0.41,0.097,0.489-0.137,0.804-0.134c-0.087-0.135-0.308-0.138-0.268-0.401
	c0.418-0.162,0.663,0.159,0.804-0.401c-0.442-0.059-0.822-0.242-0.134-0.536c-0.377-0.022-0.614-0.173-1.206-0.268
	c0.019-0.563,0.762-0.399,1.072-0.67c-0.256,0.504,0.543,1.012,1.205,0.67c-0.001-0.266-0.365-0.171-0.268-0.537
	c0.145,0.515-0.778,0.563-0.803-0.133c0.927-0.188,0.803,0.254,1.74,0.536c-0.098-0.126-0.243-0.204-0.402-0.268
	c0.075-0.461,0.518-0.077,0.804,0c0.108-0.025,0.133-0.135,0.268-0.135c-0.169-0.178-0.402-0.262-0.134-0.535
	C38.574,4.46,38.55,4.837,38.06,4.75c0.381-1.085,0.259-0.801-0.402-1.742c0.437,0.171,0.645-0.167,0.67,0.268
	c0.6-0.813-0.627-0.199-0.134-1.071c0.421-0.02,0.46,0.343,0.536,0.67c0.119-0.06,0.24-0.118,0.268-0.269
	c0.11,0.501,0.123,0.13,0.402,0.67c0.137-0.789,1.287-1.831,2.008-1.205c0.401-0.089-0.128-0.287,0-0.537
	c0.368,0.319,0.81,0.266,1.339,0.135c0.258-0.172-0.316-0.278,0-0.67C42.928,1.131,43.015,1.357,43.148,1.535z"/>
</svg>
