<?xml version="1.0" encoding="utf-8"?>
<!-- Generator: Adobe Illustrator 15.0.2, SVG Export Plug-In . SVG Version: 6.00 Build 0)  -->
<!DOCTYPE svg PUBLIC "-//W3C//DTD SVG 1.1//EN" "http://www.w3.org/Graphics/SVG/1.1/DTD/svg11.dtd">
<svg version="1.1" id="Layer_1" xmlns="http://www.w3.org/2000/svg" xmlns:xlink="http://www.w3.org/1999/xlink" x="0px" y="0px"
	 width="284.465px" height="285.166px" viewBox="0 0 284.465 285.166" enable-background="new 0 0 284.465 285.166"
	 xml:space="preserve">
<path d="M139.792,180.765c-1.592,3.571-10.569,3.529-13.258,3.313C128.441,180.462,136,182.497,139.792,180.765z"/>
<path d="M217.68,197.336c-4.709,3.3-12.096,3.925-19.887,4.144c6.057,2.699-5.424,3.543-8.286,4.972
	c0.835-2.492-1.846-1.468-3.313-1.657C193.201,198.821,207.893,200.531,217.68,197.336z"/>
<path d="M212.707,200.649c3.406,3.863-10.104,3.93-14.085,5.801C202.012,203.212,209.078,203.649,212.707,200.649z"/>
<path d="M118.249,213.079c-11.835,4.46-22.669,9.921-36.458,12.429C93.304,220.726,104.739,215.865,118.249,213.079z"/>
<path d="M92.562,218.879c-2.432,1.962-7.519,4.84-10.771,3.313C82.343,218.05,88.935,219.947,92.562,218.879z"/>
<path d="M76.819,223.851c-2.858,2.941-9.95,1.651-14.086,3.314C66.047,224.678,71.312,224.144,76.819,223.851z"/>
<path d="M233.421,228.822c-24.303,0.112-38.979,9.718-57.172,15.743C192.957,236.967,206.667,226.372,233.421,228.822z"/>
<path d="M238.393,231.308c-8.393,7.103-24.91,10.403-38.115,9.943C213.941,238.896,227.971,236.903,238.393,231.308z"/>
<path d="M225.137,232.965c-8.098,1.665-16.541,6.751-23.201,4.972C202.527,232.444,216.738,233.413,225.137,232.965z"/>
<path d="M115.763,252.022c1.065,2.971-7.594,3.713-12.429,4.972c-5.906,1.538-11.573,4.194-16.571,4.144
	C94.574,256.244,107.694,256.66,115.763,252.022z"/>
<path d="M102.505,253.681c-2.281,3.242-7.873,3.174-13.257,3.313C92.565,254.787,98.252,254.951,102.505,253.681z"/>
<path d="M151.393,177.45c-8.093,5.055-21.457,1.648-31.487,5.8C126.698,177.613,141.951,180.438,151.393,177.45z"/>
<path d="M129.849,188.222c5.706-2.087,20.213-8.055,28.17-9.115c2.442-0.324,9.193-0.412,2.486,0.83
	c-1.068,0.197-3.559,1.217-5.8,0.828C147.229,184.058,138.558,186.159,129.849,188.222z"/>
<path d="M107.477,213.908c-11.481,5.091-29.442,3.702-40.601,9.114C76.501,216.076,93.952,216.955,107.477,213.908z"/>
<path d="M115.763,248.708c-9.122,4.171-28.889,6.417-34.8,8.286C90.042,251.711,104.185,251.493,115.763,248.708z"/>
<path d="M255.793,177.45c4.039,1.257,9.88-2.811,14.915-3.314c7.373,10.254,14.037,29.896,7.458,46.4
	c-0.766,2.32-7.632,1.88-11.602,3.314c-0.09,5.432,0.644,11.69-1.656,14.914c-36.957,3.371-75.948,13.877-114.344,22.372
	c-22.819,5.048-50.385,10.224-76.23,16.571c-8.115,1.993-18.648,7.104-24.857,5.8c-10.15-2.132-12.348-19.291-8.286-29.829
	c-9.877-1.755-15.209,2.812-22.372,1.657c-13.492-2.177-22.186-35.832-4.972-43.086c7.788-3.281,12.738,0.526,24.029-2.485
	c-0.404-12.832,1.595-23.263,8.286-29c64.609-8.746,142.176-16.729,203.832-27.344C257.434,152.14,257.438,170.642,255.793,177.45z
	 M203.593,163.364c4.017,6.013-4.571,12.111-3.313,20.714c18.271,3.328,35.175-1.812,50.543-4.144
	c3.766-4.791,5.416-18.959-0.829-22.371C236.622,158.312,217.643,160.542,203.593,163.364z M52.79,182.422
	c3.33,6.062,3.644,15.138,3.315,24.856c36.32-12.459,97.417-5.812,124.288-26.514c4.022-3.101,13.864-12.808,11.601-16.572
	C145.594,170.271,100.515,177.669,52.79,182.422z M196.964,167.507c1.226,0.432,2.089,1.227,3.313,1.657
	c1.613-1.599,0.867-5.072-2.485-4.144C197.828,166.162,197.402,166.841,196.964,167.507z M194.479,168.335
	c-12.742,21.744-38.088,26.58-70.43,30.658c-35.882,4.523-68.769,10.072-101.915,14.915c2.232,4.508,5.432,6.153,6.628,11.601
	c2.102,9.569-4.63,21.264-3.314,26.514c6.233,0.156,10.175-1.977,16.571-1.656c12.668-11.663,39.433-11.756,60.487-16.571
	c51.21-11.714,105.379-22.163,154.945-33.144c3.412,5.978,7.718,11.063,9.113,19.057c3.545-0.047,6.072-1.111,9.115-1.657
	c5.465-11.993,1.283-37.958-8.285-39.772c-4.156-0.787-14.123,4.017-21.543,5.801c-7.383,1.775-16.205,3.674-23.201,4.143
	c-8.649,0.581-17.998,1.892-24.856-2.486c-2.567-5.039,1.623-9.785,1.657-14.914C196.977,170.808,196.632,168.667,194.479,168.335z
	 M46.99,183.25c-6.428,5.172-6.483,16.717-8.286,26.515c2.692-0.07,5.097-0.427,6.629-1.656c-3.203-3.414-2.28-15.738,2.486-16.572
	c1.479,3.699-3.229,7.609-1.658,14.086c2.331-0.155,3.53-1.441,3.314-4.143c-0.01-2.324-2.261,1.973-1.657-1.657
	c0.056-2.431,1.894-3.078,3.314-4.144c1.857,3.586,0.921,10.612-1.657,12.43c1.381,0,2.762,0,4.143,0
	C52.171,201.104,56.49,184.572,46.99,183.25z M252.479,203.965c-59.814,12.817-133.542,28.952-196.374,40.601
	c5.295,5.412,9.527,17.756,6.628,27.344c-1.273,4.212-6.853,6.793-4.972,9.113c68.67-16.855,135.625-30.477,205.489-45.571
	C266.529,226.871,263.32,201.642,252.479,203.965z M18.818,247.051c11.676-1.186,9.807-31.003-0.828-32.315
	c-0.63-0.077-5.342-1.194-3.314,1.658c11.955-2.584,13.437,27.584,4.143,29c-8.72,1.328-11.882-20.132-3.314-23.201
	c4.088,1.229,6.325,12.526,1.657,14.916c-2.44,0.175-3.399-5.364-1.657-6.629c-0.125,2.059,0.428,3.439,1.657,4.144
	c-0.308-4.111,1.249-10.086-2.486-10.771c-4.368,4.627-2.649,16.631,2.486,19.058c7.569-2.661,8.213-27.304-4.143-24.858
	C7.979,225.717,7.444,248.206,18.818,247.051z M17.162,249.537c-2.723-0.081-4.788-5.101-6.629-3.313
	C12.304,247.253,14.369,252.274,17.162,249.537z M50.305,280.194c14.351,2.477,15.406-33.278,1.657-33.973
	c-5.079-0.256-9.592,7.162-9.943,10.771c-0.917,9.439-0.027,1.979,0.829,0.829c4.869-6.536-1.285-1.7,6.628-6.628
	c6.75,2.342,10.406,20.853,1.657,24.029c-4.388-0.328-5.244-8.543-3.314-12.43c1.95,2.191,1.272,7.014,2.486,9.943
	c6.411-2.051,4.839-16.534-0.829-18.229C41.45,257.524,41.936,278.75,50.305,280.194z"/>
<rect x="0.5" y="0.5" fill="none" width="283.465" height="283.465"/>
</svg>
