<?xml version="1.0" encoding="utf-8"?>
<!-- Generator: Adobe Illustrator 15.0.2, SVG Export Plug-In . SVG Version: 6.00 Build 0)  -->
<!DOCTYPE svg PUBLIC "-//W3C//DTD SVG 1.1//EN" "http://www.w3.org/Graphics/SVG/1.1/DTD/svg11.dtd">
<svg version="1.1" id="Layer_1" xmlns="http://www.w3.org/2000/svg" xmlns:xlink="http://www.w3.org/1999/xlink" x="0px" y="0px"
	 width="150.557px" height="150.002px" viewBox="0 0 150.557 150.002" enable-background="new 0 0 150.557 150.002"
	 xml:space="preserve">
<rect x="8.774" fill="none" width="150" height="150"/>
<path d="M61.528,6.384c0.312,6.021,8.063-0.758,11.608,3.168c0.127-0.309,1.369-5.582,0-6.332c0.94-2.904,4.282,2.457,3.165-3.166
	c3.271,3.08,6.312,4.468,13.719,2.109c-0.229,3.86-1.448,4.049,0,7.389c1.894,0.134,2.227-1.293,4.222-1.056
	c-0.356,2.117,0.217,3.302,2.11,3.166c-2.238,6.897,4.994,8.474,3.165,11.608c4.104-2.271,6.099-3.247,10.555-3.166
	c-4.551,2.377,1.567,9.059-4.222,9.498c0.117,0.839,3.489,3.199,3.165,1.055c1.103,1.691,1.688,9.527-5.275,8.441
	c3.72,4.634,1.021,11.162-2.108,14.774c3.695-0.875,4.058-5.087,5.273-8.442c4.298,2.271,5.624,4.748,10.554,4.223
	c1.147,2.686-4.939,4.092,0,4.221c-1.161,0.396-4.015,4.221-1.056,5.276c-2.197,3.47-4.449-1.782-6.331-2.11
	c2.5,3.019,1.13,4.619-2.111,3.166c0,0.703,0,1.407,0,2.11c0.592,2.796,4.084-4.392,3.168,2.11c3.941,0.096,3.01,1.184,6.33,0
	c-0.491,2.252,1.511,2.011,3.167,2.109c1.233,2.76-3.258,4.539,1.057,4.221c-2.021,2.588-4.277,5.566-2.11,9.498
	c-2.607,2.739-4.128,0.023-5.275,4.224c1.802,3.315,7.402-1.185,8.44,1.055c0.522,3.812-2.729,10.79-3.165,12.663
	c-0.374,1.479-1.856,0.092-2.109-1.055c-2.405,4.283,0.21,6.02,1.055,10.554c-4.665-0.099,1.312,5.288-3.166,6.332
	c1.031,1.08,2.087,2.135,3.166,3.167c-0.812,3.411-2.919,5.521-6.331,6.332c0.797-6.208-2.658-2.042-4.222-6.332
	c-2.311,0.713,2,3.506,3.167,4.221c-4.235,2.459-3.837,0.206-9.498,3.166c-0.359-2.117,0.216-3.302,2.108-3.166
	c-1.356-1.602-6.854-3.664-7.388,0c-2.397-0.77-3.155-3.175-4.221-5.275c-2.479,1.039-1.752,5.283-5.277,5.275
	c-1.977-2.01-0.115-2.65,0-5.275c-10.594-0.623-7.203,22.144-6.332,29.549c0.424,3.092,6.192,0.844,7.388,3.166
	c11.933,0.808-0.989,0.955-7.388,1.057c-7.635,0.118-16.3-0.101-20.049,0c-1.787-1.178,5.769-1.9,8.438-2.111
	c7.018-3.894,0.523-21.285,4.225-28.494c-0.953-3.553-2.36-0.125-4.225-2.109c-1.564,0.46,0.416,1.352,0,3.166
	c-2.431,0.323-1.172-3.049-3.163-3.166c-4.09,1.329-3.031,3.1-5.275,7.387c-2.969,0.207-3.045-4.553-3.167,1.057
	c-0.985-0.598-1.599-2.936-2.111-1.057c-1.59-1.549,0.102-6.3-5.274-6.332c-0.434,2.543,1.928,2.295,1.056,5.277
	c-3.991-1.527-2.025,2.898-5.277,2.109c-2.154-2.281-0.36-6.562,2.111-7.387c-1.448,0.23-5.953,0.536-9.498,1.055
	c0.738-3.248,0.738-2.027,0-5.275c-3.83,2.357-6.551,1.732-8.443,4.221c-2.659-3.871-0.73-5.771-2.107-10.553
	c2.88,0.768,2.123-2.098,4.221-2.111c-0.61-3.957-0.103-3.873-2.11-7.388c2.103-1.125,6.117-5.762,4.224-7.387
	c0.239-1.521,3.146-0.368,3.165-2.11c2.393,1.126,3.835,3.201,4.222,6.332c2.88,0.77,2.125-2.098,4.221-2.109
	c-0.447-2.061-3.015,1.726-2.107-3.166c-2.879-0.096-2.125,1.758-4.224,0c1.386-4.771,0.835-5.297,5.277-7.389
	c-0.917-3.068-1.581-1.187-4.223-1.055c2.312-2.208,2.174-3.966-1.058-5.277c2.986-0.341,2.104-0.716,4.225-4.221
	c-2.627,0.21-2.467-7.837-7.389-8.443c2.08-2.729,5.172-5.613,8.442-4.221c0-1.057,0-2.109,0-3.166
	c-2.543-0.432-2.295,1.926-5.278,1.055c0.272-3.902,2.063-4.662-3.164-4.221c1.311-2.861,4.072-2.626,2.109-6.332
	c4.508,2.744,5.18-3.611,9.498-1.055c-4.44-2.227,0.359-4.338,2.11-6.333c3.388-0.925,2.188,2.737,4.222,3.166
	c0.442-2.821,2.182-9.117-3.166-11.608c1.979-3.956,2.271-6.419-1.056-7.387c0.842-5.107,3.817-7.665,2.109-12.664
	C56.025,8.224,58.209,6.736,61.528,6.384z"/>
</svg>
