<?xml version="1.0" encoding="utf-8"?>
<!-- Generator: Adobe Illustrator 15.0.2, SVG Export Plug-In . SVG Version: 6.00 Build 0)  -->
<!DOCTYPE svg PUBLIC "-//W3C//DTD SVG 1.1//EN" "http://www.w3.org/Graphics/SVG/1.1/DTD/svg11.dtd">
<svg version="1.1" id="Layer_1" xmlns="http://www.w3.org/2000/svg" xmlns:xlink="http://www.w3.org/1999/xlink" x="0px" y="0px"
	 width="75px" height="50px" viewBox="58.548 3.739 75 50" enable-background="new 58.548 3.739 75 50" xml:space="preserve">
<path d="M126.758,34.369c0.178,0.958,1.164,0.878,1.853,1.186c-9.182-3.458-21.728-5.595-34.877-4.348
	c-0.805,0.419-0.646,2.072-1.544,2.372c-4.52-1.073-7.152,2-10.185,3.954c0.2,0.401,0.709,0.408,0.617,1.186
	c-1.163-0.172-1.406,0.835-1.852,1.581c0.08,3.336,1.066,3.693,2.469,4.743c0.869-0.091-1.202,2.358-2.469,0.395
	c-0.629-1.302-1.128-2.772-1.852-3.952c0.33-1.423,0.858-2.591,1.543-3.558c-2.221-0.286-2.946,6.588-1.543,7.115
	c-0.093,1.199-1.191,1.111-1.235,2.372c0.432,1.424,2.46,0.803,3.087,1.978c-2.313,0.463-4.027,1.697-4.63,4.348
	c-0.796-0.543-0.069-2.422,0-3.163c-1.458,0.711-3.413,1.272-4.321,1.582c-0.633-1.224,1.547-2.222,2.47-2.767
	c-0.623-1.172-2.378,0.284-2.161-1.187c0.927-0.525,2.361-0.402,3.704-0.396c4.619-7.86-4.204-10.294-6.79-13.835
	c-0.366-0.501-0.264-1.317-0.617-1.976c-2.679-4.999-7.81-5.572-7.099-13.836c0.271-3.159,4.169-11.21-2.778-9.487
	c0.593-3.953,5.983-7.015,9.568-3.163c-0.353,3.676-0.072,10.243,3.086,11.069c2.992,0.783,5.612,1.079,8.333,2.372
	c2.177,1.035,4.234,3.292,6.79,4.349c4.665,1.929,10.8,2.27,16.05,3.163c11.827,2.013,23.018,5.185,31.173,10.278
	C131.532,37.21,128.791,35.195,126.758,34.369z"/>
</svg>
