<?xml version="1.0" encoding="utf-8"?>
<!-- Generator: Adobe Illustrator 15.0.2, SVG Export Plug-In . SVG Version: 6.00 Build 0)  -->
<!DOCTYPE svg PUBLIC "-//W3C//DTD SVG 1.1//EN" "http://www.w3.org/Graphics/SVG/1.1/DTD/svg11.dtd">
<svg version="1.1" id="Layer_1" xmlns="http://www.w3.org/2000/svg" xmlns:xlink="http://www.w3.org/1999/xlink" x="0px" y="0px"
	 width="91.962px" height="99.589px" viewBox="0 0 91.962 99.589" enable-background="new 0 0 91.962 99.589" xml:space="preserve">
<path fill-rule="evenodd" clip-rule="evenodd" d="M66.848,0c-1.227,5.823-2.442,12.491-3.021,20.016
	c-0.13,1.681,0.037,3.382-0.188,5.099c-0.974,7.392-4.409,12.918-5.1,19.828c-0.567,5.694,5.327,7.689,10.197,5.854
	c3.364-1.269,5.596-5.541,10.008-6.043c1.977-0.225,3.657,0.637,4.532,1.511c0.826,0.823,0.818,2.177,1.512,3.209
	c1.218,1.817,3.461,1.972,6.608,2.267c0.085,0.481,0.266,0.867,0.566,1.133c-2.003,1.332-4.667,0.119-6.798,0.377
	c-3.616,0.438-6.471,4.876-10.197,1.7c-3.896,4.28-10.074,6.967-14.54,10.952c-5.672,5.062-10.55,11.798-17.184,16.239
	c-0.566,0-1.133,0-1.699,0c-1.43,3.275,1.897,6.507,1.322,10.197c-0.329,2.104-3.061,5.166-4.721,6.231
	c-1.411,0.906-5.054,1.656-6.798,0.189c2.934-0.653,6.083-1.092,7.365-3.4c-1.434,1.076-4.056,2.221-5.666,0.567
	c0.156-1.445,1.855-0.767,2.833-0.944c1.735-0.314,2.682-0.981,3.21-2.267c0.107-0.86-0.334-1.176-0.189-2.076
	c3.518,0.078-0.149-5.37-1.133-5.287c-1.353,0.113-0.524,2.622-2.455,2.266c-0.794,1.598-0.738,4.047-2.455,4.721
	c-0.032-0.534-0.346-0.787-0.377-1.321c-1.359,0.591-1.44,2.462-2.455,3.398c-0.433-0.324-0.069-1.44-0.189-2.077
	c-0.95-0.209-1.503,1.483-2.077,2.267c-0.738-0.231,0.091-1.331-0.189-2.267c-1.866,0.338-1.407,3-3.965,2.644
	c0.191-1.445,0.877-2.396,1.133-3.777c-1.608,0.048-2.226,3.729-3.966,3.777c-0.755,0.021-1.563-0.989-1.7-1.889
	c-0.42-2.771,3.084-6.175,4.532-9.063c1.609-3.211,4.106-7.078,3.587-11.33c-0.286-2.341,0.081-5.523,0.567-8.497
	c0.169-0.609-0.616-0.266-0.756-0.567c0.284-2.737-1.749-3.16-3.021-4.343c-0.008-0.575,0.399-0.734,0.566-1.133
	c-0.275-0.605-1.216-0.545-1.51-1.133c0.1-0.595,0.332-1.055,0.567-1.511c-0.247-0.698-1.281-0.607-1.7-1.133
	c0-0.63,0.614-0.646,0.566-1.322c-0.267-0.552-1.038-0.599-1.511-0.944c-0.09-0.595,0.27-0.738,0.377-1.133
	c-0.504-0.188-0.995-0.39-1.699-0.377c-0.049-0.554,0.427-0.581,0.377-1.134c-1.724-0.982-2.107-3.304-4.532-3.587
	c-0.187-1.068,0.715-1.047,0.944-1.7c-1.285-0.198-2.309,0.386-3.21,0c-0.372-1.076-0.112-2.783-0.566-3.776
	c-0.706-0.742-2.847-0.048-3.587-0.755c-0.043-0.798,0.291-1.22,0.377-1.889c-1.01-1.821-3.17-2.494-4.343-4.153
	c0.076-0.742,0.83-0.806,0.944-1.511c-0.645-1.684-2.757-1.901-2.832-4.155c0.692,0,1.384,0,2.077,0
	c-0.887-2.008-3.411-2.379-4.154-4.532c0.17-1.152,1.855-0.788,2.266-1.7C2.923,19.61,0.339,19.613,0,17.373
	c1.454,0.183,2.608,0.665,3.965,0.944c-0.051-2.477-2.955-3.709-3.399-6.42c1.312-0.115,1.259,1.134,2.266,1.322
	c0.56-1.193-0.642-2.25-0.566-3.588c3.117,0.891,5.376,3.235,7.742,5.099c2.374,1.869,4.994,3.242,7.743,4.91
	c2.343,1.422,4.836,3.476,7.553,5.288c2.465,1.644,5.624,3.409,7.176,5.476c1.386,1.848,1.806,4.258,2.833,6.421
	c0.919,1.937,2.295,4.087,3.399,5.854c1.089,1.743,2.387,3.239,5.098,3.21c1.855-2.11,2.352-5.579,4.721-7.176
	c0.048-0.677-0.567-0.691-0.566-1.322c0.443-1.257,1.859-1.54,2.456-2.644c0.342-2.804-0.391-6.685,0.943-8.498
	c-0.942-3.213,0.912-5.042,0.566-8.686c0.375-0.315,0.241,0.016,0.756,0c-0.128-0.69-0.264-1.374-0.188-2.267
	c0.442,0.062,0.184,0.824,0.567,0.945c0.62-0.324,0.299-1.591,0.377-2.456c0.593-0.089,0.497,0.508,0.944,0.567
	c0-0.567,0-1.133,0-1.7c0.393-0.41,0.609,0.023,0.944,0.189c0.139-1.056,0.353-2.039,0.378-3.21c0.314,0,0.629,0,0.944,0
	c0.06-0.822,0.217-1.544,0.377-2.266c0.393-0.409,0.61,0.023,0.945,0.188c-0.029-0.86-0.157-0.741,0-1.51
	c1.586-0.058,1.77-1.793,2.453-3.21c0.315,0.024,1.202-0.611,1.133,0.19c0.672-0.337,0.567-1.448,1.134-1.889
	c0.743-0.052,1.312,0.073,1.511,0.566C64.902,0.95,65.393-0.007,66.848,0z"/>
</svg>
