<?xml version="1.0" encoding="utf-8"?>
<!-- Generator: Adobe Illustrator 15.0.2, SVG Export Plug-In . SVG Version: 6.00 Build 0)  -->
<!DOCTYPE svg PUBLIC "-//W3C//DTD SVG 1.1//EN" "http://www.w3.org/Graphics/SVG/1.1/DTD/svg11.dtd">
<svg version="1.1" id="Layer_1" xmlns="http://www.w3.org/2000/svg" xmlns:xlink="http://www.w3.org/1999/xlink" x="0px" y="0px"
	 width="23px" height="37.424px" viewBox="0 0 23 37.424" enable-background="new 0 0 23 37.424" xml:space="preserve">
<path fill-rule="evenodd" clip-rule="evenodd" fill="#FAC838" d="M6.696,11.403c2.003,0.629,7.604,0.629,9.607,0
	c-1.596,2.577-4.394,3.952-3.785,8.734c0,2.232-0.016,6.227,0,6.696c0.048,1.407,3.932,2.983,6.09,4.027
	c0.582,1.48,0.485,4.149,0.485,4.634c-4.755,0-10.505,0-15.26,0c0-0.388,0.339-3.228,0.243-4.391
	c1.96-1.242,6.502-3.009,6.405-3.979c-0.051-0.507,0-4.464,0-6.696C11.105,15.534,8.457,13.913,6.696,11.403z"/>
<path fill-rule="evenodd" clip-rule="evenodd" d="M0,2.087c0-0.679,0-1.358,0-2.038C7.57,0.243,15.916-0.339,23,0.34
	c0,0.583,0,1.165,0,1.747c-0.776,0-1.553,0-2.329,0c-0.063,4.529-0.258,7.033-1.747,9.898c-1.533,2.951-4.487,4.379-4.367,6.988
	c0.113,2.451,3.53,4.668,4.658,7.278c1.334,3.086,1.033,5.282,2.038,9.025c0.583,0,1.165,0,1.747,0c0,0.485,0,0.97,0,1.456
	c-6.23,1.146-16.006,0.588-23,0.291c0-0.582,0-1.165,0-1.747c0.679,0,1.358,0,2.038,0c0.636-4.218,0.38-6.841,2.038-9.899
	c1.33-2.453,4.367-4.122,4.367-6.696c0-2.564-3.098-4.551-4.367-6.987c-1.48-2.841-1.839-5.279-1.747-9.607
	C1.553,2.087,0.776,2.087,0,2.087z M4.367,2.378c-0.141,3.925,0.661,6.908,2.329,9.025c1.76,2.51,4.409,4.13,3.785,9.025
	C8.79,24.172,4.864,26.12,4.316,31.007c-0.24,4.27-0.24,4.27-0.24,4.27c4.949,0,9.898,0,14.848,0c0,0-0.023-0.292-0.582-4.658
	c-0.585-4.85-4.392-6.478-5.823-10.481c-0.609-4.782,2.189-6.157,3.785-8.734c1.827-1.958,2.57-5,2.329-9.025
	C14.556,1.893,8.444,1.893,4.367,2.378z"/>
</svg>
