<?xml version="1.0" encoding="utf-8"?>
<!-- Generator: Adobe Illustrator 15.0.2, SVG Export Plug-In . SVG Version: 6.00 Build 0)  -->
<!DOCTYPE svg PUBLIC "-//W3C//DTD SVG 1.1//EN" "http://www.w3.org/Graphics/SVG/1.1/DTD/svg11.dtd">
<svg version="1.1" id="Layer_1" xmlns="http://www.w3.org/2000/svg" xmlns:xlink="http://www.w3.org/1999/xlink" x="0px" y="0px"
	 width="341.283px" height="75.179px" viewBox="0 0 341.283 75.179" enable-background="new 0 0 341.283 75.179"
	 xml:space="preserve">
<path fill="#6AC5DF" d="M41.943,70.891c4.588,3.591,13.682,4.601,22.353,3.569c5.078-0.604,9.964-2.267,13.837-3.569L42.55,71.002"
	/>
<path fill="none" stroke="#000000" stroke-miterlimit="10" d="M0.083,53.986c11.066-1.85,14.875,6.778,24.623,9.038
	c4.391,1.018,7.573,1.188,11.115,3.242c4.284,2.484,5.955,5.648,10.838,6.896c6.59,1.683,15.376,2.035,21.556,0.707
	c3.591-0.772,7.369-3.062,11.458-2.789c7.156,0.48,12.695,3.902,20.261,1.945c14.629-3.784,23.018-19.483,38.253-22.206
	c6.552-1.171,10.629,2.224,16.638,3.699c6.9,1.694,12.485-0.355,19.314-1.081c11.552-1.227,22.055,3.116,33.575,0.716
	c6.119-1.274,6.261-1.35,13.953,0.533c7.88,1.929,16.472,3.108,24.492,1.219c9.486-2.235,14.373-1.421,24.048-0.515
	c5.066,0.475,7.723,0.624,12.616,2.15c2.715,0.847,7.062,3.592,10.342,2.556c3.969-1.254,6.047-7.167,10.127-8.215
	c3.598-0.924,9.3,1.529,13.367,1.264c8.39-0.546,16.124-3.006,24.519-1.215"/>
<path d="M137.129,2.136c0.105,2.032,2.721-0.255,3.917,1.069c0.043-0.104,0.462-1.884,0-2.137c0.317-0.98,1.445,0.829,1.068-1.068
	c1.104,1.04,2.129,1.507,4.629,0.712c-0.078,1.302-0.489,1.366,0,2.493c0.639,0.045,0.751-0.437,1.424-0.356
	c-0.12,0.714,0.073,1.114,0.712,1.068c-0.755,2.328,1.685,2.859,1.068,3.917c1.385-0.767,2.058-1.096,3.562-1.068
	c-1.536,0.802,0.529,3.057-1.424,3.205c0.04,0.283,1.177,1.08,1.068,0.356c0.372,0.571,0.57,3.215-1.78,2.848
	c1.255,1.564,0.345,3.767-0.711,4.985c1.247-0.295,1.369-1.716,1.779-2.849c1.451,0.767,1.898,1.602,3.562,1.425
	c0.387,0.906-1.667,1.381,0,1.424c-0.392,0.133-1.355,1.424-0.356,1.78c-0.741,1.171-1.501-0.601-2.136-0.712
	c0.844,1.019,0.381,1.559-0.712,1.068c0,0.237,0,0.475,0,0.712c0.2,0.943,1.378-1.482,1.069,0.712c1.33,0.032,1.016,0.399,2.136,0
	c-0.166,0.76,0.51,0.678,1.068,0.711c0.417,0.931-1.099,1.532,0.356,1.425c-0.682,0.873-1.443,1.878-0.712,3.205
	c-0.88,0.924-1.393,0.008-1.78,1.425c0.608,1.119,2.498-0.399,2.848,0.356c0.176,1.287-0.921,3.641-1.068,4.273
	c-0.126,0.5-0.626,0.031-0.712-0.355c-0.812,1.445,0.071,2.031,0.356,3.561c-1.574-0.033,0.443,1.784-1.068,2.136
	c0.348,0.365,0.704,0.721,1.068,1.069c-0.274,1.151-0.985,1.863-2.136,2.137c0.269-2.095-0.897-0.689-1.424-2.137
	c-0.78,0.241,0.675,1.183,1.068,1.424c-1.429,0.83-1.294,0.069-3.205,1.068c-0.122-0.715,0.073-1.114,0.711-1.068
	c-0.458-0.541-2.313-1.236-2.493,0c-0.809-0.26-1.064-1.071-1.424-1.78c-0.837,0.351-0.591,1.782-1.781,1.78
	c-0.667-0.678-0.039-0.895,0-1.78c-3.575-0.21-2.431,7.472-2.137,9.971c0.143,1.043,2.089,0.285,2.493,1.068
	c4.026,0.272-0.334,0.322-2.493,0.356c-2.576,0.04-5.5-0.034-6.765,0c-0.603-0.397,1.946-0.641,2.847-0.712
	c2.368-1.314,0.177-7.183,1.426-9.615c-0.322-1.2-0.796-0.042-1.426-0.712c-0.528,0.155,0.141,0.456,0,1.068
	c-0.82,0.109-0.395-1.029-1.067-1.068c-1.38,0.449-1.022,1.046-1.78,2.493c-1.002,0.07-1.027-1.536-1.069,0.356
	c-0.333-0.202-0.54-0.99-0.712-0.356c-0.536-0.522,0.034-2.126-1.78-2.137c-0.146,0.858,0.65,0.774,0.356,1.781
	c-1.347-0.516-0.684,0.979-1.781,0.712c-0.727-0.771-0.122-2.215,0.712-2.493c-0.489,0.078-2.009,0.181-3.205,0.356
	c0.249-1.097,0.249-0.685,0-1.781c-1.292,0.796-2.21,0.585-2.849,1.424c-0.897-1.307-0.246-1.947-0.711-3.561
	c0.972,0.259,0.716-0.708,1.424-0.712c-0.206-1.336-0.035-1.308-0.712-2.493c0.709-0.379,2.064-1.944,1.425-2.492
	c0.081-0.514,1.062-0.125,1.068-0.712c0.808,0.38,1.294,1.08,1.425,2.137c0.972,0.26,0.717-0.708,1.424-0.712
	c-0.151-0.695-1.018,0.583-0.711-1.068c-0.971-0.032-0.717,0.593-1.425,0c0.468-1.61,0.282-1.787,1.781-2.493
	c-0.309-1.035-0.533-0.4-1.425-0.355c0.78-0.745,0.733-1.338-0.357-1.781c1.008-0.115,0.71-0.242,1.426-1.424
	c-0.886,0.071-0.833-2.645-2.493-2.849c0.702-0.921,1.745-1.894,2.849-1.424c0-0.356,0-0.711,0-1.068
	c-0.858-0.146-0.774,0.65-1.781,0.356c0.092-1.317,0.696-1.573-1.067-1.424c0.442-0.965,1.374-0.886,0.712-2.136
	c1.521,0.926,1.748-1.219,3.205-0.356c-1.498-0.751,0.122-1.464,0.712-2.137c1.143-0.312,0.738,0.924,1.424,1.068
	c0.149-0.952,0.736-3.076-1.068-3.917c0.667-1.335,0.767-2.166-0.356-2.493c0.284-1.723,1.288-2.586,0.711-4.273
	C135.272,2.757,136.01,2.255,137.129,2.136z"/>
</svg>
