<?xml version="1.0" encoding="utf-8"?>
<!-- Generator: Adobe Illustrator 15.0.2, SVG Export Plug-In . SVG Version: 6.00 Build 0)  -->
<!DOCTYPE svg PUBLIC "-//W3C//DTD SVG 1.1//EN" "http://www.w3.org/Graphics/SVG/1.1/DTD/svg11.dtd">
<svg version="1.1" id="Layer_1" xmlns="http://www.w3.org/2000/svg" xmlns:xlink="http://www.w3.org/1999/xlink" x="0px" y="0px"
	 width="150px" height="150.012px" viewBox="236 221.127 150 150.012" enable-background="new 236 221.127 150 150.012"
	 xml:space="preserve">
<g>
	<path fill="#FFFFFF" d="M313.636,272.047c0.054,2.349-0.825,3.766-1.147,5.739c-1.9-1.671-3.794-3.348-5.356-5.357
		C308.926,271.928,311.33,272.037,313.636,272.047z"/>
	<path fill="#FFFFFF" d="M310.958,280.846c-3.492-0.744-7.485-4.227-13.008-4.208c1.231-1.702,4.043-1.823,5.739-3.06
		C306.854,275.259,309.363,277.596,310.958,280.846z"/>
	<path fill="#FFFFFF" d="M328.939,323.312c0.39,1.935,1.484,7.455,1.148,10.714C327.6,332.56,329.567,326.638,328.939,323.312z"/>
	<path fill="#FFFFFF" d="M337.739,330.965c1.295,4.571,2.219,9.513,2.295,15.303c-1.652-3.959-1.921-9.301-3.826-13.008
		C336.141,331.917,337.5,332.001,337.739,330.965z"/>
	<path fill="#FFFFFF" d="M338.503,342.825c-1.898-2.056-2.931-4.977-5.356-6.504C335.881,329.166,337.853,338.963,338.503,342.825z"
		/>
	<path fill="#FFFFFF" d="M329.705,352.771c-1.525-4.954-0.276-12.427,0-17.981C332.151,339.835,329.927,346.988,329.705,352.771z"/>
	<path fill="#FFFFFF" d="M349.216,335.556c1.395,3.197,1.28,7.901,1.53,12.243C349.841,344.113,349.365,339.998,349.216,335.556z"/>
	<path d="M331.234,327.904c-0.444,1.729,0.352,5.509,0.766,7.651c1.852-0.805,4.242-2.583,2.678-4.591
		c2.497,3.095,4.154-2.76,3.825-6.122c0.885,1.374,0.423,2.039,1.531,3.443c0.416,0.885,1.563-1.87,2.678-0.383
		c5.222,9.424,5.787,28.866,4.592,43.231c-1.662-14.453,0.285-32.625-4.974-43.231c-3.363,0.375-1.804,3.277-1.913,5.355
		c-0.388,7.463,0.788,16.413,1.913,25.25c0.612,4.802,2.371,9.092,1.913,12.625c-2.253,0.176-1.319-4.621-1.531-6.887
		c-1.039-11.101-3.784-23.146-11.094-28.312c-0.587,11.784-2.617,22.125-1.913,35.198c-1.021,0-2.041,0-3.061,0
		c0.026-17.831-0.025-29.909-0.382-37.493c-1.627-0.938-4.017,0.191-5.738,0.384c-0.004-0.782,3.685-1.151,5.738-1.148
		c0.07-2.787,0.305-4.65-0.382-7.269c-6.618-1.959-12.096,2.294-14.539,6.887c1.046,2.651,3.901,4.692,4.591,9.563
		c1.231,8.677,7.992,20.949,7.651,29.076c-3.924-16.289-10.646-33.478-12.625-37.493c-1.876,1.694-2.159,4.982-4.591,6.122
		c1.005-2.692,2.404-4.994,3.826-7.269c-6.436-10.696-15.686-19.99-32.136-21.425c-4.615-0.402-9.141,0.372-14.156,0.383
		c-14.494,0.03-15.637-0.237-2.678-1.148c5.374-0.377,11.48-1,16.451-0.765c16.55,0.784,23.916,10.804,32.902,22.188
		c2.941-4.109,7.596-8.422,14.92-6.886c-2.001-14.958-5.506-31.73-13.773-41.702c-2.088,2.502-3.017,6.165-6.121,7.652
		c2.025-2.31,2.922-5.75,4.59-8.417c-3.966-2.112-9.93-5.275-14.92-4.208c-1.832,0.391-5.311,3.128-6.887,4.59
		c-4.468,4.146-7.046,11.641-10.712,14.539c2.621-6.817,7.206-14.984,13.773-19.129c-12.866-0.597-24.115,4.817-38.641,2.677
		c9.604-1.014,20.523-3.755,31.371-4.59c3.375-0.26,7.044,0.61,10.33,0c2.692-0.501,4.839-3.242,7.652-3.443
		c-3.608-6.356-14.393-0.324-24.103,0.382c-4.608,0.335-8.64-0.251-13.39,0c11.741-2.601,30.026-7.943,40.553-1.53
		c2.454-0.173,6.119-0.919,8.417,0c2.555-5.097,0.252-15.052,8.8-14.156c-2.184-5.871-7.909-9.312-14.92-8.416
		c-9.163,1.171-14.773,10.33-22.19,12.625c-0.919-1.013,0.828-0.905,1.148-1.147c6.216-4.706,12.82-14.131,26.016-12.243
		c3.18,0.455,7.202,1.804,9.565,5.356c1.122,1.688,0.372,3.902,3.06,4.591c0.215-2.762,1.04-5.501,0.382-8.417
		c-0.344-1.53-1.686-1.971-2.295-3.443c-2.454-5.938-0.63-13.478-1.913-21.425c-0.096-1.116-0.442-2.077-0.014-2.67
		c0.065-1.128,2.198-1.809,1.927-0.39c3.437,5.874,3.841,14.777,4.208,23.719c0.097,1.372-1.149,1.402-1.147,2.678
		c1.397,11.295,0.058,24.047,1.53,37.11c1.195,10.606,0.187,22.583,1.147,32.52c0.42,4.335,1.129,9.418,4.208,11.095
		C332.977,329.685,331.501,328.438,331.234,327.904z M333.147,336.321c2.425,1.527,3.458,4.448,5.356,6.504
		C337.853,338.963,335.881,329.166,333.147,336.321z M336.208,333.26c1.904,3.707,2.174,9.048,3.826,13.008
		c-0.077-5.79-1-10.731-2.295-15.303C337.5,332.001,336.141,331.917,336.208,333.26z M329.705,334.791
		c-0.276,5.555-1.525,13.027,0,17.98C329.927,346.988,332.151,339.835,329.705,334.791z M326.261,283.142
		c-2.803-4.338-5.818-8.465-11.095-10.329c-0.108,2.697-1.161,4.451-1.913,6.504c4.71,4.472,8.606,11.797,9.182,19.128
		c-1.983-6.826-6.113-13.513-10.713-16.451c3.674,5.145,7.424,10.31,9.565,17.216c2.119,6.833,3.193,14.283,5.356,21.425
		c0.311-4.776-0.238-10.726-0.765-13.39c-0.058,0.95,0.197,1.587,0.765,1.912C326.528,300.259,326.069,294.242,326.261,283.142z
		 M325.879,281.229c-0.468-4.889-2.589-16.813-3.132-22.96c1.946,4.372,2.614,15.571,3.514,19.136c-0.085-1.986,0.113-4.081,0-6.504
		c-0.216-4.663,0.654-10.519-2.295-12.242c-0.717-0.105,0.979,5.097-0.208,5.462c0.301-1.575-1.215-4.372-1.01-5.852
		c-7.547-0.279-6.979,7.112-7.198,14.162C320.289,274.066,323.032,277.7,325.879,281.229z M307.132,272.43
		c1.562,2.009,3.456,3.686,5.356,5.357c0.323-1.973,1.201-3.391,1.147-5.739C311.33,272.037,308.926,271.928,307.132,272.43z
		 M303.689,273.578c-1.695,1.237-4.508,1.358-5.739,3.06c5.523-0.019,9.516,3.464,13.008,4.208
		C309.363,277.596,306.854,275.259,303.689,273.578z M330.087,334.026c0.335-3.259-0.759-8.779-1.148-10.714
		C329.567,326.638,327.6,332.56,330.087,334.026z"/>
	<path d="M346.92,324.461c-1.293-6.869,2.343-21.98-5.738-23.337c1.797-1.146,3.809,0.772,4.591,1.913
		c-0.32-7.204-0.746-14.304-1.148-21.425c-3.822-3.445-2.902-14.246-1.147-19.895c2.387,3.575,4.903,14.073,1.913,19.895
		c1.483,7.168-0.454,15.56,1.147,22.189c0.69,2.859,4.15,4.438,3.825,7.27c-1.109-1.568-2.457-2.899-3.06-4.974
		c-1.119,17.569,4.567,31.65,8.034,45.909c1.283-15.748-0.009-29.87-4.974-40.553c8.626,13.665,6.757,38.797,6.122,59.683
		c-2.265-3.351-0.893-8.903-1.147-13.008c-0.405-6.53-2.459-12.455-3.443-17.599c-0.257,9.345,2.396,21.023,1.913,30.605
		c-0.893,0-1.786,0-2.678,0c-0.738-5,0.005-11.48-2.678-14.539c0.346-1.036,0.856,0.875,1.531,0.767
		c-0.476-6.138-1.61-11.868-1.913-17.6c-0.095-1.804,0.437-3.864,0-5.737c-1.373-5.883-8.6-7.072-10.33-12.244
		c3.118,3.769,7.409,6.363,10.33,10.331c0.204-6.054-3.056-8.988-5.739-13.392c-1.851-3.039-2.958-6.727-4.591-9.182
		c-2.733-4.109-7.16-6.934-8.8-11.479C336.094,304.171,341.564,315.279,346.92,324.461z M350.746,347.798
		c-0.25-4.342-0.135-9.046-1.53-12.243C349.365,339.998,349.841,344.113,350.746,347.798z"/>
</g>
<rect x="236" y="221.14" fill="none" width="150" height="150"/>
</svg>
